M48
; DRILL file {KiCad (6.0.1)} date Wed Mar 30 23:18:12 2022
; FORMAT={-:-/ absolute / inch / decimal}
; #@! TF.CreationDate,2022-03-30T23:18:12-05:00
; #@! TF.GenerationSoftware,Kicad,Pcbnew,(6.0.1)
; #@! TF.FileFunction,Plated,1,2,PTH
FMAT,2
INCH
; #@! TA.AperFunction,Plated,PTH,ViaDrill
T1C0.0157
; #@! TA.AperFunction,Plated,PTH,ComponentDrill
T2C0.0315
; #@! TA.AperFunction,Plated,PTH,ComponentDrill
T3C0.0394
; #@! TA.AperFunction,Plated,PTH,ComponentDrill
T4C0.0433
; #@! TA.AperFunction,Plated,PTH,ComponentDrill
T5C0.0472
; #@! TA.AperFunction,Plated,PTH,ComponentDrill
T6C0.0540
; #@! TA.AperFunction,Plated,PTH,ComponentDrill
T7C0.0551
; #@! TA.AperFunction,Plated,PTH,ComponentDrill
T8C0.0591
; #@! TA.AperFunction,Plated,PTH,ComponentDrill
T9C0.2402
%
G90
G05
T1
X3.205Y-3.975
X3.355Y-4.405
X3.6461Y-4.415
X3.845Y-4.418
X4.045Y-4.17
X4.054Y-5.421
X4.394Y-5.425
X4.54Y-3.795
T2
X4.988Y-3.756
X5.388Y-3.756
X5.5624Y-3.758
X5.7593Y-3.758
T3
X2.478Y-4.39
X2.722Y-4.79
X2.913Y-4.79
X3.108Y-4.792
X3.514Y-4.538
X3.526Y-3.7764
X3.526Y-3.9732
X4.119Y-3.569
X4.322Y-3.569
X5.365Y-4.655
X5.538Y-5.0608
X5.538Y-5.2576
X5.578Y-4.357
X5.786Y-4.368
X5.944Y-4.0206
X5.944Y-4.1206
X5.944Y-4.2206
X5.944Y-4.3206
X5.975Y-4.775
T4
X2.409Y-5.05
X2.4812Y-5.32
X2.4812Y-5.42
X2.4812Y-5.52
X2.809Y-5.05
X2.88Y-5.215
X2.88Y-5.615
X2.914Y-4.201
X3.314Y-4.201
X4.609Y-3.5732
X4.657Y-5.839
X4.709Y-3.5732
X4.757Y-5.839
X4.809Y-3.5732
X4.857Y-5.839
T5
X2.437Y-5.857
X3.193Y-5.293
X3.437Y-5.857
X3.993Y-5.293
T6
X5.9403Y-5.0782
X5.9403Y-5.1782
X5.9403Y-5.2782
T7
X3.8161Y-5.7676
X4.013Y-5.7676
X4.2099Y-5.7676
T8
X4.4438Y-4.657
X5.1722Y-4.657
T9
X2.512Y-3.748
X3.038Y-3.75
T0
M30
