%TF.GenerationSoftware,KiCad,Pcbnew,(6.0.1)*%
%TF.CreationDate,2022-03-30T23:18:15-05:00*%
%TF.ProjectId,system_voltages,73797374-656d-45f7-966f-6c7461676573,rev?*%
%TF.SameCoordinates,Original*%
%TF.FileFunction,Soldermask,Top*%
%TF.FilePolarity,Negative*%
%FSLAX46Y46*%
G04 Gerber Fmt 4.6, Leading zero omitted, Abs format (unit mm)*
G04 Created by KiCad (PCBNEW (6.0.1)) date 2022-03-30 23:18:15*
%MOMM*%
%LPD*%
G01*
G04 APERTURE LIST*
G04 Aperture macros list*
%AMRoundRect*
0 Rectangle with rounded corners*
0 $1 Rounding radius*
0 $2 $3 $4 $5 $6 $7 $8 $9 X,Y pos of 4 corners*
0 Add a 4 corners polygon primitive as box body*
4,1,4,$2,$3,$4,$5,$6,$7,$8,$9,$2,$3,0*
0 Add four circle primitives for the rounded corners*
1,1,$1+$1,$2,$3*
1,1,$1+$1,$4,$5*
1,1,$1+$1,$6,$7*
1,1,$1+$1,$8,$9*
0 Add four rect primitives between the rounded corners*
20,1,$1+$1,$2,$3,$4,$5,0*
20,1,$1+$1,$4,$5,$6,$7,0*
20,1,$1+$1,$6,$7,$8,$9,0*
20,1,$1+$1,$8,$9,$2,$3,0*%
G04 Aperture macros list end*
%ADD10C,1.600000*%
%ADD11O,1.600000X1.600000*%
%ADD12RoundRect,0.250000X-0.650000X0.412500X-0.650000X-0.412500X0.650000X-0.412500X0.650000X0.412500X0*%
%ADD13RoundRect,0.249999X-0.450001X-1.425001X0.450001X-1.425001X0.450001X1.425001X-0.450001X1.425001X0*%
%ADD14RoundRect,0.250000X-0.475000X0.337500X-0.475000X-0.337500X0.475000X-0.337500X0.475000X0.337500X0*%
%ADD15C,1.879600*%
%ADD16R,2.200000X2.200000*%
%ADD17O,2.200000X2.200000*%
%ADD18C,10.160000*%
%ADD19C,3.000000*%
%ADD20RoundRect,0.250000X0.750000X1.550000X-0.750000X1.550000X-0.750000X-1.550000X0.750000X-1.550000X0*%
%ADD21O,2.000000X3.600000*%
%ADD22C,2.000000*%
%ADD23C,2.400000*%
%ADD24O,2.400000X2.400000*%
%ADD25RoundRect,0.250000X-0.412500X-1.100000X0.412500X-1.100000X0.412500X1.100000X-0.412500X1.100000X0*%
%ADD26RoundRect,0.150000X0.825000X0.150000X-0.825000X0.150000X-0.825000X-0.150000X0.825000X-0.150000X0*%
%ADD27C,3.200000*%
%ADD28RoundRect,0.249999X1.075001X-0.450001X1.075001X0.450001X-1.075001X0.450001X-1.075001X-0.450001X0*%
%ADD29R,1.600000X1.600000*%
%ADD30R,2.000000X2.000000*%
%ADD31RoundRect,0.150000X0.150000X-0.825000X0.150000X0.825000X-0.150000X0.825000X-0.150000X-0.825000X0*%
%ADD32R,1.700000X1.700000*%
%ADD33O,1.700000X1.700000*%
%ADD34RoundRect,0.150000X-0.825000X-0.150000X0.825000X-0.150000X0.825000X0.150000X-0.825000X0.150000X0*%
%ADD35RoundRect,0.250000X-0.450000X0.350000X-0.450000X-0.350000X0.450000X-0.350000X0.450000X0.350000X0*%
%ADD36R,2.000000X1.905000*%
%ADD37O,2.000000X1.905000*%
%ADD38R,1.905000X2.000000*%
%ADD39O,1.905000X2.000000*%
%ADD40RoundRect,0.250000X-0.337500X-0.475000X0.337500X-0.475000X0.337500X0.475000X-0.337500X0.475000X0*%
%ADD41RoundRect,0.249999X-1.425001X0.450001X-1.425001X-0.450001X1.425001X-0.450001X1.425001X0.450001X0*%
%ADD42R,1.400000X0.450000*%
%ADD43R,1.650000X1.510000*%
G04 APERTURE END LIST*
D10*
%TO.C,R10*%
X136855200Y-95402400D03*
D11*
X126695200Y-95402400D03*
%TD*%
D12*
%TO.C,C9*%
X136321800Y-103441100D03*
X136321800Y-106566100D03*
%TD*%
D13*
%TO.C,R9*%
X140917200Y-123266200D03*
X147017200Y-123266200D03*
%TD*%
D14*
%TO.C,C4*%
X66395600Y-114557900D03*
X66395600Y-116632900D03*
%TD*%
D15*
%TO.C,U5*%
X150883899Y-128986200D03*
X150883899Y-131526200D03*
X150883899Y-134066200D03*
%TD*%
D16*
%TO.C,D2*%
X73152000Y-132461000D03*
D17*
X73152000Y-142621000D03*
%TD*%
D18*
%TO.C,J1*%
X63804800Y-95199200D03*
%TD*%
D19*
%TO.C,L1*%
X112873200Y-118287800D03*
X131373200Y-118287800D03*
%TD*%
D20*
%TO.C,J3*%
X106930200Y-146495900D03*
D21*
X101930200Y-146495900D03*
X96930200Y-146495900D03*
%TD*%
D22*
%TO.C,J6*%
X141681200Y-110667800D03*
%TD*%
D23*
%TO.C,R2*%
X81102200Y-134442200D03*
D24*
X101422200Y-134442200D03*
%TD*%
D25*
%TO.C,C2*%
X80631900Y-142544800D03*
X83756900Y-142544800D03*
%TD*%
D26*
%TO.C,U4*%
X146645400Y-117373400D03*
X146645400Y-116103400D03*
X146645400Y-114833400D03*
X146645400Y-113563400D03*
X141695400Y-113563400D03*
X141695400Y-114833400D03*
X141695400Y-116103400D03*
X141695400Y-117373400D03*
%TD*%
D27*
%TO.C,H4*%
X149199600Y-82981800D03*
%TD*%
D12*
%TO.C,C6*%
X95326200Y-114801906D03*
X95326200Y-117926906D03*
%TD*%
D22*
%TO.C,J12*%
X89255600Y-115265200D03*
%TD*%
D27*
%TO.C,H2*%
X58648600Y-83261200D03*
%TD*%
D28*
%TO.C,R4*%
X68630800Y-111518400D03*
X68630800Y-106718400D03*
%TD*%
D29*
%TO.C,C8*%
X141285149Y-95453200D03*
D10*
X146285149Y-95453200D03*
%TD*%
D30*
%TO.C,C5*%
X89560400Y-100919677D03*
D22*
X89560400Y-95919677D03*
%TD*%
%TO.C,J14*%
X69138800Y-121666000D03*
%TD*%
D31*
%TO.C,U1*%
X103759000Y-100315800D03*
X105029000Y-100315800D03*
X106299000Y-100315800D03*
X107569000Y-100315800D03*
X107569000Y-95365800D03*
X106299000Y-95365800D03*
X105029000Y-95365800D03*
X103759000Y-95365800D03*
%TD*%
D18*
%TO.C,J2*%
X77165200Y-95250000D03*
%TD*%
D32*
%TO.C,J4*%
X150977600Y-109743400D03*
D33*
X150977600Y-107203400D03*
X150977600Y-104663400D03*
X150977600Y-102123400D03*
%TD*%
D23*
%TO.C,R1*%
X87299800Y-148767800D03*
D24*
X61899800Y-148767800D03*
%TD*%
D27*
%TO.C,H3*%
X149098000Y-155067000D03*
%TD*%
D34*
%TO.C,U3*%
X73878000Y-114681000D03*
X73878000Y-115951000D03*
X73878000Y-117221000D03*
X73878000Y-118491000D03*
X78828000Y-118491000D03*
X78828000Y-117221000D03*
X78828000Y-115951000D03*
X78828000Y-114681000D03*
%TD*%
D35*
%TO.C,R5*%
X83211000Y-118507000D03*
X83211000Y-120507000D03*
%TD*%
%TO.C,R7*%
X83465000Y-113681000D03*
X83465000Y-115681000D03*
%TD*%
D36*
%TO.C,U2*%
X63022600Y-140208000D03*
D37*
X63022600Y-137668000D03*
X63022600Y-135128000D03*
%TD*%
D22*
%TO.C,J10*%
X136271000Y-118237000D03*
%TD*%
D30*
%TO.C,C7*%
X140665200Y-128543923D03*
D22*
X140665200Y-133543923D03*
%TD*%
%TO.C,J8*%
X104622600Y-90652600D03*
%TD*%
D38*
%TO.C,Q2*%
X123367800Y-148310600D03*
D39*
X120827800Y-148310600D03*
X118287800Y-148310600D03*
%TD*%
D40*
%TO.C,C3*%
X76711900Y-128244600D03*
X78786900Y-128244600D03*
%TD*%
D22*
%TO.C,J5*%
X109778800Y-90652600D03*
%TD*%
%TO.C,J16*%
X146964400Y-110947200D03*
%TD*%
D41*
%TO.C,R3*%
X98907600Y-94917800D03*
X98907600Y-101017800D03*
%TD*%
D38*
%TO.C,Q1*%
X117068600Y-90759400D03*
D39*
X119608600Y-90759400D03*
X122148600Y-90759400D03*
%TD*%
D42*
%TO.C,IC1*%
X140573400Y-103825400D03*
X140573400Y-104475400D03*
X140573400Y-105125400D03*
X140573400Y-105775400D03*
X144973400Y-105775400D03*
X144973400Y-105125400D03*
X144973400Y-104475400D03*
X144973400Y-103825400D03*
D43*
X142773400Y-104800400D03*
%TD*%
D27*
%TO.C,H1*%
X58293000Y-156083000D03*
%TD*%
D22*
%TO.C,J15*%
X73990200Y-121666000D03*
%TD*%
%TO.C,J13*%
X151765000Y-121285000D03*
%TD*%
D16*
%TO.C,D1*%
X61188600Y-128270000D03*
D17*
X71348600Y-128270000D03*
%TD*%
D16*
%TO.C,D3*%
X84175600Y-106705400D03*
D17*
X74015600Y-106705400D03*
%TD*%
D40*
%TO.C,C1*%
X61116300Y-116865400D03*
X63191300Y-116865400D03*
%TD*%
D22*
%TO.C,J11*%
X78943200Y-121716800D03*
%TD*%
%TO.C,J7*%
X62941200Y-111506000D03*
%TD*%
M02*
