%TF.GenerationSoftware,KiCad,Pcbnew,(6.0.1)*%
%TF.CreationDate,2022-03-30T23:18:15-05:00*%
%TF.ProjectId,system_voltages,73797374-656d-45f7-966f-6c7461676573,rev?*%
%TF.SameCoordinates,Original*%
%TF.FileFunction,Paste,Top*%
%TF.FilePolarity,Positive*%
%FSLAX46Y46*%
G04 Gerber Fmt 4.6, Leading zero omitted, Abs format (unit mm)*
G04 Created by KiCad (PCBNEW (6.0.1)) date 2022-03-30 23:18:15*
%MOMM*%
%LPD*%
G01*
G04 APERTURE LIST*
G04 Aperture macros list*
%AMRoundRect*
0 Rectangle with rounded corners*
0 $1 Rounding radius*
0 $2 $3 $4 $5 $6 $7 $8 $9 X,Y pos of 4 corners*
0 Add a 4 corners polygon primitive as box body*
4,1,4,$2,$3,$4,$5,$6,$7,$8,$9,$2,$3,0*
0 Add four circle primitives for the rounded corners*
1,1,$1+$1,$2,$3*
1,1,$1+$1,$4,$5*
1,1,$1+$1,$6,$7*
1,1,$1+$1,$8,$9*
0 Add four rect primitives between the rounded corners*
20,1,$1+$1,$2,$3,$4,$5,0*
20,1,$1+$1,$4,$5,$6,$7,0*
20,1,$1+$1,$6,$7,$8,$9,0*
20,1,$1+$1,$8,$9,$2,$3,0*%
G04 Aperture macros list end*
%ADD10RoundRect,0.250000X-0.650000X0.412500X-0.650000X-0.412500X0.650000X-0.412500X0.650000X0.412500X0*%
%ADD11RoundRect,0.249999X-0.450001X-1.425001X0.450001X-1.425001X0.450001X1.425001X-0.450001X1.425001X0*%
%ADD12RoundRect,0.250000X-0.475000X0.337500X-0.475000X-0.337500X0.475000X-0.337500X0.475000X0.337500X0*%
%ADD13RoundRect,0.250000X-0.412500X-1.100000X0.412500X-1.100000X0.412500X1.100000X-0.412500X1.100000X0*%
%ADD14RoundRect,0.150000X0.825000X0.150000X-0.825000X0.150000X-0.825000X-0.150000X0.825000X-0.150000X0*%
%ADD15RoundRect,0.249999X1.075001X-0.450001X1.075001X0.450001X-1.075001X0.450001X-1.075001X-0.450001X0*%
%ADD16RoundRect,0.150000X0.150000X-0.825000X0.150000X0.825000X-0.150000X0.825000X-0.150000X-0.825000X0*%
%ADD17RoundRect,0.150000X-0.825000X-0.150000X0.825000X-0.150000X0.825000X0.150000X-0.825000X0.150000X0*%
%ADD18RoundRect,0.250000X-0.450000X0.350000X-0.450000X-0.350000X0.450000X-0.350000X0.450000X0.350000X0*%
%ADD19RoundRect,0.250000X-0.337500X-0.475000X0.337500X-0.475000X0.337500X0.475000X-0.337500X0.475000X0*%
%ADD20RoundRect,0.249999X-1.425001X0.450001X-1.425001X-0.450001X1.425001X-0.450001X1.425001X0.450001X0*%
%ADD21R,1.400000X0.450000*%
%ADD22R,1.650000X1.510000*%
G04 APERTURE END LIST*
D10*
%TO.C,C9*%
X136321800Y-103441100D03*
X136321800Y-106566100D03*
%TD*%
D11*
%TO.C,R9*%
X140917200Y-123266200D03*
X147017200Y-123266200D03*
%TD*%
D12*
%TO.C,C4*%
X66395600Y-114557900D03*
X66395600Y-116632900D03*
%TD*%
D13*
%TO.C,C2*%
X80631900Y-142544800D03*
X83756900Y-142544800D03*
%TD*%
D14*
%TO.C,U4*%
X146645400Y-117373400D03*
X146645400Y-116103400D03*
X146645400Y-114833400D03*
X146645400Y-113563400D03*
X141695400Y-113563400D03*
X141695400Y-114833400D03*
X141695400Y-116103400D03*
X141695400Y-117373400D03*
%TD*%
D10*
%TO.C,C6*%
X95326200Y-114801906D03*
X95326200Y-117926906D03*
%TD*%
D15*
%TO.C,R4*%
X68630800Y-111518400D03*
X68630800Y-106718400D03*
%TD*%
D16*
%TO.C,U1*%
X103759000Y-100315800D03*
X105029000Y-100315800D03*
X106299000Y-100315800D03*
X107569000Y-100315800D03*
X107569000Y-95365800D03*
X106299000Y-95365800D03*
X105029000Y-95365800D03*
X103759000Y-95365800D03*
%TD*%
D17*
%TO.C,U3*%
X73878000Y-114681000D03*
X73878000Y-115951000D03*
X73878000Y-117221000D03*
X73878000Y-118491000D03*
X78828000Y-118491000D03*
X78828000Y-117221000D03*
X78828000Y-115951000D03*
X78828000Y-114681000D03*
%TD*%
D18*
%TO.C,R5*%
X83211000Y-118507000D03*
X83211000Y-120507000D03*
%TD*%
%TO.C,R7*%
X83465000Y-113681000D03*
X83465000Y-115681000D03*
%TD*%
D19*
%TO.C,C3*%
X76711900Y-128244600D03*
X78786900Y-128244600D03*
%TD*%
D20*
%TO.C,R3*%
X98907600Y-94917800D03*
X98907600Y-101017800D03*
%TD*%
D21*
%TO.C,IC1*%
X140573400Y-103825400D03*
X140573400Y-104475400D03*
X140573400Y-105125400D03*
X140573400Y-105775400D03*
X144973400Y-105775400D03*
X144973400Y-105125400D03*
X144973400Y-104475400D03*
X144973400Y-103825400D03*
D22*
X142773400Y-104800400D03*
%TD*%
D19*
%TO.C,C1*%
X61116300Y-116865400D03*
X63191300Y-116865400D03*
%TD*%
M02*
