%TF.GenerationSoftware,KiCad,Pcbnew,(6.0.1)*%
%TF.CreationDate,2022-03-30T23:18:15-05:00*%
%TF.ProjectId,system_voltages,73797374-656d-45f7-966f-6c7461676573,rev?*%
%TF.SameCoordinates,Original*%
%TF.FileFunction,Soldermask,Bot*%
%TF.FilePolarity,Negative*%
%FSLAX46Y46*%
G04 Gerber Fmt 4.6, Leading zero omitted, Abs format (unit mm)*
G04 Created by KiCad (PCBNEW (6.0.1)) date 2022-03-30 23:18:15*
%MOMM*%
%LPD*%
G01*
G04 APERTURE LIST*
G04 Aperture macros list*
%AMRoundRect*
0 Rectangle with rounded corners*
0 $1 Rounding radius*
0 $2 $3 $4 $5 $6 $7 $8 $9 X,Y pos of 4 corners*
0 Add a 4 corners polygon primitive as box body*
4,1,4,$2,$3,$4,$5,$6,$7,$8,$9,$2,$3,0*
0 Add four circle primitives for the rounded corners*
1,1,$1+$1,$2,$3*
1,1,$1+$1,$4,$5*
1,1,$1+$1,$6,$7*
1,1,$1+$1,$8,$9*
0 Add four rect primitives between the rounded corners*
20,1,$1+$1,$2,$3,$4,$5,0*
20,1,$1+$1,$4,$5,$6,$7,0*
20,1,$1+$1,$6,$7,$8,$9,0*
20,1,$1+$1,$8,$9,$2,$3,0*%
G04 Aperture macros list end*
%ADD10C,1.600000*%
%ADD11O,1.600000X1.600000*%
%ADD12C,1.879600*%
%ADD13R,2.200000X2.200000*%
%ADD14O,2.200000X2.200000*%
%ADD15C,10.160000*%
%ADD16C,3.000000*%
%ADD17RoundRect,0.250000X0.750000X1.550000X-0.750000X1.550000X-0.750000X-1.550000X0.750000X-1.550000X0*%
%ADD18O,2.000000X3.600000*%
%ADD19C,2.000000*%
%ADD20C,2.400000*%
%ADD21O,2.400000X2.400000*%
%ADD22C,3.200000*%
%ADD23R,1.600000X1.600000*%
%ADD24R,2.000000X2.000000*%
%ADD25R,1.700000X1.700000*%
%ADD26O,1.700000X1.700000*%
%ADD27R,2.000000X1.905000*%
%ADD28O,2.000000X1.905000*%
%ADD29R,1.905000X2.000000*%
%ADD30O,1.905000X2.000000*%
G04 APERTURE END LIST*
D10*
%TO.C,R10*%
X136855200Y-95402400D03*
D11*
X126695200Y-95402400D03*
%TD*%
D12*
%TO.C,U5*%
X150883899Y-128986200D03*
X150883899Y-131526200D03*
X150883899Y-134066200D03*
%TD*%
D13*
%TO.C,D2*%
X73152000Y-132461000D03*
D14*
X73152000Y-142621000D03*
%TD*%
D15*
%TO.C,J1*%
X63804800Y-95199200D03*
%TD*%
D16*
%TO.C,L1*%
X112873200Y-118287800D03*
X131373200Y-118287800D03*
%TD*%
D17*
%TO.C,J3*%
X106930200Y-146495900D03*
D18*
X101930200Y-146495900D03*
X96930200Y-146495900D03*
%TD*%
D19*
%TO.C,J6*%
X141681200Y-110667800D03*
%TD*%
D20*
%TO.C,R2*%
X81102200Y-134442200D03*
D21*
X101422200Y-134442200D03*
%TD*%
D22*
%TO.C,H4*%
X149199600Y-82981800D03*
%TD*%
D19*
%TO.C,J12*%
X89255600Y-115265200D03*
%TD*%
D22*
%TO.C,H2*%
X58648600Y-83261200D03*
%TD*%
D23*
%TO.C,C8*%
X141285149Y-95453200D03*
D10*
X146285149Y-95453200D03*
%TD*%
D24*
%TO.C,C5*%
X89560400Y-100919677D03*
D19*
X89560400Y-95919677D03*
%TD*%
%TO.C,J14*%
X69138800Y-121666000D03*
%TD*%
D15*
%TO.C,J2*%
X77165200Y-95250000D03*
%TD*%
D25*
%TO.C,J4*%
X150977600Y-109743400D03*
D26*
X150977600Y-107203400D03*
X150977600Y-104663400D03*
X150977600Y-102123400D03*
%TD*%
D20*
%TO.C,R1*%
X87299800Y-148767800D03*
D21*
X61899800Y-148767800D03*
%TD*%
D22*
%TO.C,H3*%
X149098000Y-155067000D03*
%TD*%
D27*
%TO.C,U2*%
X63022600Y-140208000D03*
D28*
X63022600Y-137668000D03*
X63022600Y-135128000D03*
%TD*%
D19*
%TO.C,J10*%
X136271000Y-118237000D03*
%TD*%
D24*
%TO.C,C7*%
X140665200Y-128543923D03*
D19*
X140665200Y-133543923D03*
%TD*%
%TO.C,J8*%
X104622600Y-90652600D03*
%TD*%
D29*
%TO.C,Q2*%
X123367800Y-148310600D03*
D30*
X120827800Y-148310600D03*
X118287800Y-148310600D03*
%TD*%
D19*
%TO.C,J5*%
X109778800Y-90652600D03*
%TD*%
%TO.C,J16*%
X146964400Y-110947200D03*
%TD*%
D29*
%TO.C,Q1*%
X117068600Y-90759400D03*
D30*
X119608600Y-90759400D03*
X122148600Y-90759400D03*
%TD*%
D22*
%TO.C,H1*%
X58293000Y-156083000D03*
%TD*%
D19*
%TO.C,J15*%
X73990200Y-121666000D03*
%TD*%
%TO.C,J13*%
X151765000Y-121285000D03*
%TD*%
D13*
%TO.C,D1*%
X61188600Y-128270000D03*
D14*
X71348600Y-128270000D03*
%TD*%
D13*
%TO.C,D3*%
X84175600Y-106705400D03*
D14*
X74015600Y-106705400D03*
%TD*%
D19*
%TO.C,J11*%
X78943200Y-121716800D03*
%TD*%
%TO.C,J7*%
X62941200Y-111506000D03*
%TD*%
M02*
