%TF.GenerationSoftware,KiCad,Pcbnew,(6.0.1)*%
%TF.CreationDate,2022-03-30T23:18:15-05:00*%
%TF.ProjectId,system_voltages,73797374-656d-45f7-966f-6c7461676573,rev?*%
%TF.SameCoordinates,Original*%
%TF.FileFunction,Copper,L2,Bot*%
%TF.FilePolarity,Positive*%
%FSLAX46Y46*%
G04 Gerber Fmt 4.6, Leading zero omitted, Abs format (unit mm)*
G04 Created by KiCad (PCBNEW (6.0.1)) date 2022-03-30 23:18:15*
%MOMM*%
%LPD*%
G01*
G04 APERTURE LIST*
G04 Aperture macros list*
%AMRoundRect*
0 Rectangle with rounded corners*
0 $1 Rounding radius*
0 $2 $3 $4 $5 $6 $7 $8 $9 X,Y pos of 4 corners*
0 Add a 4 corners polygon primitive as box body*
4,1,4,$2,$3,$4,$5,$6,$7,$8,$9,$2,$3,0*
0 Add four circle primitives for the rounded corners*
1,1,$1+$1,$2,$3*
1,1,$1+$1,$4,$5*
1,1,$1+$1,$6,$7*
1,1,$1+$1,$8,$9*
0 Add four rect primitives between the rounded corners*
20,1,$1+$1,$2,$3,$4,$5,0*
20,1,$1+$1,$4,$5,$6,$7,0*
20,1,$1+$1,$6,$7,$8,$9,0*
20,1,$1+$1,$8,$9,$2,$3,0*%
G04 Aperture macros list end*
%TA.AperFunction,ComponentPad*%
%ADD10C,1.600000*%
%TD*%
%TA.AperFunction,ComponentPad*%
%ADD11O,1.600000X1.600000*%
%TD*%
%TA.AperFunction,ComponentPad*%
%ADD12C,1.879600*%
%TD*%
%TA.AperFunction,ComponentPad*%
%ADD13R,2.200000X2.200000*%
%TD*%
%TA.AperFunction,ComponentPad*%
%ADD14O,2.200000X2.200000*%
%TD*%
%TA.AperFunction,ComponentPad*%
%ADD15C,10.160000*%
%TD*%
%TA.AperFunction,ComponentPad*%
%ADD16C,3.000000*%
%TD*%
%TA.AperFunction,ComponentPad*%
%ADD17RoundRect,0.250000X0.750000X1.550000X-0.750000X1.550000X-0.750000X-1.550000X0.750000X-1.550000X0*%
%TD*%
%TA.AperFunction,ComponentPad*%
%ADD18O,2.000000X3.600000*%
%TD*%
%TA.AperFunction,ComponentPad*%
%ADD19C,2.000000*%
%TD*%
%TA.AperFunction,ComponentPad*%
%ADD20C,2.400000*%
%TD*%
%TA.AperFunction,ComponentPad*%
%ADD21O,2.400000X2.400000*%
%TD*%
%TA.AperFunction,ComponentPad*%
%ADD22R,1.600000X1.600000*%
%TD*%
%TA.AperFunction,ComponentPad*%
%ADD23R,2.000000X2.000000*%
%TD*%
%TA.AperFunction,ComponentPad*%
%ADD24R,1.700000X1.700000*%
%TD*%
%TA.AperFunction,ComponentPad*%
%ADD25O,1.700000X1.700000*%
%TD*%
%TA.AperFunction,ComponentPad*%
%ADD26R,2.000000X1.905000*%
%TD*%
%TA.AperFunction,ComponentPad*%
%ADD27O,2.000000X1.905000*%
%TD*%
%TA.AperFunction,ComponentPad*%
%ADD28R,1.905000X2.000000*%
%TD*%
%TA.AperFunction,ComponentPad*%
%ADD29O,1.905000X2.000000*%
%TD*%
%TA.AperFunction,ViaPad*%
%ADD30C,0.800000*%
%TD*%
%TA.AperFunction,Conductor*%
%ADD31C,1.016000*%
%TD*%
%TA.AperFunction,Conductor*%
%ADD32C,1.778000*%
%TD*%
G04 APERTURE END LIST*
D10*
%TO.P,R10,1*%
%TO.N,Net-(IC1-Pad2)*%
X136855200Y-95402400D03*
D11*
%TO.P,R10,2*%
%TO.N,GND*%
X126695200Y-95402400D03*
%TD*%
D12*
%TO.P,U5,1,VCC*%
%TO.N,Net-(R9-Pad2)*%
X150883899Y-128986200D03*
%TO.P,U5,2,N-C-/GND*%
%TO.N,unconnected-(U5-Pad2)*%
X150883899Y-131526200D03*
%TO.P,U5,3,OUT*%
%TO.N,/Batt_out*%
X150883899Y-134066200D03*
%TD*%
D13*
%TO.P,D2,1,K*%
%TO.N,Net-(C3-Pad1)*%
X73152000Y-132461000D03*
D14*
%TO.P,D2,2,A*%
%TO.N,Net-(C2-Pad1)*%
X73152000Y-142621000D03*
%TD*%
D15*
%TO.P,J1,1,Pin_1*%
%TO.N,/PV_input*%
X63804800Y-95199200D03*
%TD*%
D16*
%TO.P,L1,1,1*%
%TO.N,Net-(L1-Pad1)*%
X112873200Y-118287800D03*
%TO.P,L1,2,2*%
%TO.N,/E_storage*%
X131373200Y-118287800D03*
%TD*%
D17*
%TO.P,J3,1,Pin_1*%
%TO.N,Net-(C3-Pad1)*%
X106930200Y-146495900D03*
D18*
%TO.P,J3,2,Pin_2*%
%TO.N,GND*%
X101930200Y-146495900D03*
%TO.P,J3,3*%
%TO.N,N/C*%
X96930200Y-146495900D03*
%TD*%
D19*
%TO.P,J6,1,Pin_1*%
%TO.N,Net-(J6-Pad1)*%
X141681200Y-110667800D03*
%TD*%
D20*
%TO.P,R2,1*%
%TO.N,Net-(C2-Pad1)*%
X81102200Y-134442200D03*
D21*
%TO.P,R2,2*%
%TO.N,GND*%
X101422200Y-134442200D03*
%TD*%
D19*
%TO.P,J12,1,Pin_1*%
%TO.N,/GATE_DRIVER*%
X89255600Y-115265200D03*
%TD*%
D22*
%TO.P,C8,1*%
%TO.N,GND*%
X141285149Y-95453200D03*
D10*
%TO.P,C8,2*%
%TO.N,Net-(C8-Pad2)*%
X146285149Y-95453200D03*
%TD*%
D23*
%TO.P,C5,1*%
%TO.N,Net-(C5-Pad1)*%
X89560400Y-100919677D03*
D19*
%TO.P,C5,2*%
%TO.N,GND*%
X89560400Y-95919677D03*
%TD*%
%TO.P,J14,1,Pin_1*%
%TO.N,/PWM_1*%
X69138800Y-121666000D03*
%TD*%
D15*
%TO.P,J2,1,Pin_1*%
%TO.N,GND*%
X77165200Y-95250000D03*
%TD*%
D24*
%TO.P,J4,1,Pin_1*%
%TO.N,GND*%
X150977600Y-109743400D03*
D25*
%TO.P,J4,2,Pin_2*%
%TO.N,Net-(IC1-Pad6)*%
X150977600Y-107203400D03*
%TO.P,J4,3,Pin_3*%
%TO.N,Net-(IC1-Pad7)*%
X150977600Y-104663400D03*
%TO.P,J4,4,Pin_4*%
%TO.N,Net-(C8-Pad2)*%
X150977600Y-102123400D03*
%TD*%
D20*
%TO.P,R1,1*%
%TO.N,Net-(C3-Pad1)*%
X87299800Y-148767800D03*
D21*
%TO.P,R1,2*%
%TO.N,Net-(C2-Pad1)*%
X61899800Y-148767800D03*
%TD*%
D26*
%TO.P,U2,1,ADJ*%
%TO.N,Net-(C2-Pad1)*%
X63022600Y-140208000D03*
D27*
%TO.P,U2,2,VO*%
%TO.N,Net-(C3-Pad1)*%
X63022600Y-137668000D03*
%TO.P,U2,3,VI*%
%TO.N,/PV_input*%
X63022600Y-135128000D03*
%TD*%
D19*
%TO.P,J10,1,Pin_1*%
%TO.N,/E_storage*%
X136271000Y-118237000D03*
%TD*%
D23*
%TO.P,C7,1*%
%TO.N,/E_storage*%
X140665200Y-128543923D03*
D19*
%TO.P,C7,2*%
%TO.N,GND*%
X140665200Y-133543923D03*
%TD*%
%TO.P,J8,1,Pin_1*%
%TO.N,/MCU_5V*%
X104622600Y-90652600D03*
%TD*%
D28*
%TO.P,Q2,1,G*%
%TO.N,/GATE_DRIVER2*%
X123367800Y-148310600D03*
D29*
%TO.P,Q2,2,D*%
%TO.N,Net-(L1-Pad1)*%
X120827800Y-148310600D03*
%TO.P,Q2,3,S*%
%TO.N,GND*%
X118287800Y-148310600D03*
%TD*%
D19*
%TO.P,J5,1,Pin_1*%
%TO.N,Net-(J5-Pad1)*%
X109778800Y-90652600D03*
%TD*%
%TO.P,J16,1,Pin_1*%
%TO.N,/MCU_5V_2*%
X146964400Y-110947200D03*
%TD*%
D28*
%TO.P,Q1,1,G*%
%TO.N,/GATE_DRIVER*%
X117068600Y-90759400D03*
D29*
%TO.P,Q1,2,D*%
%TO.N,Net-(C5-Pad1)*%
X119608600Y-90759400D03*
%TO.P,Q1,3,S*%
%TO.N,Net-(L1-Pad1)*%
X122148600Y-90759400D03*
%TD*%
D19*
%TO.P,J15,1,Pin_1*%
%TO.N,/PWM_2*%
X73990200Y-121666000D03*
%TD*%
%TO.P,J13,1,Pin_1*%
%TO.N,/Batt_out*%
X151765000Y-121285000D03*
%TD*%
D13*
%TO.P,D1,1,K*%
%TO.N,/PV_input*%
X61188600Y-128270000D03*
D14*
%TO.P,D1,2,A*%
%TO.N,Net-(C3-Pad1)*%
X71348600Y-128270000D03*
%TD*%
D13*
%TO.P,D3,1,K*%
%TO.N,Net-(C6-Pad1)*%
X84175600Y-106705400D03*
D14*
%TO.P,D3,2,A*%
%TO.N,Net-(R4-Pad2)*%
X74015600Y-106705400D03*
%TD*%
D19*
%TO.P,J11,1,Pin_1*%
%TO.N,/GATE_DRIVER2*%
X78943200Y-121716800D03*
%TD*%
%TO.P,J7,1,Pin_1*%
%TO.N,Net-(C4-Pad1)*%
X62941200Y-111506000D03*
%TD*%
D30*
%TO.N,GND*%
X102971600Y-137693400D03*
X111607600Y-137795000D03*
X81407000Y-100965000D03*
X85217000Y-111887000D03*
%TO.N,Net-(C5-Pad1)*%
X115316000Y-96393000D03*
X102743000Y-105918000D03*
%TO.N,/GATE_DRIVER*%
X92612080Y-112141000D03*
X97663000Y-112217200D03*
%TD*%
D31*
%TO.N,GND*%
X111607600Y-137795000D02*
X103073200Y-137795000D01*
X103073200Y-137795000D02*
X102971600Y-137693400D01*
X85217000Y-111887000D02*
X81407000Y-108077000D01*
X81407000Y-108077000D02*
X81407000Y-100965000D01*
D32*
%TO.N,Net-(C5-Pad1)*%
X113157000Y-98552000D02*
X115316000Y-96393000D01*
X113157000Y-102235000D02*
X113157000Y-98552000D01*
X102743000Y-105918000D02*
X109474000Y-105918000D01*
X109474000Y-105918000D02*
X113157000Y-102235000D01*
D31*
%TO.N,/GATE_DRIVER*%
X92612080Y-112141000D02*
X97586800Y-112141000D01*
X97586800Y-112141000D02*
X97663000Y-112217200D01*
%TD*%
%TA.AperFunction,NonConductor*%
G36*
X56587420Y-83840002D02*
G01*
X56633913Y-83893658D01*
X56640833Y-83912752D01*
X56652729Y-83956236D01*
X56654413Y-83960184D01*
X56757734Y-84202414D01*
X56765523Y-84220676D01*
X56777293Y-84240342D01*
X56887941Y-84425221D01*
X56913161Y-84467361D01*
X57092913Y-84691728D01*
X57301451Y-84889623D01*
X57534917Y-85057386D01*
X57538712Y-85059395D01*
X57538713Y-85059396D01*
X57560469Y-85070915D01*
X57788992Y-85191912D01*
X58058973Y-85290711D01*
X58339864Y-85351955D01*
X58368441Y-85354204D01*
X58562882Y-85369507D01*
X58562891Y-85369507D01*
X58565339Y-85369700D01*
X58720871Y-85369700D01*
X58723007Y-85369554D01*
X58723018Y-85369554D01*
X58931148Y-85355365D01*
X58931154Y-85355364D01*
X58935425Y-85355073D01*
X58939620Y-85354204D01*
X58939622Y-85354204D01*
X59076184Y-85325923D01*
X59216942Y-85296774D01*
X59487943Y-85200807D01*
X59729821Y-85075965D01*
X59739605Y-85070915D01*
X59739606Y-85070915D01*
X59743412Y-85068950D01*
X59746913Y-85066489D01*
X59746917Y-85066487D01*
X59951308Y-84922838D01*
X59978623Y-84903641D01*
X60189222Y-84707940D01*
X60371313Y-84485468D01*
X60521527Y-84240342D01*
X60637083Y-83977098D01*
X60648413Y-83937323D01*
X60655775Y-83911480D01*
X60693674Y-83851446D01*
X60758015Y-83821432D01*
X60776954Y-83820000D01*
X147181555Y-83820000D01*
X147249676Y-83840002D01*
X147297452Y-83896565D01*
X147316523Y-83941276D01*
X147464161Y-84187961D01*
X147643913Y-84412328D01*
X147852451Y-84610223D01*
X148085917Y-84777986D01*
X148089712Y-84779995D01*
X148089713Y-84779996D01*
X148111469Y-84791515D01*
X148339992Y-84912512D01*
X148609973Y-85011311D01*
X148890864Y-85072555D01*
X148919441Y-85074804D01*
X149113882Y-85090107D01*
X149113891Y-85090107D01*
X149116339Y-85090300D01*
X149271871Y-85090300D01*
X149274007Y-85090154D01*
X149274018Y-85090154D01*
X149482148Y-85075965D01*
X149482154Y-85075964D01*
X149486425Y-85075673D01*
X149490620Y-85074804D01*
X149490622Y-85074804D01*
X149627183Y-85046524D01*
X149767942Y-85017374D01*
X150038943Y-84921407D01*
X150294412Y-84789550D01*
X150297913Y-84787089D01*
X150297917Y-84787087D01*
X150415254Y-84704621D01*
X150529623Y-84624241D01*
X150678960Y-84485468D01*
X150737079Y-84431461D01*
X150737081Y-84431458D01*
X150740222Y-84428540D01*
X150922313Y-84206068D01*
X150953700Y-84154849D01*
X151070291Y-83964592D01*
X151070295Y-83964584D01*
X151072527Y-83960942D01*
X151079086Y-83946000D01*
X151101319Y-83895354D01*
X151147015Y-83841018D01*
X151216692Y-83820000D01*
X154814000Y-83820000D01*
X154882121Y-83840002D01*
X154928614Y-83893658D01*
X154940000Y-83946000D01*
X154940000Y-154814000D01*
X154919998Y-154882121D01*
X154866342Y-154928614D01*
X154814000Y-154940000D01*
X151318507Y-154940000D01*
X151250386Y-154919998D01*
X151203893Y-154866342D01*
X151193585Y-154830446D01*
X151170292Y-154653522D01*
X151169732Y-154649266D01*
X151093871Y-154371964D01*
X151051781Y-154273285D01*
X150982763Y-154111476D01*
X150982761Y-154111472D01*
X150981077Y-154107524D01*
X150833439Y-153860839D01*
X150653687Y-153636472D01*
X150445149Y-153438577D01*
X150211683Y-153270814D01*
X150189843Y-153259250D01*
X150166654Y-153246972D01*
X149957608Y-153136288D01*
X149687627Y-153037489D01*
X149406736Y-152976245D01*
X149375685Y-152973801D01*
X149183718Y-152958693D01*
X149183709Y-152958693D01*
X149181261Y-152958500D01*
X149025729Y-152958500D01*
X149023593Y-152958646D01*
X149023582Y-152958646D01*
X148815452Y-152972835D01*
X148815446Y-152972836D01*
X148811175Y-152973127D01*
X148806980Y-152973996D01*
X148806978Y-152973996D01*
X148670416Y-153002277D01*
X148529658Y-153031426D01*
X148258657Y-153127393D01*
X148003188Y-153259250D01*
X147999687Y-153261711D01*
X147999683Y-153261713D01*
X147989594Y-153268804D01*
X147767977Y-153424559D01*
X147557378Y-153620260D01*
X147375287Y-153842732D01*
X147225073Y-154087858D01*
X147223347Y-154091791D01*
X147223346Y-154091792D01*
X147138620Y-154284804D01*
X147109517Y-154351102D01*
X147030756Y-154627594D01*
X147027066Y-154653522D01*
X147001700Y-154831753D01*
X146972299Y-154896376D01*
X146912628Y-154934845D01*
X146876957Y-154940000D01*
X60137672Y-154940000D01*
X60069551Y-154919998D01*
X60034069Y-154883360D01*
X60033089Y-154884041D01*
X60030644Y-154880523D01*
X60028439Y-154876839D01*
X59848687Y-154652472D01*
X59640149Y-154454577D01*
X59406683Y-154286814D01*
X59384843Y-154275250D01*
X59361654Y-154262972D01*
X59152608Y-154152288D01*
X58976545Y-154087858D01*
X58886658Y-154054964D01*
X58886656Y-154054963D01*
X58882627Y-154053489D01*
X58601736Y-153992245D01*
X58570685Y-153989801D01*
X58378718Y-153974693D01*
X58378709Y-153974693D01*
X58376261Y-153974500D01*
X58220729Y-153974500D01*
X58218593Y-153974646D01*
X58218582Y-153974646D01*
X58010452Y-153988835D01*
X58010446Y-153988836D01*
X58006175Y-153989127D01*
X58001980Y-153989996D01*
X58001978Y-153989996D01*
X57865416Y-154018277D01*
X57724658Y-154047426D01*
X57453657Y-154143393D01*
X57198188Y-154275250D01*
X57194687Y-154277711D01*
X57194683Y-154277713D01*
X57184594Y-154284804D01*
X56962977Y-154440559D01*
X56947892Y-154454577D01*
X56761704Y-154627594D01*
X56752378Y-154636260D01*
X56570287Y-154858732D01*
X56568048Y-154862386D01*
X56557355Y-154879835D01*
X56504707Y-154927466D01*
X56449922Y-154940000D01*
X53466000Y-154940000D01*
X53397879Y-154919998D01*
X53351386Y-154866342D01*
X53340000Y-154814000D01*
X53340000Y-148722951D01*
X60187096Y-148722951D01*
X60187320Y-148727617D01*
X60187320Y-148727622D01*
X60192264Y-148830544D01*
X60199280Y-148976598D01*
X60248821Y-149225657D01*
X60250400Y-149230055D01*
X60250402Y-149230062D01*
X60322284Y-149430270D01*
X60334631Y-149464658D01*
X60336848Y-149468784D01*
X60449931Y-149679242D01*
X60454825Y-149688351D01*
X60457620Y-149692094D01*
X60457622Y-149692097D01*
X60603971Y-149888082D01*
X60603976Y-149888088D01*
X60606763Y-149891820D01*
X60610072Y-149895100D01*
X60610077Y-149895106D01*
X60708659Y-149992831D01*
X60787107Y-150070597D01*
X60790869Y-150073355D01*
X60790872Y-150073358D01*
X60896564Y-150150854D01*
X60991894Y-150220753D01*
X60996029Y-150222929D01*
X60996033Y-150222931D01*
X61114089Y-150285043D01*
X61216627Y-150338991D01*
X61456368Y-150422712D01*
X61705850Y-150470078D01*
X61826332Y-150474811D01*
X61954925Y-150479864D01*
X61954930Y-150479864D01*
X61959593Y-150480047D01*
X62058574Y-150469207D01*
X62207369Y-150452912D01*
X62207375Y-150452911D01*
X62212022Y-150452402D01*
X62321480Y-150423584D01*
X62453073Y-150388938D01*
X62457593Y-150387748D01*
X62576153Y-150336811D01*
X62686607Y-150289357D01*
X62686610Y-150289355D01*
X62690910Y-150287508D01*
X62694890Y-150285045D01*
X62694894Y-150285043D01*
X62902864Y-150156347D01*
X62902866Y-150156345D01*
X62906847Y-150153882D01*
X63005228Y-150070597D01*
X63097089Y-149992831D01*
X63097091Y-149992829D01*
X63100662Y-149989806D01*
X63268095Y-149798884D01*
X63278577Y-149782589D01*
X63402941Y-149589242D01*
X63405469Y-149585312D01*
X63509767Y-149353780D01*
X63578696Y-149109375D01*
X63610743Y-148857467D01*
X63613091Y-148767800D01*
X63609758Y-148722951D01*
X85587096Y-148722951D01*
X85587320Y-148727617D01*
X85587320Y-148727622D01*
X85592264Y-148830544D01*
X85599280Y-148976598D01*
X85648821Y-149225657D01*
X85650400Y-149230055D01*
X85650402Y-149230062D01*
X85722284Y-149430270D01*
X85734631Y-149464658D01*
X85736848Y-149468784D01*
X85849931Y-149679242D01*
X85854825Y-149688351D01*
X85857620Y-149692094D01*
X85857622Y-149692097D01*
X86003971Y-149888082D01*
X86003976Y-149888088D01*
X86006763Y-149891820D01*
X86010072Y-149895100D01*
X86010077Y-149895106D01*
X86108659Y-149992831D01*
X86187107Y-150070597D01*
X86190869Y-150073355D01*
X86190872Y-150073358D01*
X86296564Y-150150854D01*
X86391894Y-150220753D01*
X86396029Y-150222929D01*
X86396033Y-150222931D01*
X86514089Y-150285043D01*
X86616627Y-150338991D01*
X86856368Y-150422712D01*
X87105850Y-150470078D01*
X87226332Y-150474811D01*
X87354925Y-150479864D01*
X87354930Y-150479864D01*
X87359593Y-150480047D01*
X87458574Y-150469207D01*
X87607369Y-150452912D01*
X87607375Y-150452911D01*
X87612022Y-150452402D01*
X87721480Y-150423584D01*
X87853073Y-150388938D01*
X87857593Y-150387748D01*
X87976153Y-150336811D01*
X88086607Y-150289357D01*
X88086610Y-150289355D01*
X88090910Y-150287508D01*
X88094890Y-150285045D01*
X88094894Y-150285043D01*
X88302864Y-150156347D01*
X88302866Y-150156345D01*
X88306847Y-150153882D01*
X88405228Y-150070597D01*
X88497089Y-149992831D01*
X88497091Y-149992829D01*
X88500662Y-149989806D01*
X88668095Y-149798884D01*
X88678577Y-149782589D01*
X88802941Y-149589242D01*
X88805469Y-149585312D01*
X88909767Y-149353780D01*
X88978696Y-149109375D01*
X89010743Y-148857467D01*
X89013091Y-148767800D01*
X89003919Y-148644378D01*
X88994618Y-148519211D01*
X88994617Y-148519203D01*
X88994272Y-148514559D01*
X88986046Y-148478202D01*
X88939259Y-148271439D01*
X88938228Y-148266882D01*
X88914654Y-148206261D01*
X88847884Y-148034562D01*
X88847883Y-148034560D01*
X88846191Y-148030209D01*
X88825230Y-147993535D01*
X88722502Y-147813797D01*
X88722500Y-147813795D01*
X88720183Y-147809740D01*
X88562971Y-147610317D01*
X88378009Y-147436323D01*
X88333425Y-147405394D01*
X88263523Y-147356901D01*
X95421700Y-147356901D01*
X95421902Y-147359409D01*
X95421902Y-147359414D01*
X95428348Y-147439522D01*
X95436260Y-147537865D01*
X95437466Y-147542773D01*
X95437466Y-147542776D01*
X95453270Y-147607117D01*
X95494163Y-147773606D01*
X95589012Y-147997056D01*
X95609890Y-148030209D01*
X95713796Y-148195208D01*
X95718367Y-148202467D01*
X95733692Y-148219850D01*
X95875550Y-148380758D01*
X95875553Y-148380761D01*
X95878898Y-148384555D01*
X95882806Y-148387765D01*
X95882807Y-148387766D01*
X96042832Y-148519211D01*
X96066478Y-148538634D01*
X96070846Y-148541176D01*
X96249585Y-148645205D01*
X96276278Y-148660741D01*
X96281001Y-148662554D01*
X96498178Y-148745920D01*
X96498182Y-148745921D01*
X96502902Y-148747733D01*
X96507852Y-148748767D01*
X96507855Y-148748768D01*
X96735569Y-148796340D01*
X96735573Y-148796340D01*
X96740520Y-148797374D01*
X96983017Y-148808386D01*
X96988037Y-148807805D01*
X96988041Y-148807805D01*
X97219129Y-148781067D01*
X97219133Y-148781066D01*
X97224156Y-148780485D01*
X97229020Y-148779109D01*
X97229023Y-148779108D01*
X97452869Y-148715766D01*
X97452868Y-148715766D01*
X97457732Y-148714390D01*
X97462308Y-148712256D01*
X97462314Y-148712254D01*
X97673154Y-148613938D01*
X97673158Y-148613936D01*
X97677736Y-148611801D01*
X97691340Y-148602556D01*
X97804839Y-148525421D01*
X97878507Y-148475356D01*
X98054881Y-148308568D01*
X98083268Y-148271439D01*
X98199247Y-148119746D01*
X98199250Y-148119742D01*
X98202320Y-148115726D01*
X98210994Y-148099550D01*
X98314639Y-147906252D01*
X98317031Y-147901791D01*
X98396062Y-147672269D01*
X98437379Y-147433064D01*
X98437859Y-147422504D01*
X98438636Y-147405394D01*
X98438636Y-147405375D01*
X98438700Y-147403975D01*
X98438700Y-147356901D01*
X100421700Y-147356901D01*
X100421902Y-147359409D01*
X100421902Y-147359414D01*
X100428348Y-147439522D01*
X100436260Y-147537865D01*
X100437466Y-147542773D01*
X100437466Y-147542776D01*
X100453270Y-147607117D01*
X100494163Y-147773606D01*
X100589012Y-147997056D01*
X100609890Y-148030209D01*
X100713796Y-148195208D01*
X100718367Y-148202467D01*
X100733692Y-148219850D01*
X100875550Y-148380758D01*
X100875553Y-148380761D01*
X100878898Y-148384555D01*
X100882806Y-148387765D01*
X100882807Y-148387766D01*
X101042832Y-148519211D01*
X101066478Y-148538634D01*
X101070846Y-148541176D01*
X101249585Y-148645205D01*
X101276278Y-148660741D01*
X101281001Y-148662554D01*
X101498178Y-148745920D01*
X101498182Y-148745921D01*
X101502902Y-148747733D01*
X101507852Y-148748767D01*
X101507855Y-148748768D01*
X101735569Y-148796340D01*
X101735573Y-148796340D01*
X101740520Y-148797374D01*
X101983017Y-148808386D01*
X101988037Y-148807805D01*
X101988041Y-148807805D01*
X102219129Y-148781067D01*
X102219133Y-148781066D01*
X102224156Y-148780485D01*
X102229020Y-148779109D01*
X102229023Y-148779108D01*
X102452869Y-148715766D01*
X102452868Y-148715766D01*
X102457732Y-148714390D01*
X102462308Y-148712256D01*
X102462314Y-148712254D01*
X102673154Y-148613938D01*
X102673158Y-148613936D01*
X102677736Y-148611801D01*
X102691340Y-148602556D01*
X102804839Y-148525421D01*
X102878507Y-148475356D01*
X103054881Y-148308568D01*
X103083268Y-148271439D01*
X103199247Y-148119746D01*
X103199250Y-148119742D01*
X103202320Y-148115726D01*
X103210994Y-148099550D01*
X103212737Y-148096300D01*
X105421700Y-148096300D01*
X105422037Y-148099546D01*
X105422037Y-148099550D01*
X105431203Y-148187885D01*
X105432674Y-148202066D01*
X105488650Y-148369846D01*
X105581722Y-148520248D01*
X105586904Y-148525421D01*
X105648651Y-148587061D01*
X105706897Y-148645205D01*
X105713127Y-148649045D01*
X105713128Y-148649046D01*
X105850290Y-148733594D01*
X105857462Y-148738015D01*
X105937205Y-148764464D01*
X106018811Y-148791532D01*
X106018813Y-148791532D01*
X106025339Y-148793697D01*
X106032175Y-148794397D01*
X106032178Y-148794398D01*
X106061226Y-148797374D01*
X106129800Y-148804400D01*
X107730600Y-148804400D01*
X107733846Y-148804063D01*
X107733850Y-148804063D01*
X107829508Y-148794138D01*
X107829512Y-148794137D01*
X107836366Y-148793426D01*
X107842902Y-148791245D01*
X107842904Y-148791245D01*
X107978758Y-148745920D01*
X108004146Y-148737450D01*
X108154548Y-148644378D01*
X108279505Y-148519203D01*
X108285175Y-148510005D01*
X108341270Y-148419002D01*
X116826800Y-148419002D01*
X116827012Y-148421575D01*
X116827012Y-148421586D01*
X116831433Y-148475356D01*
X116841478Y-148597537D01*
X116900006Y-148830544D01*
X116995803Y-149050863D01*
X117036566Y-149113873D01*
X117120555Y-149243699D01*
X117126298Y-149252577D01*
X117287986Y-149430270D01*
X117341170Y-149472272D01*
X117472470Y-149575967D01*
X117472475Y-149575970D01*
X117476524Y-149579168D01*
X117481040Y-149581661D01*
X117481043Y-149581663D01*
X117682326Y-149692777D01*
X117682330Y-149692779D01*
X117686850Y-149695274D01*
X117691719Y-149696998D01*
X117691723Y-149697000D01*
X117908440Y-149773744D01*
X117908444Y-149773745D01*
X117913315Y-149775470D01*
X117918408Y-149776377D01*
X117918411Y-149776378D01*
X118144748Y-149816695D01*
X118144754Y-149816696D01*
X118149837Y-149817601D01*
X118237200Y-149818668D01*
X118384893Y-149820473D01*
X118384895Y-149820473D01*
X118390063Y-149820536D01*
X118627544Y-149784196D01*
X118739797Y-149747506D01*
X118850983Y-149711166D01*
X118850989Y-149711163D01*
X118855901Y-149709558D01*
X118860487Y-149707171D01*
X118860491Y-149707169D01*
X119064407Y-149601016D01*
X119069000Y-149598625D01*
X119148793Y-149538715D01*
X119256985Y-149457482D01*
X119256988Y-149457480D01*
X119261120Y-149454377D01*
X119427101Y-149280688D01*
X119452335Y-149243697D01*
X119507244Y-149198696D01*
X119577768Y-149190525D01*
X119641516Y-149221779D01*
X119662211Y-149246260D01*
X119666298Y-149252577D01*
X119827986Y-149430270D01*
X119881170Y-149472272D01*
X120012470Y-149575967D01*
X120012475Y-149575970D01*
X120016524Y-149579168D01*
X120021040Y-149581661D01*
X120021043Y-149581663D01*
X120222326Y-149692777D01*
X120222330Y-149692779D01*
X120226850Y-149695274D01*
X120231719Y-149696998D01*
X120231723Y-149697000D01*
X120448440Y-149773744D01*
X120448444Y-149773745D01*
X120453315Y-149775470D01*
X120458408Y-149776377D01*
X120458411Y-149776378D01*
X120684748Y-149816695D01*
X120684754Y-149816696D01*
X120689837Y-149817601D01*
X120777200Y-149818668D01*
X120924893Y-149820473D01*
X120924895Y-149820473D01*
X120930063Y-149820536D01*
X121167544Y-149784196D01*
X121279797Y-149747506D01*
X121390983Y-149711166D01*
X121390989Y-149711163D01*
X121395901Y-149709558D01*
X121400487Y-149707171D01*
X121400491Y-149707169D01*
X121604407Y-149601016D01*
X121609000Y-149598625D01*
X121764083Y-149482185D01*
X121830565Y-149457280D01*
X121899961Y-149472272D01*
X121950235Y-149522402D01*
X121957715Y-149538715D01*
X121961531Y-149548893D01*
X121964685Y-149557305D01*
X122052039Y-149673861D01*
X122168595Y-149761215D01*
X122304984Y-149812345D01*
X122367166Y-149819100D01*
X124368434Y-149819100D01*
X124430616Y-149812345D01*
X124567005Y-149761215D01*
X124683561Y-149673861D01*
X124770915Y-149557305D01*
X124822045Y-149420916D01*
X124828800Y-149358734D01*
X124828800Y-147262466D01*
X124822045Y-147200284D01*
X124770915Y-147063895D01*
X124683561Y-146947339D01*
X124567005Y-146859985D01*
X124430616Y-146808855D01*
X124368434Y-146802100D01*
X122367166Y-146802100D01*
X122304984Y-146808855D01*
X122168595Y-146859985D01*
X122052039Y-146947339D01*
X121964685Y-147063895D01*
X121957227Y-147083789D01*
X121914587Y-147140553D01*
X121848026Y-147165254D01*
X121778677Y-147150047D01*
X121761153Y-147138442D01*
X121643130Y-147045233D01*
X121643125Y-147045230D01*
X121639076Y-147042032D01*
X121634560Y-147039539D01*
X121634557Y-147039537D01*
X121433274Y-146928423D01*
X121433270Y-146928421D01*
X121428750Y-146925926D01*
X121423881Y-146924202D01*
X121423877Y-146924200D01*
X121207160Y-146847456D01*
X121207156Y-146847455D01*
X121202285Y-146845730D01*
X121197192Y-146844823D01*
X121197189Y-146844822D01*
X120970852Y-146804505D01*
X120970846Y-146804504D01*
X120965763Y-146803599D01*
X120873274Y-146802469D01*
X120730707Y-146800727D01*
X120730705Y-146800727D01*
X120725537Y-146800664D01*
X120488056Y-146837004D01*
X120375803Y-146873694D01*
X120264617Y-146910034D01*
X120264611Y-146910037D01*
X120259699Y-146911642D01*
X120255113Y-146914029D01*
X120255109Y-146914031D01*
X120051193Y-147020184D01*
X120046600Y-147022575D01*
X120042457Y-147025685D01*
X120042458Y-147025685D01*
X119939125Y-147103270D01*
X119854480Y-147166823D01*
X119688499Y-147340512D01*
X119663265Y-147377503D01*
X119608356Y-147422504D01*
X119537832Y-147430675D01*
X119474084Y-147399421D01*
X119453389Y-147374940D01*
X119452111Y-147372965D01*
X119449302Y-147368623D01*
X119287614Y-147190930D01*
X119174815Y-147101847D01*
X119103130Y-147045233D01*
X119103125Y-147045230D01*
X119099076Y-147042032D01*
X119094560Y-147039539D01*
X119094557Y-147039537D01*
X118893274Y-146928423D01*
X118893270Y-146928421D01*
X118888750Y-146925926D01*
X118883881Y-146924202D01*
X118883877Y-146924200D01*
X118667160Y-146847456D01*
X118667156Y-146847455D01*
X118662285Y-146845730D01*
X118657192Y-146844823D01*
X118657189Y-146844822D01*
X118430852Y-146804505D01*
X118430846Y-146804504D01*
X118425763Y-146803599D01*
X118333274Y-146802469D01*
X118190707Y-146800727D01*
X118190705Y-146800727D01*
X118185537Y-146800664D01*
X117948056Y-146837004D01*
X117835803Y-146873694D01*
X117724617Y-146910034D01*
X117724611Y-146910037D01*
X117719699Y-146911642D01*
X117715113Y-146914029D01*
X117715109Y-146914031D01*
X117511193Y-147020184D01*
X117506600Y-147022575D01*
X117502457Y-147025685D01*
X117502458Y-147025685D01*
X117399125Y-147103270D01*
X117314480Y-147166823D01*
X117148499Y-147340512D01*
X117137319Y-147356901D01*
X117016397Y-147534166D01*
X117013114Y-147538978D01*
X117010940Y-147543661D01*
X117010938Y-147543665D01*
X116914142Y-147752195D01*
X116911963Y-147756890D01*
X116847760Y-147988398D01*
X116847211Y-147993535D01*
X116834153Y-148115726D01*
X116826800Y-148184528D01*
X116826800Y-148419002D01*
X108341270Y-148419002D01*
X108368475Y-148374868D01*
X108368476Y-148374866D01*
X108372315Y-148368638D01*
X108420234Y-148224165D01*
X108425832Y-148207289D01*
X108425832Y-148207287D01*
X108427997Y-148200761D01*
X108429317Y-148187885D01*
X108436298Y-148119746D01*
X108438700Y-148096300D01*
X108438700Y-144895500D01*
X108437147Y-144880533D01*
X108428438Y-144796592D01*
X108428437Y-144796588D01*
X108427726Y-144789734D01*
X108371750Y-144621954D01*
X108278678Y-144471552D01*
X108257714Y-144450624D01*
X108158683Y-144351766D01*
X108153503Y-144346595D01*
X108041265Y-144277410D01*
X108009168Y-144257625D01*
X108009166Y-144257624D01*
X108002938Y-144253785D01*
X107885995Y-144214997D01*
X107841589Y-144200268D01*
X107841587Y-144200268D01*
X107835061Y-144198103D01*
X107828225Y-144197403D01*
X107828222Y-144197402D01*
X107785169Y-144192991D01*
X107730600Y-144187400D01*
X106129800Y-144187400D01*
X106126554Y-144187737D01*
X106126550Y-144187737D01*
X106030892Y-144197662D01*
X106030888Y-144197663D01*
X106024034Y-144198374D01*
X106017498Y-144200555D01*
X106017496Y-144200555D01*
X105916992Y-144234086D01*
X105856254Y-144254350D01*
X105705852Y-144347422D01*
X105580895Y-144472597D01*
X105577055Y-144478827D01*
X105577054Y-144478828D01*
X105499876Y-144604034D01*
X105488085Y-144623162D01*
X105432403Y-144791039D01*
X105421700Y-144895500D01*
X105421700Y-148096300D01*
X103212737Y-148096300D01*
X103314639Y-147906252D01*
X103317031Y-147901791D01*
X103396062Y-147672269D01*
X103437379Y-147433064D01*
X103437859Y-147422504D01*
X103438636Y-147405394D01*
X103438636Y-147405375D01*
X103438700Y-147403975D01*
X103438700Y-145634899D01*
X103438498Y-145632386D01*
X103424546Y-145458976D01*
X103424545Y-145458971D01*
X103424140Y-145453935D01*
X103366237Y-145218194D01*
X103271388Y-144994744D01*
X103208890Y-144895500D01*
X103144728Y-144793612D01*
X103144726Y-144793609D01*
X103142033Y-144789333D01*
X103101833Y-144743734D01*
X102984850Y-144611042D01*
X102984847Y-144611039D01*
X102981502Y-144607245D01*
X102875193Y-144519922D01*
X102797828Y-144456374D01*
X102797825Y-144456372D01*
X102793922Y-144453166D01*
X102619700Y-144351766D01*
X102588490Y-144333601D01*
X102588488Y-144333600D01*
X102584122Y-144331059D01*
X102449925Y-144279546D01*
X102362222Y-144245880D01*
X102362218Y-144245879D01*
X102357498Y-144244067D01*
X102352548Y-144243033D01*
X102352545Y-144243032D01*
X102124831Y-144195460D01*
X102124827Y-144195460D01*
X102119880Y-144194426D01*
X101877383Y-144183414D01*
X101872363Y-144183995D01*
X101872359Y-144183995D01*
X101641271Y-144210733D01*
X101641267Y-144210734D01*
X101636244Y-144211315D01*
X101631380Y-144212691D01*
X101631377Y-144212692D01*
X101554401Y-144234474D01*
X101402668Y-144277410D01*
X101398092Y-144279544D01*
X101398086Y-144279546D01*
X101187246Y-144377862D01*
X101187242Y-144377864D01*
X101182664Y-144379999D01*
X100981893Y-144516444D01*
X100805519Y-144683232D01*
X100802441Y-144687258D01*
X100802440Y-144687259D01*
X100661153Y-144872054D01*
X100661150Y-144872058D01*
X100658080Y-144876074D01*
X100655690Y-144880532D01*
X100655689Y-144880533D01*
X100649379Y-144892302D01*
X100543369Y-145090009D01*
X100464338Y-145319531D01*
X100423021Y-145558736D01*
X100421700Y-145587825D01*
X100421700Y-147356901D01*
X98438700Y-147356901D01*
X98438700Y-145634899D01*
X98438498Y-145632386D01*
X98424546Y-145458976D01*
X98424545Y-145458971D01*
X98424140Y-145453935D01*
X98366237Y-145218194D01*
X98271388Y-144994744D01*
X98208890Y-144895500D01*
X98144728Y-144793612D01*
X98144726Y-144793609D01*
X98142033Y-144789333D01*
X98101833Y-144743734D01*
X97984850Y-144611042D01*
X97984847Y-144611039D01*
X97981502Y-144607245D01*
X97875193Y-144519922D01*
X97797828Y-144456374D01*
X97797825Y-144456372D01*
X97793922Y-144453166D01*
X97619700Y-144351766D01*
X97588490Y-144333601D01*
X97588488Y-144333600D01*
X97584122Y-144331059D01*
X97449925Y-144279546D01*
X97362222Y-144245880D01*
X97362218Y-144245879D01*
X97357498Y-144244067D01*
X97352548Y-144243033D01*
X97352545Y-144243032D01*
X97124831Y-144195460D01*
X97124827Y-144195460D01*
X97119880Y-144194426D01*
X96877383Y-144183414D01*
X96872363Y-144183995D01*
X96872359Y-144183995D01*
X96641271Y-144210733D01*
X96641267Y-144210734D01*
X96636244Y-144211315D01*
X96631380Y-144212691D01*
X96631377Y-144212692D01*
X96554401Y-144234474D01*
X96402668Y-144277410D01*
X96398092Y-144279544D01*
X96398086Y-144279546D01*
X96187246Y-144377862D01*
X96187242Y-144377864D01*
X96182664Y-144379999D01*
X95981893Y-144516444D01*
X95805519Y-144683232D01*
X95802441Y-144687258D01*
X95802440Y-144687259D01*
X95661153Y-144872054D01*
X95661150Y-144872058D01*
X95658080Y-144876074D01*
X95655690Y-144880532D01*
X95655689Y-144880533D01*
X95649379Y-144892302D01*
X95543369Y-145090009D01*
X95464338Y-145319531D01*
X95423021Y-145558736D01*
X95421700Y-145587825D01*
X95421700Y-147356901D01*
X88263523Y-147356901D01*
X88173193Y-147294237D01*
X88173190Y-147294235D01*
X88169361Y-147291579D01*
X88165184Y-147289519D01*
X88165177Y-147289515D01*
X87945796Y-147181328D01*
X87945792Y-147181327D01*
X87941610Y-147179264D01*
X87699760Y-147101847D01*
X87695155Y-147101097D01*
X87453735Y-147061780D01*
X87453734Y-147061780D01*
X87449123Y-147061029D01*
X87322164Y-147059367D01*
X87199883Y-147057766D01*
X87199880Y-147057766D01*
X87195206Y-147057705D01*
X86943587Y-147091949D01*
X86699793Y-147163008D01*
X86695540Y-147164968D01*
X86695539Y-147164969D01*
X86683409Y-147170561D01*
X86469180Y-147269322D01*
X86465271Y-147271885D01*
X86260728Y-147405989D01*
X86260723Y-147405993D01*
X86256815Y-147408555D01*
X86162088Y-147493102D01*
X86116080Y-147534166D01*
X86067362Y-147577648D01*
X85904983Y-147772887D01*
X85773247Y-147989982D01*
X85771438Y-147994296D01*
X85771437Y-147994298D01*
X85682123Y-148207289D01*
X85675046Y-148224165D01*
X85612538Y-148470290D01*
X85587096Y-148722951D01*
X63609758Y-148722951D01*
X63603919Y-148644378D01*
X63594618Y-148519211D01*
X63594617Y-148519203D01*
X63594272Y-148514559D01*
X63586046Y-148478202D01*
X63539259Y-148271439D01*
X63538228Y-148266882D01*
X63514654Y-148206261D01*
X63447884Y-148034562D01*
X63447883Y-148034560D01*
X63446191Y-148030209D01*
X63425230Y-147993535D01*
X63322502Y-147813797D01*
X63322500Y-147813795D01*
X63320183Y-147809740D01*
X63162971Y-147610317D01*
X62978009Y-147436323D01*
X62933425Y-147405394D01*
X62773193Y-147294237D01*
X62773190Y-147294235D01*
X62769361Y-147291579D01*
X62765184Y-147289519D01*
X62765177Y-147289515D01*
X62545796Y-147181328D01*
X62545792Y-147181327D01*
X62541610Y-147179264D01*
X62299760Y-147101847D01*
X62295155Y-147101097D01*
X62053735Y-147061780D01*
X62053734Y-147061780D01*
X62049123Y-147061029D01*
X61922164Y-147059367D01*
X61799883Y-147057766D01*
X61799880Y-147057766D01*
X61795206Y-147057705D01*
X61543587Y-147091949D01*
X61299793Y-147163008D01*
X61295540Y-147164968D01*
X61295539Y-147164969D01*
X61283409Y-147170561D01*
X61069180Y-147269322D01*
X61065271Y-147271885D01*
X60860728Y-147405989D01*
X60860723Y-147405993D01*
X60856815Y-147408555D01*
X60762088Y-147493102D01*
X60716080Y-147534166D01*
X60667362Y-147577648D01*
X60504983Y-147772887D01*
X60373247Y-147989982D01*
X60371438Y-147994296D01*
X60371437Y-147994298D01*
X60282123Y-148207289D01*
X60275046Y-148224165D01*
X60212538Y-148470290D01*
X60187096Y-148722951D01*
X53340000Y-148722951D01*
X53340000Y-142621000D01*
X71538526Y-142621000D01*
X71558391Y-142873403D01*
X71617495Y-143119591D01*
X71714384Y-143353502D01*
X71846672Y-143569376D01*
X72011102Y-143761898D01*
X72203624Y-143926328D01*
X72419498Y-144058616D01*
X72424068Y-144060509D01*
X72424072Y-144060511D01*
X72648836Y-144153611D01*
X72653409Y-144155505D01*
X72738032Y-144175821D01*
X72894784Y-144213454D01*
X72894790Y-144213455D01*
X72899597Y-144214609D01*
X73152000Y-144234474D01*
X73404403Y-144214609D01*
X73409210Y-144213455D01*
X73409216Y-144213454D01*
X73565968Y-144175821D01*
X73650591Y-144155505D01*
X73655164Y-144153611D01*
X73879928Y-144060511D01*
X73879932Y-144060509D01*
X73884502Y-144058616D01*
X74100376Y-143926328D01*
X74292898Y-143761898D01*
X74457328Y-143569376D01*
X74589616Y-143353502D01*
X74686505Y-143119591D01*
X74745609Y-142873403D01*
X74765474Y-142621000D01*
X74745609Y-142368597D01*
X74686505Y-142122409D01*
X74589616Y-141888498D01*
X74457328Y-141672624D01*
X74292898Y-141480102D01*
X74100376Y-141315672D01*
X73884502Y-141183384D01*
X73879932Y-141181491D01*
X73879928Y-141181489D01*
X73655164Y-141088389D01*
X73655162Y-141088388D01*
X73650591Y-141086495D01*
X73565968Y-141066179D01*
X73409216Y-141028546D01*
X73409210Y-141028545D01*
X73404403Y-141027391D01*
X73152000Y-141007526D01*
X72899597Y-141027391D01*
X72894790Y-141028545D01*
X72894784Y-141028546D01*
X72738032Y-141066179D01*
X72653409Y-141086495D01*
X72648838Y-141088388D01*
X72648836Y-141088389D01*
X72424072Y-141181489D01*
X72424068Y-141181491D01*
X72419498Y-141183384D01*
X72203624Y-141315672D01*
X72011102Y-141480102D01*
X71846672Y-141672624D01*
X71714384Y-141888498D01*
X71617495Y-142122409D01*
X71558391Y-142368597D01*
X71538526Y-142621000D01*
X53340000Y-142621000D01*
X53340000Y-137770263D01*
X61512664Y-137770263D01*
X61549004Y-138007744D01*
X61568309Y-138066808D01*
X61622034Y-138231183D01*
X61622037Y-138231189D01*
X61623642Y-138236101D01*
X61626029Y-138240687D01*
X61626031Y-138240691D01*
X61630723Y-138249704D01*
X61734575Y-138449200D01*
X61851015Y-138604283D01*
X61875920Y-138670765D01*
X61860928Y-138740161D01*
X61810798Y-138790435D01*
X61794485Y-138797915D01*
X61784307Y-138801731D01*
X61784304Y-138801733D01*
X61775895Y-138804885D01*
X61659339Y-138892239D01*
X61571985Y-139008795D01*
X61520855Y-139145184D01*
X61514100Y-139207366D01*
X61514100Y-141208634D01*
X61520855Y-141270816D01*
X61571985Y-141407205D01*
X61659339Y-141523761D01*
X61775895Y-141611115D01*
X61912284Y-141662245D01*
X61974466Y-141669000D01*
X64070734Y-141669000D01*
X64132916Y-141662245D01*
X64269305Y-141611115D01*
X64385861Y-141523761D01*
X64473215Y-141407205D01*
X64524345Y-141270816D01*
X64531100Y-141208634D01*
X64531100Y-139207366D01*
X64524345Y-139145184D01*
X64473215Y-139008795D01*
X64385861Y-138892239D01*
X64269305Y-138804885D01*
X64249411Y-138797427D01*
X64192647Y-138754787D01*
X64167946Y-138688226D01*
X64183153Y-138618877D01*
X64194758Y-138601353D01*
X64287967Y-138483330D01*
X64287970Y-138483325D01*
X64291168Y-138479276D01*
X64293770Y-138474564D01*
X64404777Y-138273474D01*
X64404779Y-138273470D01*
X64407274Y-138268950D01*
X64414090Y-138249704D01*
X64485744Y-138047360D01*
X64485745Y-138047356D01*
X64487470Y-138042485D01*
X64492783Y-138012659D01*
X64528695Y-137811052D01*
X64528696Y-137811046D01*
X64529601Y-137805963D01*
X64531107Y-137682704D01*
X101950238Y-137682704D01*
X101967612Y-137881292D01*
X101969331Y-137887209D01*
X101969332Y-137887214D01*
X102003922Y-138006270D01*
X102023228Y-138072722D01*
X102114966Y-138249704D01*
X102212368Y-138371716D01*
X102310385Y-138469733D01*
X102319486Y-138479875D01*
X102343425Y-138509649D01*
X102382202Y-138542187D01*
X102385829Y-138545351D01*
X102387698Y-138547046D01*
X102389892Y-138549240D01*
X102423458Y-138576812D01*
X102424255Y-138577474D01*
X102496133Y-138637786D01*
X102500839Y-138640373D01*
X102504989Y-138643782D01*
X102510413Y-138646690D01*
X102510423Y-138646697D01*
X102587568Y-138688061D01*
X102588728Y-138688690D01*
X102670821Y-138733821D01*
X102675941Y-138735445D01*
X102680674Y-138737983D01*
X102759916Y-138762210D01*
X102770193Y-138765352D01*
X102771452Y-138765744D01*
X102854961Y-138792235D01*
X102854965Y-138792236D01*
X102860835Y-138794098D01*
X102866173Y-138794697D01*
X102871309Y-138796267D01*
X102877439Y-138796890D01*
X102877441Y-138796890D01*
X102904937Y-138799683D01*
X102964568Y-138805739D01*
X102965708Y-138805861D01*
X103015984Y-138811500D01*
X103019490Y-138811500D01*
X103020616Y-138811563D01*
X103026310Y-138812011D01*
X103063505Y-138815789D01*
X103063511Y-138815789D01*
X103069635Y-138816411D01*
X103115677Y-138812059D01*
X103127534Y-138811500D01*
X111657757Y-138811500D01*
X111660813Y-138811200D01*
X111660820Y-138811200D01*
X111725221Y-138804885D01*
X111805994Y-138796965D01*
X111811893Y-138795184D01*
X111811898Y-138795183D01*
X111990933Y-138741129D01*
X111996832Y-138739348D01*
X112093289Y-138688061D01*
X112167402Y-138648655D01*
X112167405Y-138648653D01*
X112172844Y-138645761D01*
X112177614Y-138641871D01*
X112177618Y-138641868D01*
X112322551Y-138523663D01*
X112322554Y-138523660D01*
X112327326Y-138519768D01*
X112454394Y-138366170D01*
X112549208Y-138190815D01*
X112608156Y-138000385D01*
X112621319Y-137875150D01*
X112628349Y-137808260D01*
X112628349Y-137808258D01*
X112628993Y-137802131D01*
X112610926Y-137603605D01*
X112601303Y-137570907D01*
X112556384Y-137418289D01*
X112554642Y-137412370D01*
X112462286Y-137235709D01*
X112337375Y-137080351D01*
X112184667Y-136952214D01*
X112009979Y-136856179D01*
X112004112Y-136854318D01*
X112004110Y-136854317D01*
X111825842Y-136797766D01*
X111825839Y-136797765D01*
X111819965Y-136795902D01*
X111664816Y-136778500D01*
X103448149Y-136778500D01*
X103388608Y-136763544D01*
X103369559Y-136753330D01*
X103369558Y-136753330D01*
X103364126Y-136750417D01*
X103255244Y-136717128D01*
X103179389Y-136693936D01*
X103179387Y-136693936D01*
X103173491Y-136692133D01*
X103144888Y-136689228D01*
X102981293Y-136672610D01*
X102981288Y-136672610D01*
X102975165Y-136671988D01*
X102776704Y-136690748D01*
X102585666Y-136747699D01*
X102580218Y-136750571D01*
X102580214Y-136750573D01*
X102526501Y-136778893D01*
X102409329Y-136840671D01*
X102404543Y-136844547D01*
X102404541Y-136844548D01*
X102346693Y-136891393D01*
X102254408Y-136966124D01*
X102126805Y-137119278D01*
X102031380Y-137294300D01*
X101971767Y-137484524D01*
X101971102Y-137490647D01*
X101971101Y-137490651D01*
X101950903Y-137676579D01*
X101950238Y-137682704D01*
X64531107Y-137682704D01*
X64532536Y-137565737D01*
X64496196Y-137328256D01*
X64426346Y-137114547D01*
X64423166Y-137104817D01*
X64423163Y-137104811D01*
X64421558Y-137099899D01*
X64349900Y-136962245D01*
X64313016Y-136891393D01*
X64310625Y-136886800D01*
X64206185Y-136747699D01*
X64169482Y-136698815D01*
X64169480Y-136698812D01*
X64166377Y-136694680D01*
X63992688Y-136528699D01*
X63955697Y-136503465D01*
X63910696Y-136448556D01*
X63902525Y-136378032D01*
X63933779Y-136314284D01*
X63958260Y-136293589D01*
X63960235Y-136292311D01*
X63964577Y-136289502D01*
X64142270Y-136127814D01*
X64232636Y-136013391D01*
X64287967Y-135943330D01*
X64287970Y-135943325D01*
X64291168Y-135939276D01*
X64305485Y-135913342D01*
X64404777Y-135733474D01*
X64404779Y-135733470D01*
X64407274Y-135728950D01*
X64430202Y-135664206D01*
X64485744Y-135507360D01*
X64485745Y-135507356D01*
X64487470Y-135502485D01*
X64488378Y-135497389D01*
X64528695Y-135271052D01*
X64528696Y-135271046D01*
X64529601Y-135265963D01*
X64531101Y-135143184D01*
X64532473Y-135030907D01*
X64532473Y-135030905D01*
X64532536Y-135025737D01*
X64496196Y-134788256D01*
X64451334Y-134650998D01*
X64423166Y-134564817D01*
X64423163Y-134564811D01*
X64421558Y-134559899D01*
X64408596Y-134534998D01*
X64336941Y-134397351D01*
X79389496Y-134397351D01*
X79389720Y-134402017D01*
X79389720Y-134402022D01*
X79391405Y-134437098D01*
X79401680Y-134650998D01*
X79415693Y-134721444D01*
X79450028Y-134894058D01*
X79451221Y-134900057D01*
X79452800Y-134904455D01*
X79452802Y-134904462D01*
X79525815Y-135107819D01*
X79537031Y-135139058D01*
X79539248Y-135143184D01*
X79607954Y-135271052D01*
X79657225Y-135362751D01*
X79660020Y-135366494D01*
X79660022Y-135366497D01*
X79806371Y-135562482D01*
X79806376Y-135562488D01*
X79809163Y-135566220D01*
X79812472Y-135569500D01*
X79812477Y-135569506D01*
X79973319Y-135728950D01*
X79989507Y-135744997D01*
X79993269Y-135747755D01*
X79993272Y-135747758D01*
X80098964Y-135825254D01*
X80194294Y-135895153D01*
X80198429Y-135897329D01*
X80198433Y-135897331D01*
X80278158Y-135939276D01*
X80419027Y-136013391D01*
X80658768Y-136097112D01*
X80908250Y-136144478D01*
X81028732Y-136149211D01*
X81157325Y-136154264D01*
X81157330Y-136154264D01*
X81161993Y-136154447D01*
X81260974Y-136143607D01*
X81409769Y-136127312D01*
X81409775Y-136127311D01*
X81414422Y-136126802D01*
X81523880Y-136097984D01*
X81655473Y-136063338D01*
X81659993Y-136062148D01*
X81778553Y-136011211D01*
X81889007Y-135963757D01*
X81889010Y-135963755D01*
X81893310Y-135961908D01*
X81897290Y-135959445D01*
X81897294Y-135959443D01*
X82105264Y-135830747D01*
X82105266Y-135830745D01*
X82109247Y-135828282D01*
X82207628Y-135744997D01*
X82299489Y-135667231D01*
X82299491Y-135667229D01*
X82303062Y-135664206D01*
X82470495Y-135473284D01*
X82474059Y-135467744D01*
X82605341Y-135263642D01*
X82607869Y-135259712D01*
X82712167Y-135028180D01*
X82781096Y-134783775D01*
X82803186Y-134610136D01*
X82812745Y-134534998D01*
X82812745Y-134534992D01*
X82813143Y-134531867D01*
X82815491Y-134442200D01*
X82812158Y-134397351D01*
X99709496Y-134397351D01*
X99709720Y-134402017D01*
X99709720Y-134402022D01*
X99711405Y-134437098D01*
X99721680Y-134650998D01*
X99735693Y-134721444D01*
X99770028Y-134894058D01*
X99771221Y-134900057D01*
X99772800Y-134904455D01*
X99772802Y-134904462D01*
X99845815Y-135107819D01*
X99857031Y-135139058D01*
X99859248Y-135143184D01*
X99927954Y-135271052D01*
X99977225Y-135362751D01*
X99980020Y-135366494D01*
X99980022Y-135366497D01*
X100126371Y-135562482D01*
X100126376Y-135562488D01*
X100129163Y-135566220D01*
X100132472Y-135569500D01*
X100132477Y-135569506D01*
X100293319Y-135728950D01*
X100309507Y-135744997D01*
X100313269Y-135747755D01*
X100313272Y-135747758D01*
X100418964Y-135825254D01*
X100514294Y-135895153D01*
X100518429Y-135897329D01*
X100518433Y-135897331D01*
X100598158Y-135939276D01*
X100739027Y-136013391D01*
X100978768Y-136097112D01*
X101228250Y-136144478D01*
X101348732Y-136149211D01*
X101477325Y-136154264D01*
X101477330Y-136154264D01*
X101481993Y-136154447D01*
X101580974Y-136143607D01*
X101729769Y-136127312D01*
X101729775Y-136127311D01*
X101734422Y-136126802D01*
X101843880Y-136097984D01*
X101975473Y-136063338D01*
X101979993Y-136062148D01*
X102098553Y-136011211D01*
X102209007Y-135963757D01*
X102209010Y-135963755D01*
X102213310Y-135961908D01*
X102217290Y-135959445D01*
X102217294Y-135959443D01*
X102425264Y-135830747D01*
X102425266Y-135830745D01*
X102429247Y-135828282D01*
X102527628Y-135744997D01*
X102619489Y-135667231D01*
X102619491Y-135667229D01*
X102623062Y-135664206D01*
X102790495Y-135473284D01*
X102794059Y-135467744D01*
X102925341Y-135263642D01*
X102927869Y-135259712D01*
X103032167Y-135028180D01*
X103101096Y-134783775D01*
X103123186Y-134610136D01*
X103132745Y-134534998D01*
X103132745Y-134534992D01*
X103133143Y-134531867D01*
X103135491Y-134442200D01*
X103128094Y-134342658D01*
X103117018Y-134193611D01*
X103117017Y-134193607D01*
X103116672Y-134188959D01*
X103108916Y-134154680D01*
X103061659Y-133945839D01*
X103060628Y-133941282D01*
X103058935Y-133936928D01*
X102970284Y-133708962D01*
X102970283Y-133708960D01*
X102968591Y-133704609D01*
X102959865Y-133689342D01*
X102876752Y-133543923D01*
X139152035Y-133543923D01*
X139170665Y-133780634D01*
X139171819Y-133785441D01*
X139171820Y-133785447D01*
X139187591Y-133851138D01*
X139226095Y-134011517D01*
X139227988Y-134016088D01*
X139227989Y-134016090D01*
X139285395Y-134154680D01*
X139316960Y-134230886D01*
X139319546Y-134235106D01*
X139438441Y-134429125D01*
X139438445Y-134429131D01*
X139441024Y-134433339D01*
X139595231Y-134613892D01*
X139775784Y-134768099D01*
X139779992Y-134770678D01*
X139779998Y-134770682D01*
X139974017Y-134889577D01*
X139978237Y-134892163D01*
X139982807Y-134894056D01*
X139982811Y-134894058D01*
X140193033Y-134981134D01*
X140197606Y-134983028D01*
X140277809Y-135002283D01*
X140423676Y-135037303D01*
X140423682Y-135037304D01*
X140428489Y-135038458D01*
X140665200Y-135057088D01*
X140901911Y-135038458D01*
X140906718Y-135037304D01*
X140906724Y-135037303D01*
X141052591Y-135002283D01*
X141132794Y-134983028D01*
X141137367Y-134981134D01*
X141347589Y-134894058D01*
X141347593Y-134894056D01*
X141352163Y-134892163D01*
X141356383Y-134889577D01*
X141550402Y-134770682D01*
X141550408Y-134770678D01*
X141554616Y-134768099D01*
X141735169Y-134613892D01*
X141889376Y-134433339D01*
X141891955Y-134429131D01*
X141891959Y-134429125D01*
X142010854Y-134235106D01*
X142013440Y-134230886D01*
X142045006Y-134154680D01*
X142096362Y-134030694D01*
X149431069Y-134030694D01*
X149431366Y-134035846D01*
X149431366Y-134035850D01*
X149437380Y-134140151D01*
X149444778Y-134268455D01*
X149445915Y-134273501D01*
X149445916Y-134273507D01*
X149472777Y-134392697D01*
X149497136Y-134500785D01*
X149499078Y-134505567D01*
X149499079Y-134505571D01*
X149543064Y-134613892D01*
X149586736Y-134721444D01*
X149711173Y-134924506D01*
X149867103Y-135104517D01*
X150050341Y-135256644D01*
X150054793Y-135259246D01*
X150054798Y-135259249D01*
X150153232Y-135316769D01*
X150255964Y-135376801D01*
X150478451Y-135461760D01*
X150483517Y-135462791D01*
X150483518Y-135462791D01*
X150507863Y-135467744D01*
X150711827Y-135509241D01*
X150846020Y-135514162D01*
X150944659Y-135517779D01*
X150944663Y-135517779D01*
X150949823Y-135517968D01*
X150954943Y-135517312D01*
X150954945Y-135517312D01*
X151180922Y-135488364D01*
X151180923Y-135488364D01*
X151186050Y-135487707D01*
X151234124Y-135473284D01*
X151409215Y-135420754D01*
X151409216Y-135420753D01*
X151414161Y-135419270D01*
X151628032Y-135314495D01*
X151632235Y-135311497D01*
X151632240Y-135311494D01*
X151817715Y-135179196D01*
X151817717Y-135179194D01*
X151821919Y-135176197D01*
X151990615Y-135008089D01*
X152007244Y-134984948D01*
X152065078Y-134904462D01*
X152129589Y-134814686D01*
X152144867Y-134783775D01*
X152232816Y-134605824D01*
X152232817Y-134605822D01*
X152235110Y-134601182D01*
X152304342Y-134373311D01*
X152335428Y-134137192D01*
X152337163Y-134066200D01*
X152317649Y-133828844D01*
X152259630Y-133597863D01*
X152164666Y-133379459D01*
X152147593Y-133353067D01*
X152038115Y-133183842D01*
X152035305Y-133179498D01*
X151875023Y-133003350D01*
X151870972Y-133000151D01*
X151870968Y-133000147D01*
X151737247Y-132894542D01*
X151696184Y-132836625D01*
X151692952Y-132765702D01*
X151728577Y-132704291D01*
X151742170Y-132693082D01*
X151817713Y-132639198D01*
X151817720Y-132639192D01*
X151821919Y-132636197D01*
X151990615Y-132468089D01*
X152129589Y-132274686D01*
X152175673Y-132181444D01*
X152232816Y-132065824D01*
X152232817Y-132065822D01*
X152235110Y-132061182D01*
X152304342Y-131833311D01*
X152335428Y-131597192D01*
X152337163Y-131526200D01*
X152317649Y-131288844D01*
X152259630Y-131057863D01*
X152174480Y-130862029D01*
X152166726Y-130844196D01*
X152166724Y-130844193D01*
X152164666Y-130839459D01*
X152147593Y-130813067D01*
X152038115Y-130643842D01*
X152035305Y-130639498D01*
X151875023Y-130463350D01*
X151870972Y-130460151D01*
X151870968Y-130460147D01*
X151737247Y-130354542D01*
X151696184Y-130296625D01*
X151692952Y-130225702D01*
X151728577Y-130164291D01*
X151742170Y-130153082D01*
X151817713Y-130099198D01*
X151817720Y-130099192D01*
X151821919Y-130096197D01*
X151990615Y-129928089D01*
X152129589Y-129734686D01*
X152142032Y-129709511D01*
X152232816Y-129525824D01*
X152232817Y-129525822D01*
X152235110Y-129521182D01*
X152304342Y-129293311D01*
X152313713Y-129222135D01*
X152334991Y-129060513D01*
X152334991Y-129060509D01*
X152335428Y-129057192D01*
X152335510Y-129053840D01*
X152337081Y-128989565D01*
X152337081Y-128989561D01*
X152337163Y-128986200D01*
X152317649Y-128748844D01*
X152259630Y-128517863D01*
X152164666Y-128299459D01*
X152148798Y-128274930D01*
X152038115Y-128103842D01*
X152035305Y-128099498D01*
X151875023Y-127923350D01*
X151870972Y-127920151D01*
X151870968Y-127920147D01*
X151692177Y-127778947D01*
X151692172Y-127778944D01*
X151688123Y-127775746D01*
X151683607Y-127773253D01*
X151683604Y-127773251D01*
X151484149Y-127663146D01*
X151484145Y-127663144D01*
X151479625Y-127660649D01*
X151474756Y-127658925D01*
X151474752Y-127658923D01*
X151260004Y-127582876D01*
X151260000Y-127582875D01*
X151255129Y-127581150D01*
X151250039Y-127580243D01*
X151250034Y-127580242D01*
X151122713Y-127557564D01*
X151020663Y-127539386D01*
X150931536Y-127538297D01*
X150787694Y-127536539D01*
X150787692Y-127536539D01*
X150782524Y-127536476D01*
X150547108Y-127572500D01*
X150320737Y-127646489D01*
X150109489Y-127756458D01*
X150105356Y-127759561D01*
X150105353Y-127759563D01*
X150083167Y-127776221D01*
X149919039Y-127899452D01*
X149754501Y-128071631D01*
X149620293Y-128268372D01*
X149520021Y-128484391D01*
X149456376Y-128713885D01*
X149455827Y-128719019D01*
X149455827Y-128719021D01*
X149451044Y-128763779D01*
X149431069Y-128950694D01*
X149431366Y-128955846D01*
X149431366Y-128955850D01*
X149437401Y-129060513D01*
X149444778Y-129188455D01*
X149445915Y-129193501D01*
X149445916Y-129193507D01*
X149479010Y-129340356D01*
X149497136Y-129420785D01*
X149499078Y-129425567D01*
X149499079Y-129425571D01*
X149579608Y-129623891D01*
X149586736Y-129641444D01*
X149628448Y-129709511D01*
X149696533Y-129820615D01*
X149711173Y-129844506D01*
X149867103Y-130024517D01*
X149949053Y-130092553D01*
X150031459Y-130160968D01*
X150071094Y-130219871D01*
X150072592Y-130290851D01*
X150035477Y-130351374D01*
X150026627Y-130358672D01*
X149923174Y-130436347D01*
X149919039Y-130439452D01*
X149754501Y-130611631D01*
X149620293Y-130808372D01*
X149574404Y-130907233D01*
X149529060Y-131004919D01*
X149520021Y-131024391D01*
X149456376Y-131253885D01*
X149455827Y-131259019D01*
X149455827Y-131259021D01*
X149450436Y-131309469D01*
X149431069Y-131490694D01*
X149431366Y-131495846D01*
X149431366Y-131495850D01*
X149437401Y-131600513D01*
X149444778Y-131728455D01*
X149445915Y-131733501D01*
X149445916Y-131733507D01*
X149479010Y-131880356D01*
X149497136Y-131960785D01*
X149499078Y-131965567D01*
X149499079Y-131965571D01*
X149584792Y-132176657D01*
X149586736Y-132181444D01*
X149711173Y-132384506D01*
X149867103Y-132564517D01*
X149949053Y-132632553D01*
X150031459Y-132700968D01*
X150071094Y-132759871D01*
X150072592Y-132830851D01*
X150035477Y-132891374D01*
X150026627Y-132898672D01*
X149963213Y-132946285D01*
X149919039Y-132979452D01*
X149915467Y-132983190D01*
X149790537Y-133113922D01*
X149754501Y-133151631D01*
X149620293Y-133348372D01*
X149520021Y-133564391D01*
X149456376Y-133793885D01*
X149455827Y-133799019D01*
X149455827Y-133799021D01*
X149451875Y-133836003D01*
X149431069Y-134030694D01*
X142096362Y-134030694D01*
X142102411Y-134016090D01*
X142102412Y-134016088D01*
X142104305Y-134011517D01*
X142142809Y-133851138D01*
X142158580Y-133785447D01*
X142158581Y-133785441D01*
X142159735Y-133780634D01*
X142178365Y-133543923D01*
X142159735Y-133307212D01*
X142154335Y-133284717D01*
X142105460Y-133081141D01*
X142104305Y-133076329D01*
X142075660Y-133007173D01*
X142015335Y-132861534D01*
X142015333Y-132861530D01*
X142013440Y-132856960D01*
X142002660Y-132839369D01*
X141891959Y-132658721D01*
X141891955Y-132658715D01*
X141889376Y-132654507D01*
X141735169Y-132473954D01*
X141554616Y-132319747D01*
X141550408Y-132317168D01*
X141550402Y-132317164D01*
X141356383Y-132198269D01*
X141352163Y-132195683D01*
X141347593Y-132193790D01*
X141347589Y-132193788D01*
X141137367Y-132106712D01*
X141137365Y-132106711D01*
X141132794Y-132104818D01*
X141052591Y-132085563D01*
X140906724Y-132050543D01*
X140906718Y-132050542D01*
X140901911Y-132049388D01*
X140665200Y-132030758D01*
X140428489Y-132049388D01*
X140423682Y-132050542D01*
X140423676Y-132050543D01*
X140277809Y-132085563D01*
X140197606Y-132104818D01*
X140193035Y-132106711D01*
X140193033Y-132106712D01*
X139982811Y-132193788D01*
X139982807Y-132193790D01*
X139978237Y-132195683D01*
X139974017Y-132198269D01*
X139779998Y-132317164D01*
X139779992Y-132317168D01*
X139775784Y-132319747D01*
X139595231Y-132473954D01*
X139441024Y-132654507D01*
X139438445Y-132658715D01*
X139438441Y-132658721D01*
X139327740Y-132839369D01*
X139316960Y-132856960D01*
X139315067Y-132861530D01*
X139315065Y-132861534D01*
X139254740Y-133007173D01*
X139226095Y-133076329D01*
X139224940Y-133081141D01*
X139176066Y-133284717D01*
X139170665Y-133307212D01*
X139152035Y-133543923D01*
X102876752Y-133543923D01*
X102844902Y-133488197D01*
X102844900Y-133488195D01*
X102842583Y-133484140D01*
X102685371Y-133284717D01*
X102500409Y-133110723D01*
X102351142Y-133007173D01*
X102295593Y-132968637D01*
X102295590Y-132968635D01*
X102291761Y-132965979D01*
X102287584Y-132963919D01*
X102287577Y-132963915D01*
X102068196Y-132855728D01*
X102068192Y-132855727D01*
X102064010Y-132853664D01*
X101822160Y-132776247D01*
X101811402Y-132774495D01*
X101576135Y-132736180D01*
X101576134Y-132736180D01*
X101571523Y-132735429D01*
X101444565Y-132733767D01*
X101322283Y-132732166D01*
X101322280Y-132732166D01*
X101317606Y-132732105D01*
X101065987Y-132766349D01*
X100822193Y-132837408D01*
X100591580Y-132943722D01*
X100587671Y-132946285D01*
X100383128Y-133080389D01*
X100383123Y-133080393D01*
X100379215Y-133082955D01*
X100306457Y-133147894D01*
X100271048Y-133179498D01*
X100189762Y-133252048D01*
X100027383Y-133447287D01*
X99895647Y-133664382D01*
X99893838Y-133668696D01*
X99893837Y-133668698D01*
X99817334Y-133851138D01*
X99797446Y-133898565D01*
X99796295Y-133903097D01*
X99796294Y-133903100D01*
X99790920Y-133924261D01*
X99734938Y-134144690D01*
X99709496Y-134397351D01*
X82812158Y-134397351D01*
X82808094Y-134342658D01*
X82797018Y-134193611D01*
X82797017Y-134193607D01*
X82796672Y-134188959D01*
X82788916Y-134154680D01*
X82741659Y-133945839D01*
X82740628Y-133941282D01*
X82738935Y-133936928D01*
X82650284Y-133708962D01*
X82650283Y-133708960D01*
X82648591Y-133704609D01*
X82639865Y-133689342D01*
X82524902Y-133488197D01*
X82524900Y-133488195D01*
X82522583Y-133484140D01*
X82365371Y-133284717D01*
X82180409Y-133110723D01*
X82031142Y-133007173D01*
X81975593Y-132968637D01*
X81975590Y-132968635D01*
X81971761Y-132965979D01*
X81967584Y-132963919D01*
X81967577Y-132963915D01*
X81748196Y-132855728D01*
X81748192Y-132855727D01*
X81744010Y-132853664D01*
X81502160Y-132776247D01*
X81491402Y-132774495D01*
X81256135Y-132736180D01*
X81256134Y-132736180D01*
X81251523Y-132735429D01*
X81124565Y-132733767D01*
X81002283Y-132732166D01*
X81002280Y-132732166D01*
X80997606Y-132732105D01*
X80745987Y-132766349D01*
X80502193Y-132837408D01*
X80271580Y-132943722D01*
X80267671Y-132946285D01*
X80063128Y-133080389D01*
X80063123Y-133080393D01*
X80059215Y-133082955D01*
X79986457Y-133147894D01*
X79951048Y-133179498D01*
X79869762Y-133252048D01*
X79707383Y-133447287D01*
X79575647Y-133664382D01*
X79573838Y-133668696D01*
X79573837Y-133668698D01*
X79497334Y-133851138D01*
X79477446Y-133898565D01*
X79476295Y-133903097D01*
X79476294Y-133903100D01*
X79470920Y-133924261D01*
X79414938Y-134144690D01*
X79389496Y-134397351D01*
X64336941Y-134397351D01*
X64313016Y-134351393D01*
X64310625Y-134346800D01*
X64220160Y-134226312D01*
X64169482Y-134158815D01*
X64169480Y-134158812D01*
X64166377Y-134154680D01*
X63992688Y-133988699D01*
X63794222Y-133853314D01*
X63789539Y-133851140D01*
X63789535Y-133851138D01*
X63581005Y-133754342D01*
X63581001Y-133754341D01*
X63576310Y-133752163D01*
X63344802Y-133687960D01*
X63339665Y-133687411D01*
X63152007Y-133667356D01*
X63151999Y-133667356D01*
X63148672Y-133667000D01*
X62914198Y-133667000D01*
X62911625Y-133667212D01*
X62911614Y-133667212D01*
X62810654Y-133675513D01*
X62735663Y-133681678D01*
X62502656Y-133740206D01*
X62379202Y-133793885D01*
X62287074Y-133833943D01*
X62287071Y-133833945D01*
X62282337Y-133836003D01*
X62192301Y-133894250D01*
X62137594Y-133929642D01*
X62080623Y-133966498D01*
X61902930Y-134128186D01*
X61851261Y-134193611D01*
X61757233Y-134312670D01*
X61757230Y-134312675D01*
X61754032Y-134316724D01*
X61751539Y-134321240D01*
X61751537Y-134321243D01*
X61683021Y-134445360D01*
X61637926Y-134527050D01*
X61636202Y-134531919D01*
X61636200Y-134531923D01*
X61570782Y-134716657D01*
X61557730Y-134753515D01*
X61556823Y-134758608D01*
X61556822Y-134758611D01*
X61516642Y-134984183D01*
X61515599Y-134990037D01*
X61515334Y-135011737D01*
X61513325Y-135176197D01*
X61512664Y-135230263D01*
X61549004Y-135467744D01*
X61565358Y-135517779D01*
X61622034Y-135691183D01*
X61622037Y-135691189D01*
X61623642Y-135696101D01*
X61626029Y-135700687D01*
X61626031Y-135700691D01*
X61650533Y-135747758D01*
X61734575Y-135909200D01*
X61737685Y-135913342D01*
X61875664Y-136097112D01*
X61878823Y-136101320D01*
X62052512Y-136267301D01*
X62089503Y-136292535D01*
X62134504Y-136347444D01*
X62142675Y-136417968D01*
X62111421Y-136481716D01*
X62086940Y-136502411D01*
X62085307Y-136503468D01*
X62080623Y-136506498D01*
X61902930Y-136668186D01*
X61878741Y-136698815D01*
X61757233Y-136852670D01*
X61757230Y-136852675D01*
X61754032Y-136856724D01*
X61751539Y-136861240D01*
X61751537Y-136861243D01*
X61699133Y-136956173D01*
X61637926Y-137067050D01*
X61636202Y-137071919D01*
X61636200Y-137071923D01*
X61559456Y-137288640D01*
X61557730Y-137293515D01*
X61556823Y-137298608D01*
X61556822Y-137298611D01*
X61522615Y-137490651D01*
X61515599Y-137530037D01*
X61512664Y-137770263D01*
X53340000Y-137770263D01*
X53340000Y-133609134D01*
X71543500Y-133609134D01*
X71550255Y-133671316D01*
X71601385Y-133807705D01*
X71688739Y-133924261D01*
X71805295Y-134011615D01*
X71941684Y-134062745D01*
X72003866Y-134069500D01*
X74300134Y-134069500D01*
X74362316Y-134062745D01*
X74498705Y-134011615D01*
X74615261Y-133924261D01*
X74702615Y-133807705D01*
X74753745Y-133671316D01*
X74760500Y-133609134D01*
X74760500Y-131312866D01*
X74753745Y-131250684D01*
X74702615Y-131114295D01*
X74615261Y-130997739D01*
X74498705Y-130910385D01*
X74362316Y-130859255D01*
X74300134Y-130852500D01*
X72003866Y-130852500D01*
X71941684Y-130859255D01*
X71805295Y-130910385D01*
X71688739Y-130997739D01*
X71601385Y-131114295D01*
X71550255Y-131250684D01*
X71543500Y-131312866D01*
X71543500Y-133609134D01*
X53340000Y-133609134D01*
X53340000Y-129418134D01*
X59580100Y-129418134D01*
X59586855Y-129480316D01*
X59637985Y-129616705D01*
X59725339Y-129733261D01*
X59841895Y-129820615D01*
X59978284Y-129871745D01*
X60040466Y-129878500D01*
X62336734Y-129878500D01*
X62398916Y-129871745D01*
X62535305Y-129820615D01*
X62651861Y-129733261D01*
X62739215Y-129616705D01*
X62790345Y-129480316D01*
X62797100Y-129418134D01*
X62797100Y-128270000D01*
X69735126Y-128270000D01*
X69754991Y-128522403D01*
X69814095Y-128768591D01*
X69910984Y-129002502D01*
X70043272Y-129218376D01*
X70207702Y-129410898D01*
X70400224Y-129575328D01*
X70616098Y-129707616D01*
X70620668Y-129709509D01*
X70620672Y-129709511D01*
X70833855Y-129797814D01*
X70850009Y-129804505D01*
X70917113Y-129820615D01*
X71091384Y-129862454D01*
X71091390Y-129862455D01*
X71096197Y-129863609D01*
X71348600Y-129883474D01*
X71601003Y-129863609D01*
X71605810Y-129862455D01*
X71605816Y-129862454D01*
X71780087Y-129820615D01*
X71847191Y-129804505D01*
X71863345Y-129797814D01*
X72076528Y-129709511D01*
X72076532Y-129709509D01*
X72081102Y-129707616D01*
X72269677Y-129592057D01*
X139156700Y-129592057D01*
X139163455Y-129654239D01*
X139214585Y-129790628D01*
X139301939Y-129907184D01*
X139418495Y-129994538D01*
X139554884Y-130045668D01*
X139617066Y-130052423D01*
X141713334Y-130052423D01*
X141775516Y-130045668D01*
X141911905Y-129994538D01*
X142028461Y-129907184D01*
X142115815Y-129790628D01*
X142166945Y-129654239D01*
X142173700Y-129592057D01*
X142173700Y-127495789D01*
X142166945Y-127433607D01*
X142115815Y-127297218D01*
X142028461Y-127180662D01*
X141911905Y-127093308D01*
X141775516Y-127042178D01*
X141713334Y-127035423D01*
X139617066Y-127035423D01*
X139554884Y-127042178D01*
X139418495Y-127093308D01*
X139301939Y-127180662D01*
X139214585Y-127297218D01*
X139163455Y-127433607D01*
X139156700Y-127495789D01*
X139156700Y-129592057D01*
X72269677Y-129592057D01*
X72296976Y-129575328D01*
X72489498Y-129410898D01*
X72653928Y-129218376D01*
X72786216Y-129002502D01*
X72883105Y-128768591D01*
X72942209Y-128522403D01*
X72962074Y-128270000D01*
X72942209Y-128017597D01*
X72920501Y-127927173D01*
X72903421Y-127856032D01*
X72883105Y-127771409D01*
X72836512Y-127658923D01*
X72788111Y-127542072D01*
X72788109Y-127542068D01*
X72786216Y-127537498D01*
X72653928Y-127321624D01*
X72489498Y-127129102D01*
X72296976Y-126964672D01*
X72081102Y-126832384D01*
X72076532Y-126830491D01*
X72076528Y-126830489D01*
X71851764Y-126737389D01*
X71851762Y-126737388D01*
X71847191Y-126735495D01*
X71762568Y-126715179D01*
X71605816Y-126677546D01*
X71605810Y-126677545D01*
X71601003Y-126676391D01*
X71348600Y-126656526D01*
X71096197Y-126676391D01*
X71091390Y-126677545D01*
X71091384Y-126677546D01*
X70934632Y-126715179D01*
X70850009Y-126735495D01*
X70845438Y-126737388D01*
X70845436Y-126737389D01*
X70620672Y-126830489D01*
X70620668Y-126830491D01*
X70616098Y-126832384D01*
X70400224Y-126964672D01*
X70207702Y-127129102D01*
X70043272Y-127321624D01*
X69910984Y-127537498D01*
X69909091Y-127542068D01*
X69909089Y-127542072D01*
X69860688Y-127658923D01*
X69814095Y-127771409D01*
X69793779Y-127856032D01*
X69776700Y-127927173D01*
X69754991Y-128017597D01*
X69735126Y-128270000D01*
X62797100Y-128270000D01*
X62797100Y-127121866D01*
X62790345Y-127059684D01*
X62739215Y-126923295D01*
X62651861Y-126806739D01*
X62535305Y-126719385D01*
X62398916Y-126668255D01*
X62336734Y-126661500D01*
X60040466Y-126661500D01*
X59978284Y-126668255D01*
X59841895Y-126719385D01*
X59725339Y-126806739D01*
X59637985Y-126923295D01*
X59586855Y-127059684D01*
X59580100Y-127121866D01*
X59580100Y-129418134D01*
X53340000Y-129418134D01*
X53340000Y-121666000D01*
X67625635Y-121666000D01*
X67644265Y-121902711D01*
X67645419Y-121907518D01*
X67645420Y-121907524D01*
X67660891Y-121971963D01*
X67699695Y-122133594D01*
X67701588Y-122138165D01*
X67701589Y-122138167D01*
X67718744Y-122179582D01*
X67790560Y-122352963D01*
X67793146Y-122357183D01*
X67912041Y-122551202D01*
X67912045Y-122551208D01*
X67914624Y-122555416D01*
X68068831Y-122735969D01*
X68249384Y-122890176D01*
X68253592Y-122892755D01*
X68253598Y-122892759D01*
X68447617Y-123011654D01*
X68451837Y-123014240D01*
X68456407Y-123016133D01*
X68456411Y-123016135D01*
X68666633Y-123103211D01*
X68671206Y-123105105D01*
X68751409Y-123124360D01*
X68897276Y-123159380D01*
X68897282Y-123159381D01*
X68902089Y-123160535D01*
X69138800Y-123179165D01*
X69375511Y-123160535D01*
X69380318Y-123159381D01*
X69380324Y-123159380D01*
X69526191Y-123124360D01*
X69606394Y-123105105D01*
X69610967Y-123103211D01*
X69821189Y-123016135D01*
X69821193Y-123016133D01*
X69825763Y-123014240D01*
X69829983Y-123011654D01*
X70024002Y-122892759D01*
X70024008Y-122892755D01*
X70028216Y-122890176D01*
X70208769Y-122735969D01*
X70362976Y-122555416D01*
X70365555Y-122551208D01*
X70365559Y-122551202D01*
X70484454Y-122357183D01*
X70487040Y-122352963D01*
X70558857Y-122179582D01*
X70576011Y-122138167D01*
X70576012Y-122138165D01*
X70577905Y-122133594D01*
X70616709Y-121971963D01*
X70632180Y-121907524D01*
X70632181Y-121907518D01*
X70633335Y-121902711D01*
X70651965Y-121666000D01*
X72477035Y-121666000D01*
X72495665Y-121902711D01*
X72496819Y-121907518D01*
X72496820Y-121907524D01*
X72512291Y-121971963D01*
X72551095Y-122133594D01*
X72552988Y-122138165D01*
X72552989Y-122138167D01*
X72570144Y-122179582D01*
X72641960Y-122352963D01*
X72644546Y-122357183D01*
X72763441Y-122551202D01*
X72763445Y-122551208D01*
X72766024Y-122555416D01*
X72920231Y-122735969D01*
X73100784Y-122890176D01*
X73104992Y-122892755D01*
X73104998Y-122892759D01*
X73299017Y-123011654D01*
X73303237Y-123014240D01*
X73307807Y-123016133D01*
X73307811Y-123016135D01*
X73518033Y-123103211D01*
X73522606Y-123105105D01*
X73602809Y-123124360D01*
X73748676Y-123159380D01*
X73748682Y-123159381D01*
X73753489Y-123160535D01*
X73990200Y-123179165D01*
X74226911Y-123160535D01*
X74231718Y-123159381D01*
X74231724Y-123159380D01*
X74377591Y-123124360D01*
X74457794Y-123105105D01*
X74462367Y-123103211D01*
X74672589Y-123016135D01*
X74672593Y-123016133D01*
X74677163Y-123014240D01*
X74681383Y-123011654D01*
X74875402Y-122892759D01*
X74875408Y-122892755D01*
X74879616Y-122890176D01*
X75060169Y-122735969D01*
X75214376Y-122555416D01*
X75216955Y-122551208D01*
X75216959Y-122551202D01*
X75335854Y-122357183D01*
X75338440Y-122352963D01*
X75410257Y-122179582D01*
X75427411Y-122138167D01*
X75427412Y-122138165D01*
X75429305Y-122133594D01*
X75468109Y-121971963D01*
X75483580Y-121907524D01*
X75483581Y-121907518D01*
X75484735Y-121902711D01*
X75499367Y-121716800D01*
X77430035Y-121716800D01*
X77448665Y-121953511D01*
X77449819Y-121958318D01*
X77449820Y-121958324D01*
X77454108Y-121976183D01*
X77504095Y-122184394D01*
X77505988Y-122188965D01*
X77505989Y-122188967D01*
X77576078Y-122358177D01*
X77594960Y-122403763D01*
X77597546Y-122407983D01*
X77716441Y-122602002D01*
X77716445Y-122602008D01*
X77719024Y-122606216D01*
X77873231Y-122786769D01*
X78053784Y-122940976D01*
X78057992Y-122943555D01*
X78057998Y-122943559D01*
X78252017Y-123062454D01*
X78256237Y-123065040D01*
X78260807Y-123066933D01*
X78260811Y-123066935D01*
X78471033Y-123154011D01*
X78475606Y-123155905D01*
X78496508Y-123160923D01*
X78701676Y-123210180D01*
X78701682Y-123210181D01*
X78706489Y-123211335D01*
X78943200Y-123229965D01*
X79179911Y-123211335D01*
X79184718Y-123210181D01*
X79184724Y-123210180D01*
X79389892Y-123160923D01*
X79410794Y-123155905D01*
X79415367Y-123154011D01*
X79625589Y-123066935D01*
X79625593Y-123066933D01*
X79630163Y-123065040D01*
X79634383Y-123062454D01*
X79828402Y-122943559D01*
X79828408Y-122943555D01*
X79832616Y-122940976D01*
X80013169Y-122786769D01*
X80167376Y-122606216D01*
X80169955Y-122602008D01*
X80169959Y-122602002D01*
X80288854Y-122407983D01*
X80291440Y-122403763D01*
X80310323Y-122358177D01*
X80380411Y-122188967D01*
X80380412Y-122188965D01*
X80382305Y-122184394D01*
X80432292Y-121976183D01*
X80436580Y-121958324D01*
X80436581Y-121958318D01*
X80437735Y-121953511D01*
X80456365Y-121716800D01*
X80437735Y-121480089D01*
X80390898Y-121285000D01*
X150251835Y-121285000D01*
X150270465Y-121521711D01*
X150325895Y-121752594D01*
X150327788Y-121757165D01*
X150327789Y-121757167D01*
X150411111Y-121958324D01*
X150416760Y-121971963D01*
X150419346Y-121976183D01*
X150538241Y-122170202D01*
X150538245Y-122170208D01*
X150540824Y-122174416D01*
X150695031Y-122354969D01*
X150875584Y-122509176D01*
X150879792Y-122511755D01*
X150879798Y-122511759D01*
X151027061Y-122602002D01*
X151078037Y-122633240D01*
X151082607Y-122635133D01*
X151082611Y-122635135D01*
X151292833Y-122722211D01*
X151297406Y-122724105D01*
X151360186Y-122739177D01*
X151523476Y-122778380D01*
X151523482Y-122778381D01*
X151528289Y-122779535D01*
X151765000Y-122798165D01*
X152001711Y-122779535D01*
X152006518Y-122778381D01*
X152006524Y-122778380D01*
X152169814Y-122739177D01*
X152232594Y-122724105D01*
X152237167Y-122722211D01*
X152447389Y-122635135D01*
X152447393Y-122635133D01*
X152451963Y-122633240D01*
X152502939Y-122602002D01*
X152650202Y-122511759D01*
X152650208Y-122511755D01*
X152654416Y-122509176D01*
X152834969Y-122354969D01*
X152989176Y-122174416D01*
X152991755Y-122170208D01*
X152991759Y-122170202D01*
X153110654Y-121976183D01*
X153113240Y-121971963D01*
X153118890Y-121958324D01*
X153202211Y-121757167D01*
X153202212Y-121757165D01*
X153204105Y-121752594D01*
X153259535Y-121521711D01*
X153278165Y-121285000D01*
X153259535Y-121048289D01*
X153256204Y-121034411D01*
X153207512Y-120831598D01*
X153204105Y-120817406D01*
X153133451Y-120646831D01*
X153115135Y-120602611D01*
X153115133Y-120602607D01*
X153113240Y-120598037D01*
X153110045Y-120592823D01*
X152991759Y-120399798D01*
X152991755Y-120399792D01*
X152989176Y-120395584D01*
X152834969Y-120215031D01*
X152654416Y-120060824D01*
X152650208Y-120058245D01*
X152650202Y-120058241D01*
X152456183Y-119939346D01*
X152451963Y-119936760D01*
X152447393Y-119934867D01*
X152447389Y-119934865D01*
X152237167Y-119847789D01*
X152237165Y-119847788D01*
X152232594Y-119845895D01*
X152152391Y-119826640D01*
X152006524Y-119791620D01*
X152006518Y-119791619D01*
X152001711Y-119790465D01*
X151765000Y-119771835D01*
X151528289Y-119790465D01*
X151523482Y-119791619D01*
X151523476Y-119791620D01*
X151377609Y-119826640D01*
X151297406Y-119845895D01*
X151292835Y-119847788D01*
X151292833Y-119847789D01*
X151082611Y-119934865D01*
X151082607Y-119934867D01*
X151078037Y-119936760D01*
X151073817Y-119939346D01*
X150879798Y-120058241D01*
X150879792Y-120058245D01*
X150875584Y-120060824D01*
X150695031Y-120215031D01*
X150540824Y-120395584D01*
X150538245Y-120399792D01*
X150538241Y-120399798D01*
X150419955Y-120592823D01*
X150416760Y-120598037D01*
X150414867Y-120602607D01*
X150414865Y-120602611D01*
X150396549Y-120646831D01*
X150325895Y-120817406D01*
X150322488Y-120831598D01*
X150273797Y-121034411D01*
X150270465Y-121048289D01*
X150251835Y-121285000D01*
X80390898Y-121285000D01*
X80382305Y-121249206D01*
X80380411Y-121244633D01*
X80293335Y-121034411D01*
X80293333Y-121034407D01*
X80291440Y-121029837D01*
X80257724Y-120974817D01*
X80169959Y-120831598D01*
X80169955Y-120831592D01*
X80167376Y-120827384D01*
X80013169Y-120646831D01*
X79832616Y-120492624D01*
X79828408Y-120490045D01*
X79828402Y-120490041D01*
X79634383Y-120371146D01*
X79630163Y-120368560D01*
X79625593Y-120366667D01*
X79625589Y-120366665D01*
X79415367Y-120279589D01*
X79415365Y-120279588D01*
X79410794Y-120277695D01*
X79305887Y-120252509D01*
X79184724Y-120223420D01*
X79184718Y-120223419D01*
X79179911Y-120222265D01*
X78943200Y-120203635D01*
X78706489Y-120222265D01*
X78701682Y-120223419D01*
X78701676Y-120223420D01*
X78580513Y-120252509D01*
X78475606Y-120277695D01*
X78471035Y-120279588D01*
X78471033Y-120279589D01*
X78260811Y-120366665D01*
X78260807Y-120366667D01*
X78256237Y-120368560D01*
X78252017Y-120371146D01*
X78057998Y-120490041D01*
X78057992Y-120490045D01*
X78053784Y-120492624D01*
X77873231Y-120646831D01*
X77719024Y-120827384D01*
X77716445Y-120831592D01*
X77716441Y-120831598D01*
X77628676Y-120974817D01*
X77594960Y-121029837D01*
X77593067Y-121034407D01*
X77593065Y-121034411D01*
X77505989Y-121244633D01*
X77504095Y-121249206D01*
X77448665Y-121480089D01*
X77430035Y-121716800D01*
X75499367Y-121716800D01*
X75503365Y-121666000D01*
X75484735Y-121429289D01*
X75429305Y-121198406D01*
X75367125Y-121048289D01*
X75340335Y-120983611D01*
X75340333Y-120983607D01*
X75338440Y-120979037D01*
X75248089Y-120831598D01*
X75216959Y-120780798D01*
X75216955Y-120780792D01*
X75214376Y-120776584D01*
X75060169Y-120596031D01*
X74879616Y-120441824D01*
X74875408Y-120439245D01*
X74875402Y-120439241D01*
X74681383Y-120320346D01*
X74677163Y-120317760D01*
X74672593Y-120315867D01*
X74672589Y-120315865D01*
X74462367Y-120228789D01*
X74462365Y-120228788D01*
X74457794Y-120226895D01*
X74328445Y-120195841D01*
X74231724Y-120172620D01*
X74231718Y-120172619D01*
X74226911Y-120171465D01*
X73990200Y-120152835D01*
X73753489Y-120171465D01*
X73748682Y-120172619D01*
X73748676Y-120172620D01*
X73651955Y-120195841D01*
X73522606Y-120226895D01*
X73518035Y-120228788D01*
X73518033Y-120228789D01*
X73307811Y-120315865D01*
X73307807Y-120315867D01*
X73303237Y-120317760D01*
X73299017Y-120320346D01*
X73104998Y-120439241D01*
X73104992Y-120439245D01*
X73100784Y-120441824D01*
X72920231Y-120596031D01*
X72766024Y-120776584D01*
X72763445Y-120780792D01*
X72763441Y-120780798D01*
X72732311Y-120831598D01*
X72641960Y-120979037D01*
X72640067Y-120983607D01*
X72640065Y-120983611D01*
X72613275Y-121048289D01*
X72551095Y-121198406D01*
X72495665Y-121429289D01*
X72477035Y-121666000D01*
X70651965Y-121666000D01*
X70633335Y-121429289D01*
X70577905Y-121198406D01*
X70515725Y-121048289D01*
X70488935Y-120983611D01*
X70488933Y-120983607D01*
X70487040Y-120979037D01*
X70396689Y-120831598D01*
X70365559Y-120780798D01*
X70365555Y-120780792D01*
X70362976Y-120776584D01*
X70208769Y-120596031D01*
X70028216Y-120441824D01*
X70024008Y-120439245D01*
X70024002Y-120439241D01*
X69829983Y-120320346D01*
X69825763Y-120317760D01*
X69821193Y-120315867D01*
X69821189Y-120315865D01*
X69610967Y-120228789D01*
X69610965Y-120228788D01*
X69606394Y-120226895D01*
X69477045Y-120195841D01*
X69380324Y-120172620D01*
X69380318Y-120172619D01*
X69375511Y-120171465D01*
X69138800Y-120152835D01*
X68902089Y-120171465D01*
X68897282Y-120172619D01*
X68897276Y-120172620D01*
X68800555Y-120195841D01*
X68671206Y-120226895D01*
X68666635Y-120228788D01*
X68666633Y-120228789D01*
X68456411Y-120315865D01*
X68456407Y-120315867D01*
X68451837Y-120317760D01*
X68447617Y-120320346D01*
X68253598Y-120439241D01*
X68253592Y-120439245D01*
X68249384Y-120441824D01*
X68068831Y-120596031D01*
X67914624Y-120776584D01*
X67912045Y-120780792D01*
X67912041Y-120780798D01*
X67880911Y-120831598D01*
X67790560Y-120979037D01*
X67788667Y-120983607D01*
X67788665Y-120983611D01*
X67761875Y-121048289D01*
X67699695Y-121198406D01*
X67644265Y-121429289D01*
X67625635Y-121666000D01*
X53340000Y-121666000D01*
X53340000Y-118266718D01*
X110860117Y-118266718D01*
X110875882Y-118540120D01*
X110876707Y-118544325D01*
X110876708Y-118544333D01*
X110887327Y-118598457D01*
X110928605Y-118808853D01*
X110929992Y-118812903D01*
X110929993Y-118812908D01*
X110950805Y-118873695D01*
X111017312Y-119067944D01*
X111140360Y-119312599D01*
X111142786Y-119316128D01*
X111142789Y-119316134D01*
X111244250Y-119463759D01*
X111295474Y-119538290D01*
X111479782Y-119740843D01*
X111483077Y-119743598D01*
X111483078Y-119743599D01*
X111539130Y-119790465D01*
X111689875Y-119916507D01*
X111693516Y-119918791D01*
X111918224Y-120059751D01*
X111918228Y-120059753D01*
X111921864Y-120062034D01*
X111989744Y-120092683D01*
X112167545Y-120172964D01*
X112167549Y-120172966D01*
X112171457Y-120174730D01*
X112175577Y-120175950D01*
X112175576Y-120175950D01*
X112429923Y-120251291D01*
X112429927Y-120251292D01*
X112434036Y-120252509D01*
X112438270Y-120253157D01*
X112438275Y-120253158D01*
X112700498Y-120293283D01*
X112700500Y-120293283D01*
X112704740Y-120293932D01*
X112844112Y-120296122D01*
X112974271Y-120298167D01*
X112974277Y-120298167D01*
X112978562Y-120298234D01*
X113250435Y-120265334D01*
X113515327Y-120195841D01*
X113519287Y-120194201D01*
X113519292Y-120194199D01*
X113641832Y-120143441D01*
X113768336Y-120091041D01*
X114004782Y-119952873D01*
X114220289Y-119783894D01*
X114262009Y-119740843D01*
X114407886Y-119590309D01*
X114410869Y-119587231D01*
X114413402Y-119583783D01*
X114413406Y-119583778D01*
X114570457Y-119369978D01*
X114572995Y-119366523D01*
X114600354Y-119316134D01*
X114701618Y-119129630D01*
X114701619Y-119129628D01*
X114703668Y-119125854D01*
X114752069Y-118997765D01*
X114798951Y-118873695D01*
X114798952Y-118873691D01*
X114800469Y-118869677D01*
X114825307Y-118761227D01*
X114860649Y-118606917D01*
X114860650Y-118606913D01*
X114861607Y-118602733D01*
X114885951Y-118329961D01*
X114886393Y-118287800D01*
X114884956Y-118266718D01*
X129360117Y-118266718D01*
X129375882Y-118540120D01*
X129376707Y-118544325D01*
X129376708Y-118544333D01*
X129387327Y-118598457D01*
X129428605Y-118808853D01*
X129429992Y-118812903D01*
X129429993Y-118812908D01*
X129450805Y-118873695D01*
X129517312Y-119067944D01*
X129640360Y-119312599D01*
X129642786Y-119316128D01*
X129642789Y-119316134D01*
X129744250Y-119463759D01*
X129795474Y-119538290D01*
X129979782Y-119740843D01*
X129983077Y-119743598D01*
X129983078Y-119743599D01*
X130039130Y-119790465D01*
X130189875Y-119916507D01*
X130193516Y-119918791D01*
X130418224Y-120059751D01*
X130418228Y-120059753D01*
X130421864Y-120062034D01*
X130489744Y-120092683D01*
X130667545Y-120172964D01*
X130667549Y-120172966D01*
X130671457Y-120174730D01*
X130675577Y-120175950D01*
X130675576Y-120175950D01*
X130929923Y-120251291D01*
X130929927Y-120251292D01*
X130934036Y-120252509D01*
X130938270Y-120253157D01*
X130938275Y-120253158D01*
X131200498Y-120293283D01*
X131200500Y-120293283D01*
X131204740Y-120293932D01*
X131344112Y-120296122D01*
X131474271Y-120298167D01*
X131474277Y-120298167D01*
X131478562Y-120298234D01*
X131750435Y-120265334D01*
X132015327Y-120195841D01*
X132019287Y-120194201D01*
X132019292Y-120194199D01*
X132141832Y-120143441D01*
X132268336Y-120091041D01*
X132504782Y-119952873D01*
X132720289Y-119783894D01*
X132762009Y-119740843D01*
X132907886Y-119590309D01*
X132910869Y-119587231D01*
X132913402Y-119583783D01*
X132913406Y-119583778D01*
X133070457Y-119369978D01*
X133072995Y-119366523D01*
X133100354Y-119316134D01*
X133201618Y-119129630D01*
X133201619Y-119129628D01*
X133203668Y-119125854D01*
X133252069Y-118997765D01*
X133298951Y-118873695D01*
X133298952Y-118873691D01*
X133300469Y-118869677D01*
X133325307Y-118761227D01*
X133360649Y-118606917D01*
X133360650Y-118606913D01*
X133361607Y-118602733D01*
X133385951Y-118329961D01*
X133386393Y-118287800D01*
X133382930Y-118237000D01*
X134757835Y-118237000D01*
X134776465Y-118473711D01*
X134831895Y-118704594D01*
X134833788Y-118709165D01*
X134833789Y-118709167D01*
X134873338Y-118804646D01*
X134922760Y-118923963D01*
X134925346Y-118928183D01*
X135044241Y-119122202D01*
X135044245Y-119122208D01*
X135046824Y-119126416D01*
X135201031Y-119306969D01*
X135381584Y-119461176D01*
X135385792Y-119463755D01*
X135385798Y-119463759D01*
X135501650Y-119534753D01*
X135584037Y-119585240D01*
X135588607Y-119587133D01*
X135588611Y-119587135D01*
X135798833Y-119674211D01*
X135803406Y-119676105D01*
X135883609Y-119695360D01*
X136029476Y-119730380D01*
X136029482Y-119730381D01*
X136034289Y-119731535D01*
X136271000Y-119750165D01*
X136507711Y-119731535D01*
X136512518Y-119730381D01*
X136512524Y-119730380D01*
X136658391Y-119695360D01*
X136738594Y-119676105D01*
X136743167Y-119674211D01*
X136953389Y-119587135D01*
X136953393Y-119587133D01*
X136957963Y-119585240D01*
X137040350Y-119534753D01*
X137156202Y-119463759D01*
X137156208Y-119463755D01*
X137160416Y-119461176D01*
X137340969Y-119306969D01*
X137495176Y-119126416D01*
X137497755Y-119122208D01*
X137497759Y-119122202D01*
X137616654Y-118928183D01*
X137619240Y-118923963D01*
X137668663Y-118804646D01*
X137708211Y-118709167D01*
X137708212Y-118709165D01*
X137710105Y-118704594D01*
X137765535Y-118473711D01*
X137784165Y-118237000D01*
X137765535Y-118000289D01*
X137710105Y-117769406D01*
X137692183Y-117726137D01*
X137621135Y-117554611D01*
X137621133Y-117554607D01*
X137619240Y-117550037D01*
X137572024Y-117472988D01*
X137497759Y-117351798D01*
X137497755Y-117351792D01*
X137495176Y-117347584D01*
X137340969Y-117167031D01*
X137160416Y-117012824D01*
X137156208Y-117010245D01*
X137156202Y-117010241D01*
X136962183Y-116891346D01*
X136957963Y-116888760D01*
X136953393Y-116886867D01*
X136953389Y-116886865D01*
X136743167Y-116799789D01*
X136743165Y-116799788D01*
X136738594Y-116797895D01*
X136655629Y-116777977D01*
X136512524Y-116743620D01*
X136512518Y-116743619D01*
X136507711Y-116742465D01*
X136271000Y-116723835D01*
X136034289Y-116742465D01*
X136029482Y-116743619D01*
X136029476Y-116743620D01*
X135886371Y-116777977D01*
X135803406Y-116797895D01*
X135798835Y-116799788D01*
X135798833Y-116799789D01*
X135588611Y-116886865D01*
X135588607Y-116886867D01*
X135584037Y-116888760D01*
X135579817Y-116891346D01*
X135385798Y-117010241D01*
X135385792Y-117010245D01*
X135381584Y-117012824D01*
X135201031Y-117167031D01*
X135046824Y-117347584D01*
X135044245Y-117351792D01*
X135044241Y-117351798D01*
X134969976Y-117472988D01*
X134922760Y-117550037D01*
X134920867Y-117554607D01*
X134920865Y-117554611D01*
X134849817Y-117726137D01*
X134831895Y-117769406D01*
X134776465Y-118000289D01*
X134757835Y-118237000D01*
X133382930Y-118237000D01*
X133367767Y-118014578D01*
X133312232Y-117746412D01*
X133220817Y-117488265D01*
X133095213Y-117244912D01*
X133085240Y-117230721D01*
X132940208Y-117024362D01*
X132937745Y-117020857D01*
X132751325Y-116820245D01*
X132748010Y-116817531D01*
X132748006Y-116817528D01*
X132542723Y-116649506D01*
X132539405Y-116646790D01*
X132305904Y-116503701D01*
X132301968Y-116501973D01*
X132059073Y-116395349D01*
X132059069Y-116395348D01*
X132055145Y-116393625D01*
X131791766Y-116318600D01*
X131787524Y-116317996D01*
X131787518Y-116317995D01*
X131587034Y-116289462D01*
X131520643Y-116280013D01*
X131376789Y-116279260D01*
X131251077Y-116278602D01*
X131251071Y-116278602D01*
X131246791Y-116278580D01*
X131242547Y-116279139D01*
X131242543Y-116279139D01*
X131123502Y-116294811D01*
X130975278Y-116314325D01*
X130971138Y-116315458D01*
X130971136Y-116315458D01*
X130899085Y-116335169D01*
X130711128Y-116386588D01*
X130707180Y-116388272D01*
X130463182Y-116492346D01*
X130463178Y-116492348D01*
X130459230Y-116494032D01*
X130439325Y-116505945D01*
X130227925Y-116632464D01*
X130227921Y-116632467D01*
X130224243Y-116634668D01*
X130010518Y-116805894D01*
X129822008Y-117004542D01*
X129662202Y-117226936D01*
X129534057Y-117468961D01*
X129532585Y-117472984D01*
X129532583Y-117472988D01*
X129525514Y-117492306D01*
X129439943Y-117726137D01*
X129381604Y-117993707D01*
X129360117Y-118266718D01*
X114884956Y-118266718D01*
X114867767Y-118014578D01*
X114812232Y-117746412D01*
X114720817Y-117488265D01*
X114595213Y-117244912D01*
X114585240Y-117230721D01*
X114440208Y-117024362D01*
X114437745Y-117020857D01*
X114251325Y-116820245D01*
X114248010Y-116817531D01*
X114248006Y-116817528D01*
X114042723Y-116649506D01*
X114039405Y-116646790D01*
X113805904Y-116503701D01*
X113801968Y-116501973D01*
X113559073Y-116395349D01*
X113559069Y-116395348D01*
X113555145Y-116393625D01*
X113291766Y-116318600D01*
X113287524Y-116317996D01*
X113287518Y-116317995D01*
X113087034Y-116289462D01*
X113020643Y-116280013D01*
X112876789Y-116279260D01*
X112751077Y-116278602D01*
X112751071Y-116278602D01*
X112746791Y-116278580D01*
X112742547Y-116279139D01*
X112742543Y-116279139D01*
X112623502Y-116294811D01*
X112475278Y-116314325D01*
X112471138Y-116315458D01*
X112471136Y-116315458D01*
X112399085Y-116335169D01*
X112211128Y-116386588D01*
X112207180Y-116388272D01*
X111963182Y-116492346D01*
X111963178Y-116492348D01*
X111959230Y-116494032D01*
X111939325Y-116505945D01*
X111727925Y-116632464D01*
X111727921Y-116632467D01*
X111724243Y-116634668D01*
X111510518Y-116805894D01*
X111322008Y-117004542D01*
X111162202Y-117226936D01*
X111034057Y-117468961D01*
X111032585Y-117472984D01*
X111032583Y-117472988D01*
X111025514Y-117492306D01*
X110939943Y-117726137D01*
X110881604Y-117993707D01*
X110860117Y-118266718D01*
X53340000Y-118266718D01*
X53340000Y-115265200D01*
X87742435Y-115265200D01*
X87761065Y-115501911D01*
X87816495Y-115732794D01*
X87907360Y-115952163D01*
X87909946Y-115956383D01*
X88028841Y-116150402D01*
X88028845Y-116150408D01*
X88031424Y-116154616D01*
X88185631Y-116335169D01*
X88366184Y-116489376D01*
X88370392Y-116491955D01*
X88370398Y-116491959D01*
X88564417Y-116610854D01*
X88568637Y-116613440D01*
X88573207Y-116615333D01*
X88573211Y-116615335D01*
X88783433Y-116702411D01*
X88788006Y-116704305D01*
X88868209Y-116723560D01*
X89014076Y-116758580D01*
X89014082Y-116758581D01*
X89018889Y-116759735D01*
X89255600Y-116778365D01*
X89492311Y-116759735D01*
X89497118Y-116758581D01*
X89497124Y-116758580D01*
X89642991Y-116723560D01*
X89723194Y-116704305D01*
X89727767Y-116702411D01*
X89937989Y-116615335D01*
X89937993Y-116615333D01*
X89942563Y-116613440D01*
X89946783Y-116610854D01*
X90140802Y-116491959D01*
X90140808Y-116491955D01*
X90145016Y-116489376D01*
X90325569Y-116335169D01*
X90479776Y-116154616D01*
X90482355Y-116150408D01*
X90482359Y-116150402D01*
X90601254Y-115956383D01*
X90603840Y-115952163D01*
X90694705Y-115732794D01*
X90750135Y-115501911D01*
X90768765Y-115265200D01*
X90750135Y-115028489D01*
X90694705Y-114797606D01*
X90603840Y-114578237D01*
X90601254Y-114574017D01*
X90482359Y-114379998D01*
X90482355Y-114379992D01*
X90479776Y-114375784D01*
X90325569Y-114195231D01*
X90145016Y-114041024D01*
X90140808Y-114038445D01*
X90140802Y-114038441D01*
X89946783Y-113919546D01*
X89942563Y-113916960D01*
X89937993Y-113915067D01*
X89937989Y-113915065D01*
X89727767Y-113827989D01*
X89727765Y-113827988D01*
X89723194Y-113826095D01*
X89642991Y-113806840D01*
X89497124Y-113771820D01*
X89497118Y-113771819D01*
X89492311Y-113770665D01*
X89255600Y-113752035D01*
X89018889Y-113770665D01*
X89014082Y-113771819D01*
X89014076Y-113771820D01*
X88868209Y-113806840D01*
X88788006Y-113826095D01*
X88783435Y-113827988D01*
X88783433Y-113827989D01*
X88573211Y-113915065D01*
X88573207Y-113915067D01*
X88568637Y-113916960D01*
X88564417Y-113919546D01*
X88370398Y-114038441D01*
X88370392Y-114038445D01*
X88366184Y-114041024D01*
X88185631Y-114195231D01*
X88031424Y-114375784D01*
X88028845Y-114379992D01*
X88028841Y-114379998D01*
X87909946Y-114574017D01*
X87907360Y-114578237D01*
X87816495Y-114797606D01*
X87761065Y-115028489D01*
X87742435Y-115265200D01*
X53340000Y-115265200D01*
X53340000Y-111506000D01*
X61428035Y-111506000D01*
X61446665Y-111742711D01*
X61447819Y-111747518D01*
X61447820Y-111747524D01*
X61470112Y-111840375D01*
X61502095Y-111973594D01*
X61503988Y-111978165D01*
X61503989Y-111978167D01*
X61587830Y-112180577D01*
X61592960Y-112192963D01*
X61595546Y-112197183D01*
X61714441Y-112391202D01*
X61714445Y-112391208D01*
X61717024Y-112395416D01*
X61871231Y-112575969D01*
X62051784Y-112730176D01*
X62055992Y-112732755D01*
X62055998Y-112732759D01*
X62219089Y-112832701D01*
X62254237Y-112854240D01*
X62258807Y-112856133D01*
X62258811Y-112856135D01*
X62469033Y-112943211D01*
X62473606Y-112945105D01*
X62553809Y-112964360D01*
X62699676Y-112999380D01*
X62699682Y-112999381D01*
X62704489Y-113000535D01*
X62941200Y-113019165D01*
X63177911Y-113000535D01*
X63182718Y-112999381D01*
X63182724Y-112999380D01*
X63328591Y-112964360D01*
X63408794Y-112945105D01*
X63413367Y-112943211D01*
X63623589Y-112856135D01*
X63623593Y-112856133D01*
X63628163Y-112854240D01*
X63663311Y-112832701D01*
X63826402Y-112732759D01*
X63826408Y-112732755D01*
X63830616Y-112730176D01*
X64011169Y-112575969D01*
X64165376Y-112395416D01*
X64167955Y-112391208D01*
X64167959Y-112391202D01*
X64286854Y-112197183D01*
X64289440Y-112192963D01*
X64294571Y-112180577D01*
X64378411Y-111978167D01*
X64378412Y-111978165D01*
X64380305Y-111973594D01*
X64412288Y-111840375D01*
X64434580Y-111747524D01*
X64434581Y-111747518D01*
X64435735Y-111742711D01*
X64454365Y-111506000D01*
X64435735Y-111269289D01*
X64430610Y-111247939D01*
X64399560Y-111118609D01*
X64380305Y-111038406D01*
X64348674Y-110962042D01*
X64291335Y-110823611D01*
X64291333Y-110823607D01*
X64289440Y-110819037D01*
X64223305Y-110711115D01*
X64167959Y-110620798D01*
X64167955Y-110620792D01*
X64165376Y-110616584D01*
X64011169Y-110436031D01*
X63830616Y-110281824D01*
X63826408Y-110279245D01*
X63826402Y-110279241D01*
X63632383Y-110160346D01*
X63628163Y-110157760D01*
X63623593Y-110155867D01*
X63623589Y-110155865D01*
X63413367Y-110068789D01*
X63413365Y-110068788D01*
X63408794Y-110066895D01*
X63328591Y-110047640D01*
X63182724Y-110012620D01*
X63182718Y-110012619D01*
X63177911Y-110011465D01*
X62941200Y-109992835D01*
X62704489Y-110011465D01*
X62699682Y-110012619D01*
X62699676Y-110012620D01*
X62553809Y-110047640D01*
X62473606Y-110066895D01*
X62469035Y-110068788D01*
X62469033Y-110068789D01*
X62258811Y-110155865D01*
X62258807Y-110155867D01*
X62254237Y-110157760D01*
X62250017Y-110160346D01*
X62055998Y-110279241D01*
X62055992Y-110279245D01*
X62051784Y-110281824D01*
X61871231Y-110436031D01*
X61717024Y-110616584D01*
X61714445Y-110620792D01*
X61714441Y-110620798D01*
X61659095Y-110711115D01*
X61592960Y-110819037D01*
X61591067Y-110823607D01*
X61591065Y-110823611D01*
X61533726Y-110962042D01*
X61502095Y-111038406D01*
X61482840Y-111118609D01*
X61451791Y-111247939D01*
X61446665Y-111269289D01*
X61428035Y-111506000D01*
X53340000Y-111506000D01*
X53340000Y-106705400D01*
X72402126Y-106705400D01*
X72421991Y-106957803D01*
X72423145Y-106962610D01*
X72423146Y-106962616D01*
X72450492Y-107076521D01*
X72481095Y-107203991D01*
X72482988Y-107208562D01*
X72482989Y-107208564D01*
X72559433Y-107393115D01*
X72577984Y-107437902D01*
X72710272Y-107653776D01*
X72874702Y-107846298D01*
X73067224Y-108010728D01*
X73283098Y-108143016D01*
X73287668Y-108144909D01*
X73287672Y-108144911D01*
X73373935Y-108180642D01*
X73517009Y-108239905D01*
X73584113Y-108256015D01*
X73758384Y-108297854D01*
X73758390Y-108297855D01*
X73763197Y-108299009D01*
X74015600Y-108318874D01*
X74268003Y-108299009D01*
X74272810Y-108297855D01*
X74272816Y-108297854D01*
X74447087Y-108256015D01*
X74514191Y-108239905D01*
X74657265Y-108180642D01*
X74743528Y-108144911D01*
X74743532Y-108144909D01*
X74748102Y-108143016D01*
X74873284Y-108066304D01*
X80385638Y-108066304D01*
X80386175Y-108072439D01*
X80390046Y-108116689D01*
X80390375Y-108121518D01*
X80390500Y-108124072D01*
X80390500Y-108127157D01*
X80390801Y-108130223D01*
X80394722Y-108170219D01*
X80394844Y-108171532D01*
X80398352Y-108211629D01*
X80403012Y-108264892D01*
X80404511Y-108270052D01*
X80405035Y-108275394D01*
X80424249Y-108339032D01*
X80432098Y-108365031D01*
X80432455Y-108366236D01*
X80458628Y-108456322D01*
X80461100Y-108461090D01*
X80462652Y-108466232D01*
X80465547Y-108471677D01*
X80465550Y-108471684D01*
X80506633Y-108548950D01*
X80507213Y-108550054D01*
X80550366Y-108633304D01*
X80553718Y-108637503D01*
X80556239Y-108642244D01*
X80560131Y-108647016D01*
X80615438Y-108714829D01*
X80616266Y-108715855D01*
X80645571Y-108752564D01*
X80647768Y-108755316D01*
X80650263Y-108757811D01*
X80650973Y-108758605D01*
X80654693Y-108762960D01*
X80678337Y-108791951D01*
X80678340Y-108791954D01*
X80682232Y-108796726D01*
X80686980Y-108800654D01*
X80686981Y-108800655D01*
X80717873Y-108826211D01*
X80726652Y-108834200D01*
X84533693Y-112641241D01*
X84648790Y-112735782D01*
X84654217Y-112738692D01*
X84654220Y-112738694D01*
X84752370Y-112791322D01*
X84824474Y-112829984D01*
X84910010Y-112856135D01*
X85009211Y-112886464D01*
X85009213Y-112886464D01*
X85015109Y-112888267D01*
X85043712Y-112891172D01*
X85207307Y-112907790D01*
X85207312Y-112907790D01*
X85213435Y-112908412D01*
X85411896Y-112889652D01*
X85602934Y-112832701D01*
X85608382Y-112829829D01*
X85608386Y-112829827D01*
X85691687Y-112785907D01*
X85779271Y-112739729D01*
X85787879Y-112732759D01*
X85929402Y-112618156D01*
X85929403Y-112618155D01*
X85934192Y-112614277D01*
X86061796Y-112461122D01*
X86072155Y-112442123D01*
X86154272Y-112291507D01*
X86157220Y-112286100D01*
X86204927Y-112133869D01*
X91590687Y-112133869D01*
X91594938Y-112180577D01*
X91605156Y-112292854D01*
X91608754Y-112332395D01*
X91610495Y-112338309D01*
X91610495Y-112338311D01*
X91640595Y-112440580D01*
X91665038Y-112523630D01*
X91757394Y-112700291D01*
X91882305Y-112855649D01*
X92035013Y-112983786D01*
X92209701Y-113079821D01*
X92215568Y-113081682D01*
X92215570Y-113081683D01*
X92393838Y-113138234D01*
X92393841Y-113138235D01*
X92399715Y-113140098D01*
X92554864Y-113157500D01*
X97242868Y-113157500D01*
X97279707Y-113163006D01*
X97393999Y-113197949D01*
X97461109Y-113218467D01*
X97467243Y-113219090D01*
X97653307Y-113237989D01*
X97653311Y-113237989D01*
X97659435Y-113238611D01*
X97857896Y-113219852D01*
X97863789Y-113218095D01*
X97863795Y-113218094D01*
X98043030Y-113164661D01*
X98043029Y-113164661D01*
X98048934Y-113162901D01*
X98054382Y-113160029D01*
X98054386Y-113160027D01*
X98141724Y-113113979D01*
X98225271Y-113069929D01*
X98380191Y-112944476D01*
X98384132Y-112939746D01*
X98384135Y-112939743D01*
X98503845Y-112796063D01*
X98503845Y-112796062D01*
X98507795Y-112791322D01*
X98510745Y-112785912D01*
X98510748Y-112785907D01*
X98600272Y-112621707D01*
X98603220Y-112616300D01*
X98662833Y-112426076D01*
X98665756Y-112399175D01*
X98683697Y-112234021D01*
X98683697Y-112234017D01*
X98684362Y-112227896D01*
X98666988Y-112029308D01*
X98665269Y-112023391D01*
X98665268Y-112023386D01*
X98613090Y-111843792D01*
X98611372Y-111837878D01*
X98519634Y-111660896D01*
X98422232Y-111538884D01*
X98349615Y-111466267D01*
X98340513Y-111456124D01*
X98320434Y-111431151D01*
X98316575Y-111426351D01*
X98277798Y-111393813D01*
X98274171Y-111390649D01*
X98272302Y-111388954D01*
X98270108Y-111386760D01*
X98236542Y-111359188D01*
X98235745Y-111358526D01*
X98163867Y-111298214D01*
X98159161Y-111295627D01*
X98155011Y-111292218D01*
X98149587Y-111289310D01*
X98149577Y-111289303D01*
X98072432Y-111247939D01*
X98071272Y-111247310D01*
X98006021Y-111211438D01*
X97989179Y-111202179D01*
X97984059Y-111200555D01*
X97979326Y-111198017D01*
X97889807Y-111170648D01*
X97888548Y-111170256D01*
X97805039Y-111143765D01*
X97805035Y-111143764D01*
X97799165Y-111141902D01*
X97793827Y-111141303D01*
X97788691Y-111139733D01*
X97782560Y-111139110D01*
X97782559Y-111139110D01*
X97763256Y-111137149D01*
X97695369Y-111130254D01*
X97694249Y-111130134D01*
X97644016Y-111124500D01*
X97640511Y-111124500D01*
X97639403Y-111124438D01*
X97633708Y-111123990D01*
X97596495Y-111120210D01*
X97596488Y-111120210D01*
X97590365Y-111119588D01*
X97544315Y-111123941D01*
X97532457Y-111124500D01*
X92561923Y-111124500D01*
X92558867Y-111124800D01*
X92558860Y-111124800D01*
X92504576Y-111130123D01*
X92413686Y-111139035D01*
X92407787Y-111140816D01*
X92407782Y-111140817D01*
X92249107Y-111188724D01*
X92222848Y-111196652D01*
X92195040Y-111211438D01*
X92052278Y-111287345D01*
X92052275Y-111287347D01*
X92046836Y-111290239D01*
X92042066Y-111294129D01*
X92042062Y-111294132D01*
X91897129Y-111412337D01*
X91897126Y-111412340D01*
X91892354Y-111416232D01*
X91765286Y-111569830D01*
X91670472Y-111745185D01*
X91611524Y-111935615D01*
X91610880Y-111941740D01*
X91610880Y-111941741D01*
X91593400Y-112108060D01*
X91590687Y-112133869D01*
X86204927Y-112133869D01*
X86216833Y-112095876D01*
X86223398Y-112035450D01*
X86237697Y-111903821D01*
X86237697Y-111903817D01*
X86238362Y-111897696D01*
X86220988Y-111699109D01*
X86165372Y-111507678D01*
X86073634Y-111330696D01*
X85976232Y-111208684D01*
X85435348Y-110667800D01*
X140168035Y-110667800D01*
X140186665Y-110904511D01*
X140187819Y-110909318D01*
X140187820Y-110909324D01*
X140197461Y-110949481D01*
X140242095Y-111135394D01*
X140243988Y-111139965D01*
X140243989Y-111139967D01*
X140325258Y-111336168D01*
X140332960Y-111354763D01*
X140335546Y-111358983D01*
X140454441Y-111553002D01*
X140454445Y-111553008D01*
X140457024Y-111557216D01*
X140611231Y-111737769D01*
X140791784Y-111891976D01*
X140795992Y-111894555D01*
X140795998Y-111894559D01*
X140932434Y-111978167D01*
X140994237Y-112016040D01*
X140998807Y-112017933D01*
X140998811Y-112017935D01*
X141172187Y-112089749D01*
X141213606Y-112106905D01*
X141293809Y-112126160D01*
X141439676Y-112161180D01*
X141439682Y-112161181D01*
X141444489Y-112162335D01*
X141681200Y-112180965D01*
X141917911Y-112162335D01*
X141922718Y-112161181D01*
X141922724Y-112161180D01*
X142068591Y-112126160D01*
X142148794Y-112106905D01*
X142190213Y-112089749D01*
X142363589Y-112017935D01*
X142363593Y-112017933D01*
X142368163Y-112016040D01*
X142429966Y-111978167D01*
X142566402Y-111894559D01*
X142566408Y-111894555D01*
X142570616Y-111891976D01*
X142751169Y-111737769D01*
X142905376Y-111557216D01*
X142907955Y-111553008D01*
X142907959Y-111553002D01*
X143026854Y-111358983D01*
X143029440Y-111354763D01*
X143037143Y-111336168D01*
X143118411Y-111139967D01*
X143118412Y-111139965D01*
X143120305Y-111135394D01*
X143164939Y-110949481D01*
X143165487Y-110947200D01*
X145451235Y-110947200D01*
X145469865Y-111183911D01*
X145471019Y-111188718D01*
X145471020Y-111188724D01*
X145496783Y-111296034D01*
X145525295Y-111414794D01*
X145527188Y-111419365D01*
X145527189Y-111419367D01*
X145589513Y-111569830D01*
X145616160Y-111634163D01*
X145618746Y-111638383D01*
X145737641Y-111832402D01*
X145737645Y-111832408D01*
X145740224Y-111836616D01*
X145894431Y-112017169D01*
X146074984Y-112171376D01*
X146079192Y-112173955D01*
X146079198Y-112173959D01*
X146271019Y-112291507D01*
X146277437Y-112295440D01*
X146282007Y-112297333D01*
X146282011Y-112297335D01*
X146380937Y-112338311D01*
X146496806Y-112386305D01*
X146550414Y-112399175D01*
X146722876Y-112440580D01*
X146722882Y-112440581D01*
X146727689Y-112441735D01*
X146964400Y-112460365D01*
X147201111Y-112441735D01*
X147205918Y-112440581D01*
X147205924Y-112440580D01*
X147378386Y-112399175D01*
X147431994Y-112386305D01*
X147547863Y-112338311D01*
X147646789Y-112297335D01*
X147646793Y-112297333D01*
X147651363Y-112295440D01*
X147657781Y-112291507D01*
X147849602Y-112173959D01*
X147849608Y-112173955D01*
X147853816Y-112171376D01*
X148034369Y-112017169D01*
X148188576Y-111836616D01*
X148191155Y-111832408D01*
X148191159Y-111832402D01*
X148310054Y-111638383D01*
X148312640Y-111634163D01*
X148339288Y-111569830D01*
X148401611Y-111419367D01*
X148401612Y-111419365D01*
X148403505Y-111414794D01*
X148432017Y-111296034D01*
X148457780Y-111188724D01*
X148457781Y-111188718D01*
X148458935Y-111183911D01*
X148477565Y-110947200D01*
X148458935Y-110710489D01*
X148448687Y-110667800D01*
X148404660Y-110484418D01*
X148403505Y-110479606D01*
X148385456Y-110436031D01*
X148314535Y-110264811D01*
X148314533Y-110264807D01*
X148312640Y-110260237D01*
X148275853Y-110200206D01*
X148191159Y-110061998D01*
X148191155Y-110061992D01*
X148188576Y-110057784D01*
X148034369Y-109877231D01*
X147853816Y-109723024D01*
X147849608Y-109720445D01*
X147849602Y-109720441D01*
X147655583Y-109601546D01*
X147651363Y-109598960D01*
X147646793Y-109597067D01*
X147646789Y-109597065D01*
X147436567Y-109509989D01*
X147436565Y-109509988D01*
X147431994Y-109508095D01*
X147351791Y-109488840D01*
X147205924Y-109453820D01*
X147205918Y-109453819D01*
X147201111Y-109452665D01*
X146964400Y-109434035D01*
X146727689Y-109452665D01*
X146722882Y-109453819D01*
X146722876Y-109453820D01*
X146577009Y-109488840D01*
X146496806Y-109508095D01*
X146492235Y-109509988D01*
X146492233Y-109509989D01*
X146282011Y-109597065D01*
X146282007Y-109597067D01*
X146277437Y-109598960D01*
X146273217Y-109601546D01*
X146079198Y-109720441D01*
X146079192Y-109720445D01*
X146074984Y-109723024D01*
X145894431Y-109877231D01*
X145740224Y-110057784D01*
X145737645Y-110061992D01*
X145737641Y-110061998D01*
X145652947Y-110200206D01*
X145616160Y-110260237D01*
X145614267Y-110264807D01*
X145614265Y-110264811D01*
X145543344Y-110436031D01*
X145525295Y-110479606D01*
X145524140Y-110484418D01*
X145480114Y-110667800D01*
X145469865Y-110710489D01*
X145451235Y-110947200D01*
X143165487Y-110947200D01*
X143174580Y-110909324D01*
X143174581Y-110909318D01*
X143175735Y-110904511D01*
X143194365Y-110667800D01*
X143175735Y-110431089D01*
X143120305Y-110200206D01*
X143103795Y-110160346D01*
X143031335Y-109985411D01*
X143031333Y-109985407D01*
X143029440Y-109980837D01*
X142963984Y-109874023D01*
X142907959Y-109782598D01*
X142907955Y-109782592D01*
X142905376Y-109778384D01*
X142751169Y-109597831D01*
X142570616Y-109443624D01*
X142566408Y-109441045D01*
X142566402Y-109441041D01*
X142372383Y-109322146D01*
X142368163Y-109319560D01*
X142363593Y-109317667D01*
X142363589Y-109317665D01*
X142153367Y-109230589D01*
X142153365Y-109230588D01*
X142148794Y-109228695D01*
X142068591Y-109209440D01*
X141922724Y-109174420D01*
X141922718Y-109174419D01*
X141917911Y-109173265D01*
X141681200Y-109154635D01*
X141444489Y-109173265D01*
X141439682Y-109174419D01*
X141439676Y-109174420D01*
X141293809Y-109209440D01*
X141213606Y-109228695D01*
X141209035Y-109230588D01*
X141209033Y-109230589D01*
X140998811Y-109317665D01*
X140998807Y-109317667D01*
X140994237Y-109319560D01*
X140990017Y-109322146D01*
X140795998Y-109441041D01*
X140795992Y-109441045D01*
X140791784Y-109443624D01*
X140611231Y-109597831D01*
X140457024Y-109778384D01*
X140454445Y-109782592D01*
X140454441Y-109782598D01*
X140398416Y-109874023D01*
X140332960Y-109980837D01*
X140331067Y-109985407D01*
X140331065Y-109985411D01*
X140258605Y-110160346D01*
X140242095Y-110200206D01*
X140186665Y-110431089D01*
X140168035Y-110667800D01*
X85435348Y-110667800D01*
X83296543Y-108528995D01*
X83262517Y-108466683D01*
X83267582Y-108395868D01*
X83310129Y-108339032D01*
X83376649Y-108314221D01*
X83385638Y-108313900D01*
X85323734Y-108313900D01*
X85385916Y-108307145D01*
X85522305Y-108256015D01*
X85638861Y-108168661D01*
X85726215Y-108052105D01*
X85777345Y-107915716D01*
X85784100Y-107853534D01*
X85784100Y-105851931D01*
X101342004Y-105851931D01*
X101350901Y-106088928D01*
X101399603Y-106321038D01*
X101401560Y-106325994D01*
X101401562Y-106326000D01*
X101451716Y-106452997D01*
X101486717Y-106541624D01*
X101489485Y-106546185D01*
X101589090Y-106710330D01*
X101609751Y-106744379D01*
X101613246Y-106748407D01*
X101613247Y-106748408D01*
X101761063Y-106918750D01*
X101765189Y-106923505D01*
X101769320Y-106926892D01*
X101944457Y-107070497D01*
X101944463Y-107070501D01*
X101948585Y-107073881D01*
X102154696Y-107191206D01*
X102377629Y-107272127D01*
X102611008Y-107314328D01*
X102615149Y-107314523D01*
X102615155Y-107314524D01*
X102634371Y-107315430D01*
X102634378Y-107315430D01*
X102635859Y-107315500D01*
X109419701Y-107315500D01*
X109428600Y-107315815D01*
X109488255Y-107320039D01*
X109488258Y-107320039D01*
X109493583Y-107320416D01*
X109601094Y-107309780D01*
X109602732Y-107309630D01*
X109710315Y-107300501D01*
X109715486Y-107299159D01*
X109719998Y-107298388D01*
X109724283Y-107297594D01*
X109729595Y-107297068D01*
X109833707Y-107268489D01*
X109835394Y-107268038D01*
X109934704Y-107242262D01*
X109934705Y-107242262D01*
X109939874Y-107240920D01*
X109944740Y-107238728D01*
X109948920Y-107237256D01*
X109953154Y-107235698D01*
X109958299Y-107234286D01*
X109963131Y-107232028D01*
X109963141Y-107232024D01*
X110056107Y-107188575D01*
X110057704Y-107187842D01*
X110097101Y-107170095D01*
X149614851Y-107170095D01*
X149615148Y-107175248D01*
X149615148Y-107175251D01*
X149623518Y-107320416D01*
X149627710Y-107393115D01*
X149628847Y-107398161D01*
X149628848Y-107398167D01*
X149637803Y-107437902D01*
X149676822Y-107611039D01*
X149715061Y-107705211D01*
X149753369Y-107799552D01*
X149760866Y-107818016D01*
X149784713Y-107856931D01*
X149825271Y-107923115D01*
X149877587Y-108008488D01*
X150023850Y-108177338D01*
X150027830Y-108180642D01*
X150032581Y-108184587D01*
X150072216Y-108243490D01*
X150073713Y-108314471D01*
X150036597Y-108374993D01*
X149996324Y-108399512D01*
X149880895Y-108442785D01*
X149764339Y-108530139D01*
X149676985Y-108646695D01*
X149625855Y-108783084D01*
X149619100Y-108845266D01*
X149619100Y-110641534D01*
X149625855Y-110703716D01*
X149676985Y-110840105D01*
X149764339Y-110956661D01*
X149880895Y-111044015D01*
X150017284Y-111095145D01*
X150079466Y-111101900D01*
X151875734Y-111101900D01*
X151937916Y-111095145D01*
X152074305Y-111044015D01*
X152190861Y-110956661D01*
X152278215Y-110840105D01*
X152329345Y-110703716D01*
X152336100Y-110641534D01*
X152336100Y-108845266D01*
X152329345Y-108783084D01*
X152278215Y-108646695D01*
X152190861Y-108530139D01*
X152074305Y-108442785D01*
X152061732Y-108438072D01*
X151955803Y-108398360D01*
X151899039Y-108355718D01*
X151874339Y-108289156D01*
X151889547Y-108219808D01*
X151911093Y-108191127D01*
X151957471Y-108144911D01*
X152015696Y-108086889D01*
X152046733Y-108043697D01*
X152143035Y-107909677D01*
X152146053Y-107905477D01*
X152173414Y-107850117D01*
X152242736Y-107709853D01*
X152242737Y-107709851D01*
X152245030Y-107705211D01*
X152309970Y-107491469D01*
X152339129Y-107269990D01*
X152339211Y-107266640D01*
X152340674Y-107206765D01*
X152340674Y-107206761D01*
X152340756Y-107203400D01*
X152322452Y-106980761D01*
X152268031Y-106764102D01*
X152178954Y-106559240D01*
X152057614Y-106371677D01*
X151907270Y-106206451D01*
X151903219Y-106203252D01*
X151903215Y-106203248D01*
X151736014Y-106071200D01*
X151736010Y-106071198D01*
X151731959Y-106067998D01*
X151690653Y-106045196D01*
X151640684Y-105994764D01*
X151625912Y-105925321D01*
X151651028Y-105858916D01*
X151678380Y-105832309D01*
X151722203Y-105801050D01*
X151857460Y-105704573D01*
X152015696Y-105546889D01*
X152047277Y-105502940D01*
X152143035Y-105369677D01*
X152146053Y-105365477D01*
X152152957Y-105351509D01*
X152242736Y-105169853D01*
X152242737Y-105169851D01*
X152245030Y-105165211D01*
X152309970Y-104951469D01*
X152339129Y-104729990D01*
X152340756Y-104663400D01*
X152322452Y-104440761D01*
X152268031Y-104224102D01*
X152178954Y-104019240D01*
X152057614Y-103831677D01*
X151907270Y-103666451D01*
X151903219Y-103663252D01*
X151903215Y-103663248D01*
X151736014Y-103531200D01*
X151736010Y-103531198D01*
X151731959Y-103527998D01*
X151690653Y-103505196D01*
X151640684Y-103454764D01*
X151625912Y-103385321D01*
X151651028Y-103318916D01*
X151678380Y-103292309D01*
X151729952Y-103255523D01*
X151857460Y-103164573D01*
X151892831Y-103129326D01*
X151976974Y-103045476D01*
X152015696Y-103006889D01*
X152075194Y-102924089D01*
X152143035Y-102829677D01*
X152146053Y-102825477D01*
X152198088Y-102720193D01*
X152242736Y-102629853D01*
X152242737Y-102629851D01*
X152245030Y-102625211D01*
X152309970Y-102411469D01*
X152339129Y-102189990D01*
X152339991Y-102154713D01*
X152340674Y-102126765D01*
X152340674Y-102126761D01*
X152340756Y-102123400D01*
X152322452Y-101900761D01*
X152268031Y-101684102D01*
X152178954Y-101479240D01*
X152057614Y-101291677D01*
X151907270Y-101126451D01*
X151903219Y-101123252D01*
X151903215Y-101123248D01*
X151736014Y-100991200D01*
X151736010Y-100991198D01*
X151731959Y-100987998D01*
X151536389Y-100880038D01*
X151531520Y-100878314D01*
X151531516Y-100878312D01*
X151330687Y-100807195D01*
X151330683Y-100807194D01*
X151325812Y-100805469D01*
X151320719Y-100804562D01*
X151320716Y-100804561D01*
X151110973Y-100767200D01*
X151110967Y-100767199D01*
X151105884Y-100766294D01*
X151032052Y-100765392D01*
X150887681Y-100763628D01*
X150887679Y-100763628D01*
X150882511Y-100763565D01*
X150661691Y-100797355D01*
X150449356Y-100866757D01*
X150251207Y-100969907D01*
X150247074Y-100973010D01*
X150247071Y-100973012D01*
X150222847Y-100991200D01*
X150072565Y-101104035D01*
X149918229Y-101265538D01*
X149792343Y-101450080D01*
X149776603Y-101483990D01*
X149720921Y-101603947D01*
X149698288Y-101652705D01*
X149638589Y-101867970D01*
X149614851Y-102090095D01*
X149615148Y-102095248D01*
X149615148Y-102095251D01*
X149620611Y-102189990D01*
X149627710Y-102313115D01*
X149628847Y-102318161D01*
X149628848Y-102318167D01*
X149645423Y-102391714D01*
X149676822Y-102531039D01*
X149760866Y-102738016D01*
X149877587Y-102928488D01*
X150023850Y-103097338D01*
X150195726Y-103240032D01*
X150266195Y-103281211D01*
X150269045Y-103282876D01*
X150317769Y-103334514D01*
X150330840Y-103404297D01*
X150304109Y-103470069D01*
X150263655Y-103503427D01*
X150251207Y-103509907D01*
X150247074Y-103513010D01*
X150247071Y-103513012D01*
X150222847Y-103531200D01*
X150072565Y-103644035D01*
X149918229Y-103805538D01*
X149792343Y-103990080D01*
X149698288Y-104192705D01*
X149638589Y-104407970D01*
X149614851Y-104630095D01*
X149615148Y-104635248D01*
X149615148Y-104635251D01*
X149627412Y-104847947D01*
X149627710Y-104853115D01*
X149628847Y-104858161D01*
X149628848Y-104858167D01*
X149648719Y-104946339D01*
X149676822Y-105071039D01*
X149760866Y-105278016D01*
X149763565Y-105282420D01*
X149834080Y-105397490D01*
X149877587Y-105468488D01*
X150023850Y-105637338D01*
X150195726Y-105780032D01*
X150266195Y-105821211D01*
X150269045Y-105822876D01*
X150317769Y-105874514D01*
X150330840Y-105944297D01*
X150304109Y-106010069D01*
X150263655Y-106043427D01*
X150251207Y-106049907D01*
X150247074Y-106053010D01*
X150247071Y-106053012D01*
X150192286Y-106094146D01*
X150072565Y-106184035D01*
X149918229Y-106345538D01*
X149792343Y-106530080D01*
X149776603Y-106563990D01*
X149710963Y-106705400D01*
X149698288Y-106732705D01*
X149638589Y-106947970D01*
X149614851Y-107170095D01*
X110097101Y-107170095D01*
X110151246Y-107145704D01*
X110151250Y-107145702D01*
X110156111Y-107143512D01*
X110160538Y-107140532D01*
X110164474Y-107138341D01*
X110168318Y-107136130D01*
X110173156Y-107133869D01*
X110261869Y-107072326D01*
X110263304Y-107071345D01*
X110348413Y-107014047D01*
X110348415Y-107014046D01*
X110352845Y-107011063D01*
X110356708Y-107007378D01*
X110360868Y-107004033D01*
X110360966Y-107004154D01*
X110361451Y-107003748D01*
X110361362Y-107003637D01*
X110364613Y-107001049D01*
X110368021Y-106998685D01*
X110371084Y-106995898D01*
X110371089Y-106995894D01*
X110385317Y-106982948D01*
X110385330Y-106982936D01*
X110386422Y-106981942D01*
X110448533Y-106919831D01*
X110450656Y-106917756D01*
X110520593Y-106851039D01*
X110524450Y-106847360D01*
X110527631Y-106843085D01*
X110527636Y-106843079D01*
X110528977Y-106841276D01*
X110540972Y-106827392D01*
X114106770Y-103261593D01*
X114113284Y-103255523D01*
X114158472Y-103216311D01*
X114158474Y-103216309D01*
X114162505Y-103212811D01*
X114165888Y-103208685D01*
X114165892Y-103208681D01*
X114205046Y-103160929D01*
X114231001Y-103129275D01*
X114232042Y-103128023D01*
X114301676Y-103045476D01*
X114304374Y-103040886D01*
X114306930Y-103037277D01*
X114309496Y-103033543D01*
X114312881Y-103029415D01*
X114366292Y-102935586D01*
X114367106Y-102934177D01*
X114421869Y-102841023D01*
X114423761Y-102836028D01*
X114425689Y-102832005D01*
X114427567Y-102827940D01*
X114430206Y-102823304D01*
X114467042Y-102721820D01*
X114467646Y-102720193D01*
X114501873Y-102629853D01*
X114505893Y-102619242D01*
X114506917Y-102614000D01*
X114508166Y-102609615D01*
X114509308Y-102605382D01*
X114511127Y-102600371D01*
X114530331Y-102494172D01*
X114530656Y-102492443D01*
X114550327Y-102391714D01*
X114550327Y-102391713D01*
X114551350Y-102386475D01*
X114551476Y-102381139D01*
X114552052Y-102375838D01*
X114552256Y-102375860D01*
X114552316Y-102375222D01*
X114552122Y-102375200D01*
X114552590Y-102371073D01*
X114553328Y-102366992D01*
X114554500Y-102342141D01*
X114554500Y-102254279D01*
X114554535Y-102251311D01*
X114556811Y-102154713D01*
X114556937Y-102149376D01*
X114555836Y-102141873D01*
X114554500Y-102123578D01*
X114554500Y-99183054D01*
X114574502Y-99114933D01*
X114591405Y-99093959D01*
X116346290Y-97339074D01*
X116460676Y-97203476D01*
X116463378Y-97198879D01*
X116463382Y-97198874D01*
X116557526Y-97038729D01*
X116580868Y-96999023D01*
X116664893Y-96777243D01*
X116666953Y-96766698D01*
X116709326Y-96549712D01*
X116710349Y-96544475D01*
X116711400Y-96499905D01*
X116714439Y-96370915D01*
X116715937Y-96307376D01*
X116681496Y-96072725D01*
X116627627Y-95907425D01*
X116609664Y-95852304D01*
X116609664Y-95852303D01*
X116608011Y-95847232D01*
X116497585Y-95637345D01*
X116353372Y-95449064D01*
X116349457Y-95445432D01*
X116349453Y-95445428D01*
X116303068Y-95402400D01*
X125381702Y-95402400D01*
X125401657Y-95630487D01*
X125403081Y-95635800D01*
X125403081Y-95635802D01*
X125458470Y-95842513D01*
X125460916Y-95851643D01*
X125463239Y-95856624D01*
X125463239Y-95856625D01*
X125555351Y-96054162D01*
X125555354Y-96054167D01*
X125557677Y-96059149D01*
X125689002Y-96246700D01*
X125850900Y-96408598D01*
X125855408Y-96411755D01*
X125855411Y-96411757D01*
X125917884Y-96455501D01*
X126038451Y-96539923D01*
X126043433Y-96542246D01*
X126043438Y-96542249D01*
X126202588Y-96616461D01*
X126245957Y-96636684D01*
X126251265Y-96638106D01*
X126251267Y-96638107D01*
X126461798Y-96694519D01*
X126461800Y-96694519D01*
X126467113Y-96695943D01*
X126695200Y-96715898D01*
X126923287Y-96695943D01*
X126928600Y-96694519D01*
X126928602Y-96694519D01*
X127139133Y-96638107D01*
X127139135Y-96638106D01*
X127144443Y-96636684D01*
X127187812Y-96616461D01*
X127346962Y-96542249D01*
X127346967Y-96542246D01*
X127351949Y-96539923D01*
X127472516Y-96455501D01*
X127534989Y-96411757D01*
X127534992Y-96411755D01*
X127539500Y-96408598D01*
X127701398Y-96246700D01*
X127832723Y-96059149D01*
X127835046Y-96054167D01*
X127835049Y-96054162D01*
X127927161Y-95856625D01*
X127927161Y-95856624D01*
X127929484Y-95851643D01*
X127931931Y-95842513D01*
X127987319Y-95635802D01*
X127987319Y-95635800D01*
X127988743Y-95630487D01*
X128008698Y-95402400D01*
X135541702Y-95402400D01*
X135561657Y-95630487D01*
X135563081Y-95635800D01*
X135563081Y-95635802D01*
X135618470Y-95842513D01*
X135620916Y-95851643D01*
X135623239Y-95856624D01*
X135623239Y-95856625D01*
X135715351Y-96054162D01*
X135715354Y-96054167D01*
X135717677Y-96059149D01*
X135849002Y-96246700D01*
X136010900Y-96408598D01*
X136015408Y-96411755D01*
X136015411Y-96411757D01*
X136077884Y-96455501D01*
X136198451Y-96539923D01*
X136203433Y-96542246D01*
X136203438Y-96542249D01*
X136362588Y-96616461D01*
X136405957Y-96636684D01*
X136411265Y-96638106D01*
X136411267Y-96638107D01*
X136621798Y-96694519D01*
X136621800Y-96694519D01*
X136627113Y-96695943D01*
X136855200Y-96715898D01*
X137083287Y-96695943D01*
X137088600Y-96694519D01*
X137088602Y-96694519D01*
X137299133Y-96638107D01*
X137299135Y-96638106D01*
X137304443Y-96636684D01*
X137347812Y-96616461D01*
X137506962Y-96542249D01*
X137506967Y-96542246D01*
X137511949Y-96539923D01*
X137632516Y-96455501D01*
X137694989Y-96411757D01*
X137694992Y-96411755D01*
X137699500Y-96408598D01*
X137806764Y-96301334D01*
X139976649Y-96301334D01*
X139983404Y-96363516D01*
X140034534Y-96499905D01*
X140121888Y-96616461D01*
X140238444Y-96703815D01*
X140374833Y-96754945D01*
X140437015Y-96761700D01*
X142133283Y-96761700D01*
X142195465Y-96754945D01*
X142331854Y-96703815D01*
X142448410Y-96616461D01*
X142535764Y-96499905D01*
X142586894Y-96363516D01*
X142593649Y-96301334D01*
X142593649Y-95453200D01*
X144971651Y-95453200D01*
X144991606Y-95681287D01*
X145050865Y-95902443D01*
X145053188Y-95907424D01*
X145053188Y-95907425D01*
X145145300Y-96104962D01*
X145145303Y-96104967D01*
X145147626Y-96109949D01*
X145278951Y-96297500D01*
X145440849Y-96459398D01*
X145445357Y-96462555D01*
X145445360Y-96462557D01*
X145486691Y-96491497D01*
X145628400Y-96590723D01*
X145633382Y-96593046D01*
X145633387Y-96593049D01*
X145830924Y-96685161D01*
X145835906Y-96687484D01*
X145841214Y-96688906D01*
X145841216Y-96688907D01*
X146051747Y-96745319D01*
X146051749Y-96745319D01*
X146057062Y-96746743D01*
X146285149Y-96766698D01*
X146513236Y-96746743D01*
X146518549Y-96745319D01*
X146518551Y-96745319D01*
X146729082Y-96688907D01*
X146729084Y-96688906D01*
X146734392Y-96687484D01*
X146739374Y-96685161D01*
X146936911Y-96593049D01*
X146936916Y-96593046D01*
X146941898Y-96590723D01*
X147083607Y-96491497D01*
X147124938Y-96462557D01*
X147124941Y-96462555D01*
X147129449Y-96459398D01*
X147291347Y-96297500D01*
X147422672Y-96109949D01*
X147424995Y-96104967D01*
X147424998Y-96104962D01*
X147517110Y-95907425D01*
X147517110Y-95907424D01*
X147519433Y-95902443D01*
X147578692Y-95681287D01*
X147598647Y-95453200D01*
X147578692Y-95225113D01*
X147566651Y-95180175D01*
X147520856Y-95009267D01*
X147520855Y-95009265D01*
X147519433Y-95003957D01*
X147517110Y-94998975D01*
X147424998Y-94801438D01*
X147424995Y-94801433D01*
X147422672Y-94796451D01*
X147291347Y-94608900D01*
X147129449Y-94447002D01*
X147124941Y-94443845D01*
X147124938Y-94443843D01*
X147046760Y-94389102D01*
X146941898Y-94315677D01*
X146936916Y-94313354D01*
X146936911Y-94313351D01*
X146739374Y-94221239D01*
X146739373Y-94221239D01*
X146734392Y-94218916D01*
X146729084Y-94217494D01*
X146729082Y-94217493D01*
X146518551Y-94161081D01*
X146518549Y-94161081D01*
X146513236Y-94159657D01*
X146285149Y-94139702D01*
X146057062Y-94159657D01*
X146051749Y-94161081D01*
X146051747Y-94161081D01*
X145841216Y-94217493D01*
X145841214Y-94217494D01*
X145835906Y-94218916D01*
X145830925Y-94221239D01*
X145830924Y-94221239D01*
X145633387Y-94313351D01*
X145633382Y-94313354D01*
X145628400Y-94315677D01*
X145523538Y-94389102D01*
X145445360Y-94443843D01*
X145445357Y-94443845D01*
X145440849Y-94447002D01*
X145278951Y-94608900D01*
X145147626Y-94796451D01*
X145145303Y-94801433D01*
X145145300Y-94801438D01*
X145053188Y-94998975D01*
X145050865Y-95003957D01*
X145049443Y-95009265D01*
X145049442Y-95009267D01*
X145003647Y-95180175D01*
X144991606Y-95225113D01*
X144971651Y-95453200D01*
X142593649Y-95453200D01*
X142593649Y-94605066D01*
X142586894Y-94542884D01*
X142535764Y-94406495D01*
X142448410Y-94289939D01*
X142331854Y-94202585D01*
X142195465Y-94151455D01*
X142133283Y-94144700D01*
X140437015Y-94144700D01*
X140374833Y-94151455D01*
X140238444Y-94202585D01*
X140121888Y-94289939D01*
X140034534Y-94406495D01*
X139983404Y-94542884D01*
X139976649Y-94605066D01*
X139976649Y-96301334D01*
X137806764Y-96301334D01*
X137861398Y-96246700D01*
X137992723Y-96059149D01*
X137995046Y-96054167D01*
X137995049Y-96054162D01*
X138087161Y-95856625D01*
X138087161Y-95856624D01*
X138089484Y-95851643D01*
X138091931Y-95842513D01*
X138147319Y-95635802D01*
X138147319Y-95635800D01*
X138148743Y-95630487D01*
X138168698Y-95402400D01*
X138148743Y-95174313D01*
X138145176Y-95161001D01*
X138090907Y-94958467D01*
X138090906Y-94958465D01*
X138089484Y-94953157D01*
X138042997Y-94853464D01*
X137995049Y-94750638D01*
X137995046Y-94750633D01*
X137992723Y-94745651D01*
X137894240Y-94605003D01*
X137864557Y-94562611D01*
X137864555Y-94562608D01*
X137861398Y-94558100D01*
X137699500Y-94396202D01*
X137694992Y-94393045D01*
X137694989Y-94393043D01*
X137616811Y-94338302D01*
X137511949Y-94264877D01*
X137506967Y-94262554D01*
X137506962Y-94262551D01*
X137309425Y-94170439D01*
X137309424Y-94170439D01*
X137304443Y-94168116D01*
X137299135Y-94166694D01*
X137299133Y-94166693D01*
X137088602Y-94110281D01*
X137088600Y-94110281D01*
X137083287Y-94108857D01*
X136855200Y-94088902D01*
X136627113Y-94108857D01*
X136621800Y-94110281D01*
X136621798Y-94110281D01*
X136411267Y-94166693D01*
X136411265Y-94166694D01*
X136405957Y-94168116D01*
X136400976Y-94170439D01*
X136400975Y-94170439D01*
X136203438Y-94262551D01*
X136203433Y-94262554D01*
X136198451Y-94264877D01*
X136093589Y-94338302D01*
X136015411Y-94393043D01*
X136015408Y-94393045D01*
X136010900Y-94396202D01*
X135849002Y-94558100D01*
X135845845Y-94562608D01*
X135845843Y-94562611D01*
X135816160Y-94605003D01*
X135717677Y-94745651D01*
X135715354Y-94750633D01*
X135715351Y-94750638D01*
X135667403Y-94853464D01*
X135620916Y-94953157D01*
X135619494Y-94958465D01*
X135619493Y-94958467D01*
X135565224Y-95161001D01*
X135561657Y-95174313D01*
X135541702Y-95402400D01*
X128008698Y-95402400D01*
X127988743Y-95174313D01*
X127985176Y-95161001D01*
X127930907Y-94958467D01*
X127930906Y-94958465D01*
X127929484Y-94953157D01*
X127882997Y-94853464D01*
X127835049Y-94750638D01*
X127835046Y-94750633D01*
X127832723Y-94745651D01*
X127734240Y-94605003D01*
X127704557Y-94562611D01*
X127704555Y-94562608D01*
X127701398Y-94558100D01*
X127539500Y-94396202D01*
X127534992Y-94393045D01*
X127534989Y-94393043D01*
X127456811Y-94338302D01*
X127351949Y-94264877D01*
X127346967Y-94262554D01*
X127346962Y-94262551D01*
X127149425Y-94170439D01*
X127149424Y-94170439D01*
X127144443Y-94168116D01*
X127139135Y-94166694D01*
X127139133Y-94166693D01*
X126928602Y-94110281D01*
X126928600Y-94110281D01*
X126923287Y-94108857D01*
X126695200Y-94088902D01*
X126467113Y-94108857D01*
X126461800Y-94110281D01*
X126461798Y-94110281D01*
X126251267Y-94166693D01*
X126251265Y-94166694D01*
X126245957Y-94168116D01*
X126240976Y-94170439D01*
X126240975Y-94170439D01*
X126043438Y-94262551D01*
X126043433Y-94262554D01*
X126038451Y-94264877D01*
X125933589Y-94338302D01*
X125855411Y-94393043D01*
X125855408Y-94393045D01*
X125850900Y-94396202D01*
X125689002Y-94558100D01*
X125685845Y-94562608D01*
X125685843Y-94562611D01*
X125656160Y-94605003D01*
X125557677Y-94745651D01*
X125555354Y-94750633D01*
X125555351Y-94750638D01*
X125507403Y-94853464D01*
X125460916Y-94953157D01*
X125459494Y-94958465D01*
X125459493Y-94958467D01*
X125405224Y-95161001D01*
X125401657Y-95174313D01*
X125381702Y-95402400D01*
X116303068Y-95402400D01*
X116183408Y-95291400D01*
X116179498Y-95287773D01*
X116175040Y-95284861D01*
X116175037Y-95284859D01*
X115985400Y-95161001D01*
X115985401Y-95161001D01*
X115980934Y-95158084D01*
X115855798Y-95103803D01*
X115768259Y-95065831D01*
X115768255Y-95065830D01*
X115763357Y-95063705D01*
X115557808Y-95013407D01*
X115538172Y-95008602D01*
X115532990Y-95007334D01*
X115527667Y-95006957D01*
X115527666Y-95006957D01*
X115301745Y-94990961D01*
X115301742Y-94990961D01*
X115296417Y-94990584D01*
X115178411Y-95002258D01*
X115065718Y-95013407D01*
X115065714Y-95013408D01*
X115060405Y-95013933D01*
X114831701Y-95076714D01*
X114616844Y-95177131D01*
X114612462Y-95180171D01*
X114612455Y-95180175D01*
X114536722Y-95232714D01*
X114421979Y-95312315D01*
X114418909Y-95315109D01*
X114418907Y-95315110D01*
X114404683Y-95328052D01*
X114404670Y-95328064D01*
X114403578Y-95329058D01*
X112207222Y-97525414D01*
X112200708Y-97531484D01*
X112151495Y-97574189D01*
X112148112Y-97578315D01*
X112148108Y-97578319D01*
X112115380Y-97618234D01*
X112083017Y-97657703D01*
X112081976Y-97658955D01*
X112060955Y-97683875D01*
X112015759Y-97737451D01*
X112015755Y-97737457D01*
X112012324Y-97741524D01*
X112009627Y-97746112D01*
X112007070Y-97749723D01*
X112004505Y-97753456D01*
X112001119Y-97757585D01*
X111998478Y-97762225D01*
X111947709Y-97851414D01*
X111946878Y-97852852D01*
X111892132Y-97945977D01*
X111890241Y-97950970D01*
X111888303Y-97955014D01*
X111886433Y-97959060D01*
X111883794Y-97963696D01*
X111881974Y-97968709D01*
X111881973Y-97968712D01*
X111846960Y-98065172D01*
X111846348Y-98066822D01*
X111834158Y-98098997D01*
X111808107Y-98167757D01*
X111807084Y-98172997D01*
X111805855Y-98177311D01*
X111804695Y-98181608D01*
X111802873Y-98186629D01*
X111801923Y-98191884D01*
X111783670Y-98292822D01*
X111783345Y-98294551D01*
X111772995Y-98347550D01*
X111762650Y-98400525D01*
X111762524Y-98405861D01*
X111761948Y-98411162D01*
X111761744Y-98411140D01*
X111761684Y-98411778D01*
X111761878Y-98411800D01*
X111761410Y-98415927D01*
X111760672Y-98420008D01*
X111759500Y-98444859D01*
X111759500Y-98532721D01*
X111759465Y-98535689D01*
X111757063Y-98637624D01*
X111757838Y-98642903D01*
X111757838Y-98642906D01*
X111758164Y-98645124D01*
X111759500Y-98663422D01*
X111759500Y-101603947D01*
X111739498Y-101672068D01*
X111722595Y-101693042D01*
X108932041Y-104483595D01*
X108869729Y-104517621D01*
X108842946Y-104520500D01*
X102683450Y-104520500D01*
X102601163Y-104527482D01*
X102511996Y-104535048D01*
X102511992Y-104535049D01*
X102506685Y-104535499D01*
X102501530Y-104536837D01*
X102501524Y-104536838D01*
X102320831Y-104583737D01*
X102277126Y-104595080D01*
X102132907Y-104660046D01*
X102065750Y-104690298D01*
X102065747Y-104690299D01*
X102060889Y-104692488D01*
X101864155Y-104824937D01*
X101692550Y-104988640D01*
X101550980Y-105178917D01*
X101548564Y-105183668D01*
X101548562Y-105183672D01*
X101452596Y-105372424D01*
X101443494Y-105390326D01*
X101413263Y-105487685D01*
X101374749Y-105611719D01*
X101374748Y-105611725D01*
X101373165Y-105616822D01*
X101362018Y-105700929D01*
X101344605Y-105832309D01*
X101342004Y-105851931D01*
X85784100Y-105851931D01*
X85784100Y-105557266D01*
X85777345Y-105495084D01*
X85726215Y-105358695D01*
X85638861Y-105242139D01*
X85522305Y-105154785D01*
X85385916Y-105103655D01*
X85323734Y-105096900D01*
X83027466Y-105096900D01*
X82965284Y-105103655D01*
X82828895Y-105154785D01*
X82712339Y-105242139D01*
X82686937Y-105276033D01*
X82650326Y-105324883D01*
X82593467Y-105367398D01*
X82522649Y-105372424D01*
X82460355Y-105338364D01*
X82426365Y-105276033D01*
X82423500Y-105249318D01*
X82423500Y-101967811D01*
X88051900Y-101967811D01*
X88058655Y-102029993D01*
X88109785Y-102166382D01*
X88197139Y-102282938D01*
X88313695Y-102370292D01*
X88450084Y-102421422D01*
X88512266Y-102428177D01*
X90608534Y-102428177D01*
X90670716Y-102421422D01*
X90807105Y-102370292D01*
X90923661Y-102282938D01*
X91011015Y-102166382D01*
X91062145Y-102029993D01*
X91068900Y-101967811D01*
X91068900Y-99871543D01*
X91062145Y-99809361D01*
X91011015Y-99672972D01*
X90923661Y-99556416D01*
X90807105Y-99469062D01*
X90670716Y-99417932D01*
X90608534Y-99411177D01*
X88512266Y-99411177D01*
X88450084Y-99417932D01*
X88313695Y-99469062D01*
X88197139Y-99556416D01*
X88109785Y-99672972D01*
X88058655Y-99809361D01*
X88051900Y-99871543D01*
X88051900Y-101967811D01*
X82423500Y-101967811D01*
X82423500Y-100914843D01*
X82423154Y-100911309D01*
X82412945Y-100807195D01*
X82408965Y-100766606D01*
X82407184Y-100760707D01*
X82407183Y-100760702D01*
X82353129Y-100581667D01*
X82351348Y-100575768D01*
X82279639Y-100440903D01*
X82260655Y-100405198D01*
X82260653Y-100405195D01*
X82257761Y-100399756D01*
X82253871Y-100394986D01*
X82253868Y-100394982D01*
X82135663Y-100250049D01*
X82135660Y-100250046D01*
X82131768Y-100245274D01*
X81978170Y-100118206D01*
X81802815Y-100023392D01*
X81612385Y-99964444D01*
X81606260Y-99963800D01*
X81606259Y-99963800D01*
X81420260Y-99944251D01*
X81420258Y-99944251D01*
X81414131Y-99943607D01*
X81291252Y-99954790D01*
X81221746Y-99961115D01*
X81221745Y-99961115D01*
X81215605Y-99961674D01*
X81209691Y-99963415D01*
X81209689Y-99963415D01*
X81173375Y-99974103D01*
X81024370Y-100017958D01*
X80847709Y-100110314D01*
X80842909Y-100114174D01*
X80842908Y-100114174D01*
X80837893Y-100118206D01*
X80692351Y-100235225D01*
X80564214Y-100387933D01*
X80468179Y-100562621D01*
X80466318Y-100568488D01*
X80466317Y-100568490D01*
X80425790Y-100696247D01*
X80407902Y-100752635D01*
X80390500Y-100907784D01*
X80390500Y-108014724D01*
X80389763Y-108028332D01*
X80386400Y-108059291D01*
X80385638Y-108066304D01*
X74873284Y-108066304D01*
X74963976Y-108010728D01*
X75156498Y-107846298D01*
X75320928Y-107653776D01*
X75453216Y-107437902D01*
X75471768Y-107393115D01*
X75548211Y-107208564D01*
X75548212Y-107208562D01*
X75550105Y-107203991D01*
X75580708Y-107076521D01*
X75608054Y-106962616D01*
X75608055Y-106962610D01*
X75609209Y-106957803D01*
X75629074Y-106705400D01*
X75609209Y-106452997D01*
X75584437Y-106349811D01*
X75551260Y-106211621D01*
X75550105Y-106206809D01*
X75491575Y-106065504D01*
X75455111Y-105977472D01*
X75455109Y-105977468D01*
X75453216Y-105972898D01*
X75320928Y-105757024D01*
X75156498Y-105564502D01*
X74963976Y-105400072D01*
X74748102Y-105267784D01*
X74743532Y-105265891D01*
X74743528Y-105265889D01*
X74518764Y-105172789D01*
X74518762Y-105172788D01*
X74514191Y-105170895D01*
X74429568Y-105150579D01*
X74272816Y-105112946D01*
X74272810Y-105112945D01*
X74268003Y-105111791D01*
X74015600Y-105091926D01*
X73763197Y-105111791D01*
X73758390Y-105112945D01*
X73758384Y-105112946D01*
X73601632Y-105150579D01*
X73517009Y-105170895D01*
X73512438Y-105172788D01*
X73512436Y-105172789D01*
X73287672Y-105265889D01*
X73287668Y-105265891D01*
X73283098Y-105267784D01*
X73067224Y-105400072D01*
X72874702Y-105564502D01*
X72710272Y-105757024D01*
X72577984Y-105972898D01*
X72576091Y-105977468D01*
X72576089Y-105977472D01*
X72539625Y-106065504D01*
X72481095Y-106206809D01*
X72479940Y-106211621D01*
X72446764Y-106349811D01*
X72421991Y-106452997D01*
X72402126Y-106705400D01*
X53340000Y-106705400D01*
X53340000Y-95433433D01*
X58216166Y-95433433D01*
X58255367Y-95900256D01*
X58333492Y-96362162D01*
X58334147Y-96364712D01*
X58334148Y-96364718D01*
X58449210Y-96812852D01*
X58449995Y-96815911D01*
X58604058Y-97258319D01*
X58794600Y-97686285D01*
X59020286Y-98096805D01*
X59021738Y-98098991D01*
X59021742Y-98098997D01*
X59278073Y-98484806D01*
X59279531Y-98487000D01*
X59570518Y-98854134D01*
X59732145Y-99026250D01*
X59879394Y-99183054D01*
X59891205Y-99195632D01*
X60239343Y-99509097D01*
X60612491Y-99792331D01*
X60614722Y-99793747D01*
X60614728Y-99793751D01*
X60883697Y-99964444D01*
X61008030Y-100043348D01*
X61226074Y-100157338D01*
X61420849Y-100259164D01*
X61420854Y-100259166D01*
X61423187Y-100260386D01*
X61855048Y-100441924D01*
X61857556Y-100442739D01*
X61857559Y-100442740D01*
X62298071Y-100585871D01*
X62298075Y-100585872D01*
X62300586Y-100586688D01*
X62551106Y-100645447D01*
X62754107Y-100693061D01*
X62754114Y-100693062D01*
X62756675Y-100693663D01*
X63220116Y-100762098D01*
X63222757Y-100762264D01*
X63222765Y-100762265D01*
X63474723Y-100778116D01*
X63687658Y-100791513D01*
X63690290Y-100791458D01*
X63690297Y-100791458D01*
X63868545Y-100787724D01*
X64156021Y-100781702D01*
X64621921Y-100732734D01*
X65082090Y-100644953D01*
X65084622Y-100644246D01*
X65084635Y-100644243D01*
X65530743Y-100519687D01*
X65530751Y-100519685D01*
X65533299Y-100518973D01*
X65535781Y-100518050D01*
X65535787Y-100518048D01*
X65969900Y-100356602D01*
X65969904Y-100356600D01*
X65972384Y-100355678D01*
X66396265Y-100156215D01*
X66801969Y-99921982D01*
X67186649Y-99654622D01*
X67472758Y-99417932D01*
X67545580Y-99357689D01*
X67545586Y-99357683D01*
X67547609Y-99356010D01*
X67659507Y-99246432D01*
X67880442Y-99030076D01*
X67882315Y-99028242D01*
X67884028Y-99026257D01*
X67884035Y-99026250D01*
X68142837Y-98726424D01*
X68188421Y-98673615D01*
X68189973Y-98671479D01*
X68189980Y-98671470D01*
X68462229Y-98296750D01*
X68463778Y-98294618D01*
X68534822Y-98177311D01*
X68582250Y-98098997D01*
X68706456Y-97893908D01*
X68914753Y-97474298D01*
X69087207Y-97038729D01*
X69222609Y-96590257D01*
X69232341Y-96544475D01*
X69319461Y-96134601D01*
X69320008Y-96132028D01*
X69378723Y-95667255D01*
X69386394Y-95484233D01*
X71576566Y-95484233D01*
X71615767Y-95951056D01*
X71693892Y-96412962D01*
X71694547Y-96415512D01*
X71694548Y-96415518D01*
X71797993Y-96818408D01*
X71810395Y-96866711D01*
X71964458Y-97309119D01*
X72155000Y-97737085D01*
X72380686Y-98147605D01*
X72382138Y-98149791D01*
X72382142Y-98149797D01*
X72637542Y-98534204D01*
X72639931Y-98537800D01*
X72930918Y-98904934D01*
X73251605Y-99246432D01*
X73599743Y-99559897D01*
X73972891Y-99843131D01*
X73975122Y-99844547D01*
X73975128Y-99844551D01*
X74261553Y-100026322D01*
X74368430Y-100094148D01*
X74661173Y-100247190D01*
X74781249Y-100309964D01*
X74781254Y-100309966D01*
X74783587Y-100311186D01*
X75215448Y-100492724D01*
X75217956Y-100493539D01*
X75217959Y-100493540D01*
X75658471Y-100636671D01*
X75658475Y-100636672D01*
X75660986Y-100637488D01*
X75911506Y-100696247D01*
X76114507Y-100743861D01*
X76114514Y-100743862D01*
X76117075Y-100744463D01*
X76580516Y-100812898D01*
X76583157Y-100813064D01*
X76583165Y-100813065D01*
X76835123Y-100828916D01*
X77048058Y-100842313D01*
X77050690Y-100842258D01*
X77050697Y-100842258D01*
X77228945Y-100838524D01*
X77516421Y-100832502D01*
X77982321Y-100783534D01*
X78442490Y-100695753D01*
X78445022Y-100695046D01*
X78445035Y-100695043D01*
X78891143Y-100570487D01*
X78891151Y-100570485D01*
X78893699Y-100569773D01*
X78896181Y-100568850D01*
X78896187Y-100568848D01*
X79330300Y-100407402D01*
X79330304Y-100407400D01*
X79332784Y-100406478D01*
X79756665Y-100207015D01*
X80162369Y-99972782D01*
X80547049Y-99705422D01*
X80826249Y-99474448D01*
X80905980Y-99408489D01*
X80905986Y-99408483D01*
X80908009Y-99406810D01*
X81242715Y-99079042D01*
X81244428Y-99077057D01*
X81244435Y-99077050D01*
X81394795Y-98902856D01*
X81548821Y-98724415D01*
X81550373Y-98722279D01*
X81550380Y-98722270D01*
X81822629Y-98347550D01*
X81824178Y-98345418D01*
X81853653Y-98296750D01*
X81942650Y-98149797D01*
X82066856Y-97944708D01*
X82275153Y-97525098D01*
X82447607Y-97089529D01*
X82583009Y-96641057D01*
X82584433Y-96634361D01*
X82666832Y-96246700D01*
X82680408Y-96182828D01*
X82713652Y-95919677D01*
X88047235Y-95919677D01*
X88065865Y-96156388D01*
X88067019Y-96161195D01*
X88067020Y-96161201D01*
X88100845Y-96302092D01*
X88121295Y-96387271D01*
X88123188Y-96391842D01*
X88123189Y-96391844D01*
X88206418Y-96592777D01*
X88212160Y-96606640D01*
X88214746Y-96610860D01*
X88333641Y-96804879D01*
X88333645Y-96804885D01*
X88336224Y-96809093D01*
X88490431Y-96989646D01*
X88670984Y-97143853D01*
X88675192Y-97146432D01*
X88675198Y-97146436D01*
X88861696Y-97260722D01*
X88873437Y-97267917D01*
X88878007Y-97269810D01*
X88878011Y-97269812D01*
X88978709Y-97311522D01*
X89092806Y-97358782D01*
X89173009Y-97378037D01*
X89318876Y-97413057D01*
X89318882Y-97413058D01*
X89323689Y-97414212D01*
X89560400Y-97432842D01*
X89797111Y-97414212D01*
X89801918Y-97413058D01*
X89801924Y-97413057D01*
X89947791Y-97378037D01*
X90027994Y-97358782D01*
X90142091Y-97311522D01*
X90242789Y-97269812D01*
X90242793Y-97269810D01*
X90247363Y-97267917D01*
X90259104Y-97260722D01*
X90445602Y-97146436D01*
X90445608Y-97146432D01*
X90449816Y-97143853D01*
X90630369Y-96989646D01*
X90784576Y-96809093D01*
X90787155Y-96804885D01*
X90787159Y-96804879D01*
X90906054Y-96610860D01*
X90908640Y-96606640D01*
X90914383Y-96592777D01*
X90997611Y-96391844D01*
X90997612Y-96391842D01*
X90999505Y-96387271D01*
X91019955Y-96302092D01*
X91053780Y-96161201D01*
X91053781Y-96161195D01*
X91054935Y-96156388D01*
X91073565Y-95919677D01*
X91054935Y-95682966D01*
X91053217Y-95675807D01*
X91007853Y-95486854D01*
X90999505Y-95452083D01*
X90997611Y-95447510D01*
X90910535Y-95237288D01*
X90910533Y-95237284D01*
X90908640Y-95232714D01*
X90889725Y-95201848D01*
X90787159Y-95034475D01*
X90787155Y-95034469D01*
X90784576Y-95030261D01*
X90630369Y-94849708D01*
X90449816Y-94695501D01*
X90445608Y-94692922D01*
X90445602Y-94692918D01*
X90251583Y-94574023D01*
X90247363Y-94571437D01*
X90242793Y-94569544D01*
X90242789Y-94569542D01*
X90032567Y-94482466D01*
X90032565Y-94482465D01*
X90027994Y-94480572D01*
X89888165Y-94447002D01*
X89801924Y-94426297D01*
X89801918Y-94426296D01*
X89797111Y-94425142D01*
X89560400Y-94406512D01*
X89323689Y-94425142D01*
X89318882Y-94426296D01*
X89318876Y-94426297D01*
X89232635Y-94447002D01*
X89092806Y-94480572D01*
X89088235Y-94482465D01*
X89088233Y-94482466D01*
X88878011Y-94569542D01*
X88878007Y-94569544D01*
X88873437Y-94571437D01*
X88869217Y-94574023D01*
X88675198Y-94692918D01*
X88675192Y-94692922D01*
X88670984Y-94695501D01*
X88490431Y-94849708D01*
X88336224Y-95030261D01*
X88333645Y-95034469D01*
X88333641Y-95034475D01*
X88231075Y-95201848D01*
X88212160Y-95232714D01*
X88210267Y-95237284D01*
X88210265Y-95237288D01*
X88123189Y-95447510D01*
X88121295Y-95452083D01*
X88112947Y-95486854D01*
X88067584Y-95675807D01*
X88065865Y-95682966D01*
X88047235Y-95919677D01*
X82713652Y-95919677D01*
X82739123Y-95718055D01*
X82758740Y-95250000D01*
X82748813Y-95013146D01*
X82739234Y-94784590D01*
X82739234Y-94784587D01*
X82739123Y-94781945D01*
X82680408Y-94317172D01*
X82583009Y-93858943D01*
X82447607Y-93410471D01*
X82275153Y-92974902D01*
X82066856Y-92555292D01*
X81913212Y-92301595D01*
X81825544Y-92156837D01*
X81825540Y-92156831D01*
X81824178Y-92154582D01*
X81746324Y-92047425D01*
X81550380Y-91777730D01*
X81550373Y-91777721D01*
X81548821Y-91775585D01*
X81333674Y-91526335D01*
X81244435Y-91422950D01*
X81244428Y-91422943D01*
X81242715Y-91420958D01*
X81021872Y-91204693D01*
X80909885Y-91095027D01*
X80909884Y-91095026D01*
X80908009Y-91093190D01*
X80905986Y-91091517D01*
X80905980Y-91091511D01*
X80663699Y-90891079D01*
X80547049Y-90794578D01*
X80342770Y-90652600D01*
X103109435Y-90652600D01*
X103128065Y-90889311D01*
X103183495Y-91120194D01*
X103185388Y-91124765D01*
X103185389Y-91124767D01*
X103265348Y-91317805D01*
X103274360Y-91339563D01*
X103276946Y-91343783D01*
X103395841Y-91537802D01*
X103395845Y-91537808D01*
X103398424Y-91542016D01*
X103552631Y-91722569D01*
X103733184Y-91876776D01*
X103737392Y-91879355D01*
X103737398Y-91879359D01*
X103876163Y-91964394D01*
X103935637Y-92000840D01*
X103940207Y-92002733D01*
X103940211Y-92002735D01*
X104053876Y-92049816D01*
X104155006Y-92091705D01*
X104214703Y-92106037D01*
X104381076Y-92145980D01*
X104381082Y-92145981D01*
X104385889Y-92147135D01*
X104622600Y-92165765D01*
X104859311Y-92147135D01*
X104864118Y-92145981D01*
X104864124Y-92145980D01*
X105030497Y-92106037D01*
X105090194Y-92091705D01*
X105191324Y-92049816D01*
X105304989Y-92002735D01*
X105304993Y-92002733D01*
X105309563Y-92000840D01*
X105369037Y-91964394D01*
X105507802Y-91879359D01*
X105507808Y-91879355D01*
X105512016Y-91876776D01*
X105692569Y-91722569D01*
X105846776Y-91542016D01*
X105849355Y-91537808D01*
X105849359Y-91537802D01*
X105968254Y-91343783D01*
X105970840Y-91339563D01*
X105979853Y-91317805D01*
X106059811Y-91124767D01*
X106059812Y-91124765D01*
X106061705Y-91120194D01*
X106117135Y-90889311D01*
X106135765Y-90652600D01*
X108265635Y-90652600D01*
X108284265Y-90889311D01*
X108339695Y-91120194D01*
X108341588Y-91124765D01*
X108341589Y-91124767D01*
X108421548Y-91317805D01*
X108430560Y-91339563D01*
X108433146Y-91343783D01*
X108552041Y-91537802D01*
X108552045Y-91537808D01*
X108554624Y-91542016D01*
X108708831Y-91722569D01*
X108889384Y-91876776D01*
X108893592Y-91879355D01*
X108893598Y-91879359D01*
X109032363Y-91964394D01*
X109091837Y-92000840D01*
X109096407Y-92002733D01*
X109096411Y-92002735D01*
X109210076Y-92049816D01*
X109311206Y-92091705D01*
X109370903Y-92106037D01*
X109537276Y-92145980D01*
X109537282Y-92145981D01*
X109542089Y-92147135D01*
X109778800Y-92165765D01*
X110015511Y-92147135D01*
X110020318Y-92145981D01*
X110020324Y-92145980D01*
X110186697Y-92106037D01*
X110246394Y-92091705D01*
X110347524Y-92049816D01*
X110461189Y-92002735D01*
X110461193Y-92002733D01*
X110465763Y-92000840D01*
X110525237Y-91964394D01*
X110664002Y-91879359D01*
X110664008Y-91879355D01*
X110668216Y-91876776D01*
X110749288Y-91807534D01*
X115607600Y-91807534D01*
X115614355Y-91869716D01*
X115665485Y-92006105D01*
X115752839Y-92122661D01*
X115869395Y-92210015D01*
X116005784Y-92261145D01*
X116067966Y-92267900D01*
X118069234Y-92267900D01*
X118131416Y-92261145D01*
X118267805Y-92210015D01*
X118384361Y-92122661D01*
X118471715Y-92006105D01*
X118479173Y-91986211D01*
X118521813Y-91929447D01*
X118588374Y-91904746D01*
X118657723Y-91919953D01*
X118675247Y-91931558D01*
X118793270Y-92024767D01*
X118793275Y-92024770D01*
X118797324Y-92027968D01*
X118801840Y-92030461D01*
X118801843Y-92030463D01*
X119003126Y-92141577D01*
X119003130Y-92141579D01*
X119007650Y-92144074D01*
X119012519Y-92145798D01*
X119012523Y-92145800D01*
X119229240Y-92222544D01*
X119229244Y-92222545D01*
X119234115Y-92224270D01*
X119239208Y-92225177D01*
X119239211Y-92225178D01*
X119465548Y-92265495D01*
X119465554Y-92265496D01*
X119470637Y-92266401D01*
X119558000Y-92267468D01*
X119705693Y-92269273D01*
X119705695Y-92269273D01*
X119710863Y-92269336D01*
X119948344Y-92232996D01*
X120060597Y-92196306D01*
X120171783Y-92159966D01*
X120171789Y-92159963D01*
X120176701Y-92158358D01*
X120181287Y-92155971D01*
X120181291Y-92155969D01*
X120385207Y-92049816D01*
X120389800Y-92047425D01*
X120570968Y-91911400D01*
X120577785Y-91906282D01*
X120577788Y-91906280D01*
X120581920Y-91903177D01*
X120747901Y-91729488D01*
X120773135Y-91692497D01*
X120828044Y-91647496D01*
X120898568Y-91639325D01*
X120962316Y-91670579D01*
X120983011Y-91695060D01*
X120987098Y-91701377D01*
X121148786Y-91879070D01*
X121225617Y-91939747D01*
X121333270Y-92024767D01*
X121333275Y-92024770D01*
X121337324Y-92027968D01*
X121341840Y-92030461D01*
X121341843Y-92030463D01*
X121543126Y-92141577D01*
X121543130Y-92141579D01*
X121547650Y-92144074D01*
X121552519Y-92145798D01*
X121552523Y-92145800D01*
X121769240Y-92222544D01*
X121769244Y-92222545D01*
X121774115Y-92224270D01*
X121779208Y-92225177D01*
X121779211Y-92225178D01*
X122005548Y-92265495D01*
X122005554Y-92265496D01*
X122010637Y-92266401D01*
X122098000Y-92267468D01*
X122245693Y-92269273D01*
X122245695Y-92269273D01*
X122250863Y-92269336D01*
X122488344Y-92232996D01*
X122600597Y-92196306D01*
X122711783Y-92159966D01*
X122711789Y-92159963D01*
X122716701Y-92158358D01*
X122721287Y-92155971D01*
X122721291Y-92155969D01*
X122925207Y-92049816D01*
X122929800Y-92047425D01*
X123110968Y-91911400D01*
X123117785Y-91906282D01*
X123117788Y-91906280D01*
X123121920Y-91903177D01*
X123287901Y-91729488D01*
X123414252Y-91544266D01*
X123420374Y-91535291D01*
X123420375Y-91535290D01*
X123423286Y-91531022D01*
X123473452Y-91422950D01*
X123522258Y-91317805D01*
X123522259Y-91317801D01*
X123524437Y-91313110D01*
X123588640Y-91081602D01*
X123603933Y-90938501D01*
X123609244Y-90888807D01*
X123609244Y-90888799D01*
X123609600Y-90885472D01*
X123609600Y-90650998D01*
X123609327Y-90647670D01*
X123595346Y-90477624D01*
X123594922Y-90472463D01*
X123536394Y-90239456D01*
X123440597Y-90019137D01*
X123339800Y-89863329D01*
X123312910Y-89821763D01*
X123312908Y-89821760D01*
X123310102Y-89817423D01*
X123148414Y-89639730D01*
X123071583Y-89579053D01*
X122963930Y-89494033D01*
X122963925Y-89494030D01*
X122959876Y-89490832D01*
X122955360Y-89488339D01*
X122955357Y-89488337D01*
X122754074Y-89377223D01*
X122754070Y-89377221D01*
X122749550Y-89374726D01*
X122744681Y-89373002D01*
X122744677Y-89373000D01*
X122527960Y-89296256D01*
X122527956Y-89296255D01*
X122523085Y-89294530D01*
X122517992Y-89293623D01*
X122517989Y-89293622D01*
X122291652Y-89253305D01*
X122291646Y-89253304D01*
X122286563Y-89252399D01*
X122194074Y-89251269D01*
X122051507Y-89249527D01*
X122051505Y-89249527D01*
X122046337Y-89249464D01*
X121808856Y-89285804D01*
X121696603Y-89322494D01*
X121585417Y-89358834D01*
X121585411Y-89358837D01*
X121580499Y-89360442D01*
X121575913Y-89362829D01*
X121575909Y-89362831D01*
X121443739Y-89431635D01*
X121367400Y-89471375D01*
X121363257Y-89474485D01*
X121363258Y-89474485D01*
X121199114Y-89597728D01*
X121175280Y-89615623D01*
X121009299Y-89789312D01*
X120984065Y-89826303D01*
X120929156Y-89871304D01*
X120858632Y-89879475D01*
X120794884Y-89848221D01*
X120774189Y-89823740D01*
X120772911Y-89821765D01*
X120770102Y-89817423D01*
X120608414Y-89639730D01*
X120531583Y-89579053D01*
X120423930Y-89494033D01*
X120423925Y-89494030D01*
X120419876Y-89490832D01*
X120415360Y-89488339D01*
X120415357Y-89488337D01*
X120214074Y-89377223D01*
X120214070Y-89377221D01*
X120209550Y-89374726D01*
X120204681Y-89373002D01*
X120204677Y-89373000D01*
X119987960Y-89296256D01*
X119987956Y-89296255D01*
X119983085Y-89294530D01*
X119977992Y-89293623D01*
X119977989Y-89293622D01*
X119751652Y-89253305D01*
X119751646Y-89253304D01*
X119746563Y-89252399D01*
X119654074Y-89251269D01*
X119511507Y-89249527D01*
X119511505Y-89249527D01*
X119506337Y-89249464D01*
X119268856Y-89285804D01*
X119156603Y-89322494D01*
X119045417Y-89358834D01*
X119045411Y-89358837D01*
X119040499Y-89360442D01*
X119035913Y-89362829D01*
X119035909Y-89362831D01*
X118903739Y-89431635D01*
X118827400Y-89471375D01*
X118672317Y-89587815D01*
X118605835Y-89612720D01*
X118536439Y-89597728D01*
X118486165Y-89547598D01*
X118478685Y-89531285D01*
X118474869Y-89521107D01*
X118474867Y-89521103D01*
X118471715Y-89512695D01*
X118384361Y-89396139D01*
X118267805Y-89308785D01*
X118131416Y-89257655D01*
X118069234Y-89250900D01*
X116067966Y-89250900D01*
X116005784Y-89257655D01*
X115869395Y-89308785D01*
X115752839Y-89396139D01*
X115665485Y-89512695D01*
X115614355Y-89649084D01*
X115607600Y-89711266D01*
X115607600Y-91807534D01*
X110749288Y-91807534D01*
X110848769Y-91722569D01*
X111002976Y-91542016D01*
X111005555Y-91537808D01*
X111005559Y-91537802D01*
X111124454Y-91343783D01*
X111127040Y-91339563D01*
X111136053Y-91317805D01*
X111216011Y-91124767D01*
X111216012Y-91124765D01*
X111217905Y-91120194D01*
X111273335Y-90889311D01*
X111291965Y-90652600D01*
X111273335Y-90415889D01*
X111270926Y-90405852D01*
X111237160Y-90265209D01*
X111217905Y-90185006D01*
X111198947Y-90139236D01*
X111128935Y-89970211D01*
X111128933Y-89970207D01*
X111127040Y-89965637D01*
X111120926Y-89955660D01*
X111005559Y-89767398D01*
X111005555Y-89767392D01*
X111002976Y-89763184D01*
X110848769Y-89582631D01*
X110668216Y-89428424D01*
X110664008Y-89425845D01*
X110664002Y-89425841D01*
X110469983Y-89306946D01*
X110465763Y-89304360D01*
X110461193Y-89302467D01*
X110461189Y-89302465D01*
X110250967Y-89215389D01*
X110250965Y-89215388D01*
X110246394Y-89213495D01*
X110166191Y-89194240D01*
X110020324Y-89159220D01*
X110020318Y-89159219D01*
X110015511Y-89158065D01*
X109778800Y-89139435D01*
X109542089Y-89158065D01*
X109537282Y-89159219D01*
X109537276Y-89159220D01*
X109391409Y-89194240D01*
X109311206Y-89213495D01*
X109306635Y-89215388D01*
X109306633Y-89215389D01*
X109096411Y-89302465D01*
X109096407Y-89302467D01*
X109091837Y-89304360D01*
X109087617Y-89306946D01*
X108893598Y-89425841D01*
X108893592Y-89425845D01*
X108889384Y-89428424D01*
X108708831Y-89582631D01*
X108554624Y-89763184D01*
X108552045Y-89767392D01*
X108552041Y-89767398D01*
X108436674Y-89955660D01*
X108430560Y-89965637D01*
X108428667Y-89970207D01*
X108428665Y-89970211D01*
X108358653Y-90139236D01*
X108339695Y-90185006D01*
X108320440Y-90265209D01*
X108286675Y-90405852D01*
X108284265Y-90415889D01*
X108265635Y-90652600D01*
X106135765Y-90652600D01*
X106117135Y-90415889D01*
X106114726Y-90405852D01*
X106080960Y-90265209D01*
X106061705Y-90185006D01*
X106042747Y-90139236D01*
X105972735Y-89970211D01*
X105972733Y-89970207D01*
X105970840Y-89965637D01*
X105964726Y-89955660D01*
X105849359Y-89767398D01*
X105849355Y-89767392D01*
X105846776Y-89763184D01*
X105692569Y-89582631D01*
X105512016Y-89428424D01*
X105507808Y-89425845D01*
X105507802Y-89425841D01*
X105313783Y-89306946D01*
X105309563Y-89304360D01*
X105304993Y-89302467D01*
X105304989Y-89302465D01*
X105094767Y-89215389D01*
X105094765Y-89215388D01*
X105090194Y-89213495D01*
X105009991Y-89194240D01*
X104864124Y-89159220D01*
X104864118Y-89159219D01*
X104859311Y-89158065D01*
X104622600Y-89139435D01*
X104385889Y-89158065D01*
X104381082Y-89159219D01*
X104381076Y-89159220D01*
X104235209Y-89194240D01*
X104155006Y-89213495D01*
X104150435Y-89215388D01*
X104150433Y-89215389D01*
X103940211Y-89302465D01*
X103940207Y-89302467D01*
X103935637Y-89304360D01*
X103931417Y-89306946D01*
X103737398Y-89425841D01*
X103737392Y-89425845D01*
X103733184Y-89428424D01*
X103552631Y-89582631D01*
X103398424Y-89763184D01*
X103395845Y-89767392D01*
X103395841Y-89767398D01*
X103280474Y-89955660D01*
X103274360Y-89965637D01*
X103272467Y-89970207D01*
X103272465Y-89970211D01*
X103202453Y-90139236D01*
X103183495Y-90185006D01*
X103164240Y-90265209D01*
X103130475Y-90405852D01*
X103128065Y-90415889D01*
X103109435Y-90652600D01*
X80342770Y-90652600D01*
X80162369Y-90527218D01*
X79756665Y-90292985D01*
X79332784Y-90093522D01*
X79330304Y-90092600D01*
X79330300Y-90092598D01*
X78896187Y-89931152D01*
X78896181Y-89931150D01*
X78893699Y-89930227D01*
X78891151Y-89929515D01*
X78891143Y-89929513D01*
X78445035Y-89804957D01*
X78445022Y-89804954D01*
X78442490Y-89804247D01*
X77982321Y-89716466D01*
X77516421Y-89667498D01*
X77228945Y-89661476D01*
X77050697Y-89657742D01*
X77050690Y-89657742D01*
X77048058Y-89657687D01*
X76835123Y-89671084D01*
X76583165Y-89686935D01*
X76583157Y-89686936D01*
X76580516Y-89687102D01*
X76117075Y-89755537D01*
X76114514Y-89756138D01*
X76114507Y-89756139D01*
X75973075Y-89789312D01*
X75660986Y-89862512D01*
X75658475Y-89863328D01*
X75658471Y-89863329D01*
X75217959Y-90006460D01*
X75215448Y-90007276D01*
X75213020Y-90008297D01*
X75213019Y-90008297D01*
X75187232Y-90019137D01*
X74783587Y-90188814D01*
X74781254Y-90190034D01*
X74781249Y-90190036D01*
X74695782Y-90234717D01*
X74368430Y-90405852D01*
X74366202Y-90407266D01*
X73975128Y-90655449D01*
X73975122Y-90655453D01*
X73972891Y-90656869D01*
X73599743Y-90940103D01*
X73251605Y-91253568D01*
X73249801Y-91255489D01*
X73249797Y-91255493D01*
X73191283Y-91317805D01*
X72930918Y-91595066D01*
X72639931Y-91962200D01*
X72638477Y-91964389D01*
X72638473Y-91964394D01*
X72415894Y-92299403D01*
X72380686Y-92352395D01*
X72155000Y-92762915D01*
X71964458Y-93190881D01*
X71810395Y-93633289D01*
X71809740Y-93635840D01*
X71809737Y-93635850D01*
X71707591Y-94033682D01*
X71693892Y-94087038D01*
X71615767Y-94548944D01*
X71596201Y-94781945D01*
X71578637Y-94991110D01*
X71576566Y-95015767D01*
X71576566Y-95484233D01*
X69386394Y-95484233D01*
X69398340Y-95199200D01*
X69391436Y-95034475D01*
X69378834Y-94733790D01*
X69378834Y-94733787D01*
X69378723Y-94731145D01*
X69320008Y-94266372D01*
X69270549Y-94033682D01*
X69223155Y-93810710D01*
X69223153Y-93810702D01*
X69222609Y-93808143D01*
X69087207Y-93359671D01*
X68914753Y-92924102D01*
X68706456Y-92504492D01*
X68497804Y-92159966D01*
X68465144Y-92106037D01*
X68465140Y-92106031D01*
X68463778Y-92103782D01*
X68453627Y-92089811D01*
X68189980Y-91726930D01*
X68189973Y-91726921D01*
X68188421Y-91724785D01*
X67927884Y-91422950D01*
X67884035Y-91372150D01*
X67884028Y-91372143D01*
X67882315Y-91370158D01*
X67597770Y-91091511D01*
X67549485Y-91044227D01*
X67549484Y-91044226D01*
X67547609Y-91042390D01*
X67545586Y-91040717D01*
X67545580Y-91040711D01*
X67250079Y-90796252D01*
X67186649Y-90743778D01*
X66801969Y-90476418D01*
X66396265Y-90242185D01*
X65972384Y-90042722D01*
X65969904Y-90041800D01*
X65969900Y-90041798D01*
X65535787Y-89880352D01*
X65535781Y-89880350D01*
X65533299Y-89879427D01*
X65530751Y-89878715D01*
X65530743Y-89878713D01*
X65084635Y-89754157D01*
X65084622Y-89754154D01*
X65082090Y-89753447D01*
X64621921Y-89665666D01*
X64156021Y-89616698D01*
X63868545Y-89610676D01*
X63690297Y-89606942D01*
X63690290Y-89606942D01*
X63687658Y-89606887D01*
X63489388Y-89619361D01*
X63222765Y-89636135D01*
X63222757Y-89636136D01*
X63220116Y-89636302D01*
X62756675Y-89704737D01*
X62754114Y-89705338D01*
X62754107Y-89705339D01*
X62665120Y-89726211D01*
X62300586Y-89811712D01*
X62298075Y-89812528D01*
X62298071Y-89812529D01*
X61935834Y-89930227D01*
X61855048Y-89956476D01*
X61423187Y-90138014D01*
X61420854Y-90139234D01*
X61420849Y-90139236D01*
X61333299Y-90185006D01*
X61008030Y-90355052D01*
X61005802Y-90356466D01*
X60614728Y-90604649D01*
X60614722Y-90604653D01*
X60612491Y-90606069D01*
X60239343Y-90889303D01*
X59891205Y-91202768D01*
X59570518Y-91544266D01*
X59279531Y-91911400D01*
X59278077Y-91913589D01*
X59278073Y-91913594D01*
X59041719Y-92269336D01*
X59020286Y-92301595D01*
X58794600Y-92712115D01*
X58604058Y-93140081D01*
X58449995Y-93582489D01*
X58449340Y-93585040D01*
X58449337Y-93585050D01*
X58334148Y-94033682D01*
X58333492Y-94036238D01*
X58255367Y-94498144D01*
X58216166Y-94964967D01*
X58216166Y-95433433D01*
X53340000Y-95433433D01*
X53340000Y-83946000D01*
X53360002Y-83877879D01*
X53413658Y-83831386D01*
X53466000Y-83820000D01*
X56519299Y-83820000D01*
X56587420Y-83840002D01*
G37*
%TD.AperFunction*%
M02*
